<?xml version="1.0" encoding="utf-8" standalone="no"?>
<!DOCTYPE svg PUBLIC "-//W3C//DTD SVG 1.1//EN"
  "http://www.w3.org/Graphics/SVG/1.1/DTD/svg11.dtd">
<svg xmlns:xlink="http://www.w3.org/1999/xlink" width="460.8pt" height="345.6pt" viewBox="0 0 460.8 345.6" xmlns="http://www.w3.org/2000/svg" version="1.1">
 <metadata>
  <rdf:RDF xmlns:dc="http://purl.org/dc/elements/1.1/" xmlns:cc="http://creativecommons.org/ns#" xmlns:rdf="http://www.w3.org/1999/02/22-rdf-syntax-ns#">
   <cc:Work>
    <dc:type rdf:resource="http://purl.org/dc/dcmitype/StillImage"/>
    <dc:date>2024-11-02T13:37:40.680251</dc:date>
    <dc:format>image/svg+xml</dc:format>
    <dc:creator>
     <cc:Agent>
      <dc:title>Matplotlib v3.8.4, https://matplotlib.org/</dc:title>
     </cc:Agent>
    </dc:creator>
   </cc:Work>
  </rdf:RDF>
 </metadata>
 <defs>
  <style type="text/css">*{stroke-linejoin: round; stroke-linecap: butt}</style>
 </defs>
 <g id="figure_1">
  <g id="patch_1">
   <path d="M 0 345.6 
L 460.8 345.6 
L 460.8 0 
L 0 0 
z
" style="fill: #ffffff"/>
  </g>
  <g id="axes_1">
   <g id="patch_2">
    <path d="M 57.6 307.584 
L 414.72 307.584 
L 414.72 41.472 
L 57.6 41.472 
z
" style="fill: #ffffff"/>
   </g>
   <g id="matplotlib.axis_1">
    <g id="xtick_1">
     <g id="line2d_1">
      <path d="M 57.6 307.584 
L 57.6 41.472 
" clip-path="url(#pfc2626a187)" style="fill: none; stroke: #b0b0b0; stroke-width: 0.8; stroke-linecap: square"/>
     </g>
     <g id="line2d_2">
      <defs>
       <path id="m9d46fe95e2" d="M 0 0 
L 0 3.5 
" style="stroke: #000000; stroke-width: 0.8"/>
      </defs>
      <g>
       <use xlink:href="#m9d46fe95e2" x="57.6" y="307.584" style="stroke: #000000; stroke-width: 0.8"/>
      </g>
     </g>
     <g id="text_1">
      <!-- $\mathdefault{10^{3}}$ -->
      <g transform="translate(48.8 322.182437) scale(0.1 -0.1)">
       <defs>
        <path id="DejaVuSans-31" d="M 794 531 
L 1825 531 
L 1825 4091 
L 703 3866 
L 703 4441 
L 1819 4666 
L 2450 4666 
L 2450 531 
L 3481 531 
L 3481 0 
L 794 0 
L 794 531 
z
" transform="scale(0.015625)"/>
        <path id="DejaVuSans-30" d="M 2034 4250 
Q 1547 4250 1301 3770 
Q 1056 3291 1056 2328 
Q 1056 1369 1301 889 
Q 1547 409 2034 409 
Q 2525 409 2770 889 
Q 3016 1369 3016 2328 
Q 3016 3291 2770 3770 
Q 2525 4250 2034 4250 
z
M 2034 4750 
Q 2819 4750 3233 4129 
Q 3647 3509 3647 2328 
Q 3647 1150 3233 529 
Q 2819 -91 2034 -91 
Q 1250 -91 836 529 
Q 422 1150 422 2328 
Q 422 3509 836 4129 
Q 1250 4750 2034 4750 
z
" transform="scale(0.015625)"/>
        <path id="DejaVuSans-33" d="M 2597 2516 
Q 3050 2419 3304 2112 
Q 3559 1806 3559 1356 
Q 3559 666 3084 287 
Q 2609 -91 1734 -91 
Q 1441 -91 1130 -33 
Q 819 25 488 141 
L 488 750 
Q 750 597 1062 519 
Q 1375 441 1716 441 
Q 2309 441 2620 675 
Q 2931 909 2931 1356 
Q 2931 1769 2642 2001 
Q 2353 2234 1838 2234 
L 1294 2234 
L 1294 2753 
L 1863 2753 
Q 2328 2753 2575 2939 
Q 2822 3125 2822 3475 
Q 2822 3834 2567 4026 
Q 2313 4219 1838 4219 
Q 1578 4219 1281 4162 
Q 984 4106 628 3988 
L 628 4550 
Q 988 4650 1302 4700 
Q 1616 4750 1894 4750 
Q 2613 4750 3031 4423 
Q 3450 4097 3450 3541 
Q 3450 3153 3228 2886 
Q 3006 2619 2597 2516 
z
" transform="scale(0.015625)"/>
       </defs>
       <use xlink:href="#DejaVuSans-31" transform="translate(0 0.765625)"/>
       <use xlink:href="#DejaVuSans-30" transform="translate(63.623047 0.765625)"/>
       <use xlink:href="#DejaVuSans-33" transform="translate(128.203125 39.046875) scale(0.7)"/>
      </g>
     </g>
    </g>
    <g id="xtick_2">
     <g id="line2d_3">
      <path d="M 128.722598 307.584 
L 128.722598 41.472 
" clip-path="url(#pfc2626a187)" style="fill: none; stroke: #b0b0b0; stroke-width: 0.8; stroke-linecap: square"/>
     </g>
     <g id="line2d_4">
      <g>
       <use xlink:href="#m9d46fe95e2" x="128.722598" y="307.584" style="stroke: #000000; stroke-width: 0.8"/>
      </g>
     </g>
     <g id="text_2">
      <!-- $\mathdefault{10^{4}}$ -->
      <g transform="translate(119.922598 322.182437) scale(0.1 -0.1)">
       <defs>
        <path id="DejaVuSans-34" d="M 2419 4116 
L 825 1625 
L 2419 1625 
L 2419 4116 
z
M 2253 4666 
L 3047 4666 
L 3047 1625 
L 3713 1625 
L 3713 1100 
L 3047 1100 
L 3047 0 
L 2419 0 
L 2419 1100 
L 313 1100 
L 313 1709 
L 2253 4666 
z
" transform="scale(0.015625)"/>
       </defs>
       <use xlink:href="#DejaVuSans-31" transform="translate(0 0.684375)"/>
       <use xlink:href="#DejaVuSans-30" transform="translate(63.623047 0.684375)"/>
       <use xlink:href="#DejaVuSans-34" transform="translate(128.203125 38.965625) scale(0.7)"/>
      </g>
     </g>
    </g>
    <g id="xtick_3">
     <g id="line2d_5">
      <path d="M 199.845197 307.584 
L 199.845197 41.472 
" clip-path="url(#pfc2626a187)" style="fill: none; stroke: #b0b0b0; stroke-width: 0.8; stroke-linecap: square"/>
     </g>
     <g id="line2d_6">
      <g>
       <use xlink:href="#m9d46fe95e2" x="199.845197" y="307.584" style="stroke: #000000; stroke-width: 0.8"/>
      </g>
     </g>
     <g id="text_3">
      <!-- $\mathdefault{10^{5}}$ -->
      <g transform="translate(191.045197 322.182437) scale(0.1 -0.1)">
       <defs>
        <path id="DejaVuSans-35" d="M 691 4666 
L 3169 4666 
L 3169 4134 
L 1269 4134 
L 1269 2991 
Q 1406 3038 1543 3061 
Q 1681 3084 1819 3084 
Q 2600 3084 3056 2656 
Q 3513 2228 3513 1497 
Q 3513 744 3044 326 
Q 2575 -91 1722 -91 
Q 1428 -91 1123 -41 
Q 819 9 494 109 
L 494 744 
Q 775 591 1075 516 
Q 1375 441 1709 441 
Q 2250 441 2565 725 
Q 2881 1009 2881 1497 
Q 2881 1984 2565 2268 
Q 2250 2553 1709 2553 
Q 1456 2553 1204 2497 
Q 953 2441 691 2322 
L 691 4666 
z
" transform="scale(0.015625)"/>
       </defs>
       <use xlink:href="#DejaVuSans-31" transform="translate(0 0.684375)"/>
       <use xlink:href="#DejaVuSans-30" transform="translate(63.623047 0.684375)"/>
       <use xlink:href="#DejaVuSans-35" transform="translate(128.203125 38.965625) scale(0.7)"/>
      </g>
     </g>
    </g>
    <g id="xtick_4">
     <g id="line2d_7">
      <path d="M 270.967795 307.584 
L 270.967795 41.472 
" clip-path="url(#pfc2626a187)" style="fill: none; stroke: #b0b0b0; stroke-width: 0.8; stroke-linecap: square"/>
     </g>
     <g id="line2d_8">
      <g>
       <use xlink:href="#m9d46fe95e2" x="270.967795" y="307.584" style="stroke: #000000; stroke-width: 0.8"/>
      </g>
     </g>
     <g id="text_4">
      <!-- $\mathdefault{10^{6}}$ -->
      <g transform="translate(262.167795 322.182437) scale(0.1 -0.1)">
       <defs>
        <path id="DejaVuSans-36" d="M 2113 2584 
Q 1688 2584 1439 2293 
Q 1191 2003 1191 1497 
Q 1191 994 1439 701 
Q 1688 409 2113 409 
Q 2538 409 2786 701 
Q 3034 994 3034 1497 
Q 3034 2003 2786 2293 
Q 2538 2584 2113 2584 
z
M 3366 4563 
L 3366 3988 
Q 3128 4100 2886 4159 
Q 2644 4219 2406 4219 
Q 1781 4219 1451 3797 
Q 1122 3375 1075 2522 
Q 1259 2794 1537 2939 
Q 1816 3084 2150 3084 
Q 2853 3084 3261 2657 
Q 3669 2231 3669 1497 
Q 3669 778 3244 343 
Q 2819 -91 2113 -91 
Q 1303 -91 875 529 
Q 447 1150 447 2328 
Q 447 3434 972 4092 
Q 1497 4750 2381 4750 
Q 2619 4750 2861 4703 
Q 3103 4656 3366 4563 
z
" transform="scale(0.015625)"/>
       </defs>
       <use xlink:href="#DejaVuSans-31" transform="translate(0 0.765625)"/>
       <use xlink:href="#DejaVuSans-30" transform="translate(63.623047 0.765625)"/>
       <use xlink:href="#DejaVuSans-36" transform="translate(128.203125 39.046875) scale(0.7)"/>
      </g>
     </g>
    </g>
    <g id="xtick_5">
     <g id="line2d_9">
      <path d="M 342.090393 307.584 
L 342.090393 41.472 
" clip-path="url(#pfc2626a187)" style="fill: none; stroke: #b0b0b0; stroke-width: 0.8; stroke-linecap: square"/>
     </g>
     <g id="line2d_10">
      <g>
       <use xlink:href="#m9d46fe95e2" x="342.090393" y="307.584" style="stroke: #000000; stroke-width: 0.8"/>
      </g>
     </g>
     <g id="text_5">
      <!-- $\mathdefault{10^{7}}$ -->
      <g transform="translate(333.290393 322.182437) scale(0.1 -0.1)">
       <defs>
        <path id="DejaVuSans-37" d="M 525 4666 
L 3525 4666 
L 3525 4397 
L 1831 0 
L 1172 0 
L 2766 4134 
L 525 4134 
L 525 4666 
z
" transform="scale(0.015625)"/>
       </defs>
       <use xlink:href="#DejaVuSans-31" transform="translate(0 0.684375)"/>
       <use xlink:href="#DejaVuSans-30" transform="translate(63.623047 0.684375)"/>
       <use xlink:href="#DejaVuSans-37" transform="translate(128.203125 38.965625) scale(0.7)"/>
      </g>
     </g>
    </g>
    <g id="xtick_6">
     <g id="line2d_11">
      <path d="M 413.212991 307.584 
L 413.212991 41.472 
" clip-path="url(#pfc2626a187)" style="fill: none; stroke: #b0b0b0; stroke-width: 0.8; stroke-linecap: square"/>
     </g>
     <g id="line2d_12">
      <g>
       <use xlink:href="#m9d46fe95e2" x="413.212991" y="307.584" style="stroke: #000000; stroke-width: 0.8"/>
      </g>
     </g>
     <g id="text_6">
      <!-- $\mathdefault{10^{8}}$ -->
      <g transform="translate(404.412991 322.182437) scale(0.1 -0.1)">
       <defs>
        <path id="DejaVuSans-38" d="M 2034 2216 
Q 1584 2216 1326 1975 
Q 1069 1734 1069 1313 
Q 1069 891 1326 650 
Q 1584 409 2034 409 
Q 2484 409 2743 651 
Q 3003 894 3003 1313 
Q 3003 1734 2745 1975 
Q 2488 2216 2034 2216 
z
M 1403 2484 
Q 997 2584 770 2862 
Q 544 3141 544 3541 
Q 544 4100 942 4425 
Q 1341 4750 2034 4750 
Q 2731 4750 3128 4425 
Q 3525 4100 3525 3541 
Q 3525 3141 3298 2862 
Q 3072 2584 2669 2484 
Q 3125 2378 3379 2068 
Q 3634 1759 3634 1313 
Q 3634 634 3220 271 
Q 2806 -91 2034 -91 
Q 1263 -91 848 271 
Q 434 634 434 1313 
Q 434 1759 690 2068 
Q 947 2378 1403 2484 
z
M 1172 3481 
Q 1172 3119 1398 2916 
Q 1625 2713 2034 2713 
Q 2441 2713 2670 2916 
Q 2900 3119 2900 3481 
Q 2900 3844 2670 4047 
Q 2441 4250 2034 4250 
Q 1625 4250 1398 4047 
Q 1172 3844 1172 3481 
z
" transform="scale(0.015625)"/>
       </defs>
       <use xlink:href="#DejaVuSans-31" transform="translate(0 0.765625)"/>
       <use xlink:href="#DejaVuSans-30" transform="translate(63.623047 0.765625)"/>
       <use xlink:href="#DejaVuSans-38" transform="translate(128.203125 39.046875) scale(0.7)"/>
      </g>
     </g>
    </g>
    <g id="xtick_7">
     <g id="line2d_13">
      <defs>
       <path id="ma60154a410" d="M 0 0 
L 0 2 
" style="stroke: #000000; stroke-width: 0.6"/>
      </defs>
      <g>
       <use xlink:href="#ma60154a410" x="79.010035" y="307.584" style="stroke: #000000; stroke-width: 0.6"/>
      </g>
     </g>
    </g>
    <g id="xtick_8">
     <g id="line2d_14">
      <g>
       <use xlink:href="#ma60154a410" x="91.534103" y="307.584" style="stroke: #000000; stroke-width: 0.6"/>
      </g>
     </g>
    </g>
    <g id="xtick_9">
     <g id="line2d_15">
      <g>
       <use xlink:href="#ma60154a410" x="100.420071" y="307.584" style="stroke: #000000; stroke-width: 0.6"/>
      </g>
     </g>
    </g>
    <g id="xtick_10">
     <g id="line2d_16">
      <g>
       <use xlink:href="#ma60154a410" x="107.312563" y="307.584" style="stroke: #000000; stroke-width: 0.6"/>
      </g>
     </g>
    </g>
    <g id="xtick_11">
     <g id="line2d_17">
      <g>
       <use xlink:href="#ma60154a410" x="112.944139" y="307.584" style="stroke: #000000; stroke-width: 0.6"/>
      </g>
     </g>
    </g>
    <g id="xtick_12">
     <g id="line2d_18">
      <g>
       <use xlink:href="#ma60154a410" x="117.705568" y="307.584" style="stroke: #000000; stroke-width: 0.6"/>
      </g>
     </g>
    </g>
    <g id="xtick_13">
     <g id="line2d_19">
      <g>
       <use xlink:href="#ma60154a410" x="121.830106" y="307.584" style="stroke: #000000; stroke-width: 0.6"/>
      </g>
     </g>
    </g>
    <g id="xtick_14">
     <g id="line2d_20">
      <g>
       <use xlink:href="#ma60154a410" x="125.468207" y="307.584" style="stroke: #000000; stroke-width: 0.6"/>
      </g>
     </g>
    </g>
    <g id="xtick_15">
     <g id="line2d_21">
      <g>
       <use xlink:href="#ma60154a410" x="150.132634" y="307.584" style="stroke: #000000; stroke-width: 0.6"/>
      </g>
     </g>
    </g>
    <g id="xtick_16">
     <g id="line2d_22">
      <g>
       <use xlink:href="#ma60154a410" x="162.656702" y="307.584" style="stroke: #000000; stroke-width: 0.6"/>
      </g>
     </g>
    </g>
    <g id="xtick_17">
     <g id="line2d_23">
      <g>
       <use xlink:href="#ma60154a410" x="171.542669" y="307.584" style="stroke: #000000; stroke-width: 0.6"/>
      </g>
     </g>
    </g>
    <g id="xtick_18">
     <g id="line2d_24">
      <g>
       <use xlink:href="#ma60154a410" x="178.435161" y="307.584" style="stroke: #000000; stroke-width: 0.6"/>
      </g>
     </g>
    </g>
    <g id="xtick_19">
     <g id="line2d_25">
      <g>
       <use xlink:href="#ma60154a410" x="184.066737" y="307.584" style="stroke: #000000; stroke-width: 0.6"/>
      </g>
     </g>
    </g>
    <g id="xtick_20">
     <g id="line2d_26">
      <g>
       <use xlink:href="#ma60154a410" x="188.828167" y="307.584" style="stroke: #000000; stroke-width: 0.6"/>
      </g>
     </g>
    </g>
    <g id="xtick_21">
     <g id="line2d_27">
      <g>
       <use xlink:href="#ma60154a410" x="192.952705" y="307.584" style="stroke: #000000; stroke-width: 0.6"/>
      </g>
     </g>
    </g>
    <g id="xtick_22">
     <g id="line2d_28">
      <g>
       <use xlink:href="#ma60154a410" x="196.590805" y="307.584" style="stroke: #000000; stroke-width: 0.6"/>
      </g>
     </g>
    </g>
    <g id="xtick_23">
     <g id="line2d_29">
      <g>
       <use xlink:href="#ma60154a410" x="221.255232" y="307.584" style="stroke: #000000; stroke-width: 0.6"/>
      </g>
     </g>
    </g>
    <g id="xtick_24">
     <g id="line2d_30">
      <g>
       <use xlink:href="#ma60154a410" x="233.7793" y="307.584" style="stroke: #000000; stroke-width: 0.6"/>
      </g>
     </g>
    </g>
    <g id="xtick_25">
     <g id="line2d_31">
      <g>
       <use xlink:href="#ma60154a410" x="242.665267" y="307.584" style="stroke: #000000; stroke-width: 0.6"/>
      </g>
     </g>
    </g>
    <g id="xtick_26">
     <g id="line2d_32">
      <g>
       <use xlink:href="#ma60154a410" x="249.557759" y="307.584" style="stroke: #000000; stroke-width: 0.6"/>
      </g>
     </g>
    </g>
    <g id="xtick_27">
     <g id="line2d_33">
      <g>
       <use xlink:href="#ma60154a410" x="255.189335" y="307.584" style="stroke: #000000; stroke-width: 0.6"/>
      </g>
     </g>
    </g>
    <g id="xtick_28">
     <g id="line2d_34">
      <g>
       <use xlink:href="#ma60154a410" x="259.950765" y="307.584" style="stroke: #000000; stroke-width: 0.6"/>
      </g>
     </g>
    </g>
    <g id="xtick_29">
     <g id="line2d_35">
      <g>
       <use xlink:href="#ma60154a410" x="264.075303" y="307.584" style="stroke: #000000; stroke-width: 0.6"/>
      </g>
     </g>
    </g>
    <g id="xtick_30">
     <g id="line2d_36">
      <g>
       <use xlink:href="#ma60154a410" x="267.713403" y="307.584" style="stroke: #000000; stroke-width: 0.6"/>
      </g>
     </g>
    </g>
    <g id="xtick_31">
     <g id="line2d_37">
      <g>
       <use xlink:href="#ma60154a410" x="292.37783" y="307.584" style="stroke: #000000; stroke-width: 0.6"/>
      </g>
     </g>
    </g>
    <g id="xtick_32">
     <g id="line2d_38">
      <g>
       <use xlink:href="#ma60154a410" x="304.901898" y="307.584" style="stroke: #000000; stroke-width: 0.6"/>
      </g>
     </g>
    </g>
    <g id="xtick_33">
     <g id="line2d_39">
      <g>
       <use xlink:href="#ma60154a410" x="313.787866" y="307.584" style="stroke: #000000; stroke-width: 0.6"/>
      </g>
     </g>
    </g>
    <g id="xtick_34">
     <g id="line2d_40">
      <g>
       <use xlink:href="#ma60154a410" x="320.680358" y="307.584" style="stroke: #000000; stroke-width: 0.6"/>
      </g>
     </g>
    </g>
    <g id="xtick_35">
     <g id="line2d_41">
      <g>
       <use xlink:href="#ma60154a410" x="326.311934" y="307.584" style="stroke: #000000; stroke-width: 0.6"/>
      </g>
     </g>
    </g>
    <g id="xtick_36">
     <g id="line2d_42">
      <g>
       <use xlink:href="#ma60154a410" x="331.073363" y="307.584" style="stroke: #000000; stroke-width: 0.6"/>
      </g>
     </g>
    </g>
    <g id="xtick_37">
     <g id="line2d_43">
      <g>
       <use xlink:href="#ma60154a410" x="335.197901" y="307.584" style="stroke: #000000; stroke-width: 0.6"/>
      </g>
     </g>
    </g>
    <g id="xtick_38">
     <g id="line2d_44">
      <g>
       <use xlink:href="#ma60154a410" x="338.836002" y="307.584" style="stroke: #000000; stroke-width: 0.6"/>
      </g>
     </g>
    </g>
    <g id="xtick_39">
     <g id="line2d_45">
      <g>
       <use xlink:href="#ma60154a410" x="363.500429" y="307.584" style="stroke: #000000; stroke-width: 0.6"/>
      </g>
     </g>
    </g>
    <g id="xtick_40">
     <g id="line2d_46">
      <g>
       <use xlink:href="#ma60154a410" x="376.024496" y="307.584" style="stroke: #000000; stroke-width: 0.6"/>
      </g>
     </g>
    </g>
    <g id="xtick_41">
     <g id="line2d_47">
      <g>
       <use xlink:href="#ma60154a410" x="384.910464" y="307.584" style="stroke: #000000; stroke-width: 0.6"/>
      </g>
     </g>
    </g>
    <g id="xtick_42">
     <g id="line2d_48">
      <g>
       <use xlink:href="#ma60154a410" x="391.802956" y="307.584" style="stroke: #000000; stroke-width: 0.6"/>
      </g>
     </g>
    </g>
    <g id="xtick_43">
     <g id="line2d_49">
      <g>
       <use xlink:href="#ma60154a410" x="397.434532" y="307.584" style="stroke: #000000; stroke-width: 0.6"/>
      </g>
     </g>
    </g>
    <g id="xtick_44">
     <g id="line2d_50">
      <g>
       <use xlink:href="#ma60154a410" x="402.195962" y="307.584" style="stroke: #000000; stroke-width: 0.6"/>
      </g>
     </g>
    </g>
    <g id="xtick_45">
     <g id="line2d_51">
      <g>
       <use xlink:href="#ma60154a410" x="406.320499" y="307.584" style="stroke: #000000; stroke-width: 0.6"/>
      </g>
     </g>
    </g>
    <g id="xtick_46">
     <g id="line2d_52">
      <g>
       <use xlink:href="#ma60154a410" x="409.9586" y="307.584" style="stroke: #000000; stroke-width: 0.6"/>
      </g>
     </g>
    </g>
    <g id="text_7">
     <!-- $Re$ -->
     <g transform="translate(229.56 335.860562) scale(0.1 -0.1)">
      <defs>
       <path id="DejaVuSans-Oblique-52" d="M 1613 4147 
L 1294 2491 
L 2106 2491 
Q 2584 2491 2879 2755 
Q 3175 3019 3175 3444 
Q 3175 3784 2976 3965 
Q 2778 4147 2406 4147 
L 1613 4147 
z
M 2772 2241 
Q 2972 2194 3105 2009 
Q 3238 1825 3413 1275 
L 3809 0 
L 3144 0 
L 2778 1197 
Q 2638 1659 2453 1815 
Q 2269 1972 1888 1972 
L 1191 1972 
L 806 0 
L 172 0 
L 1081 4666 
L 2503 4666 
Q 3150 4666 3495 4373 
Q 3841 4081 3841 3531 
Q 3841 3044 3547 2687 
Q 3253 2331 2772 2241 
z
" transform="scale(0.015625)"/>
       <path id="DejaVuSans-Oblique-65" d="M 3078 2063 
Q 3088 2113 3092 2166 
Q 3097 2219 3097 2272 
Q 3097 2653 2873 2875 
Q 2650 3097 2266 3097 
Q 1838 3097 1509 2826 
Q 1181 2556 1013 2059 
L 3078 2063 
z
M 3578 1613 
L 903 1613 
Q 884 1494 878 1425 
Q 872 1356 872 1306 
Q 872 872 1139 634 
Q 1406 397 1894 397 
Q 2269 397 2603 481 
Q 2938 566 3225 728 
L 3116 159 
Q 2806 34 2476 -28 
Q 2147 -91 1806 -91 
Q 1078 -91 686 257 
Q 294 606 294 1247 
Q 294 1794 489 2264 
Q 684 2734 1063 3103 
Q 1306 3334 1642 3459 
Q 1978 3584 2356 3584 
Q 2950 3584 3301 3228 
Q 3653 2872 3653 2272 
Q 3653 2128 3634 1964 
Q 3616 1800 3578 1613 
z
" transform="scale(0.015625)"/>
      </defs>
      <use xlink:href="#DejaVuSans-Oblique-52" transform="translate(0 0.09375)"/>
      <use xlink:href="#DejaVuSans-Oblique-65" transform="translate(69.482422 0.09375)"/>
     </g>
    </g>
   </g>
   <g id="matplotlib.axis_2">
    <g id="ytick_1">
     <g id="line2d_53">
      <path d="M 57.6 212.315274 
L 414.72 212.315274 
" clip-path="url(#pfc2626a187)" style="fill: none; stroke: #b0b0b0; stroke-width: 0.8; stroke-linecap: square"/>
     </g>
     <g id="line2d_54">
      <defs>
       <path id="m8e2c46efaa" d="M 0 0 
L -3.5 0 
" style="stroke: #000000; stroke-width: 0.8"/>
      </defs>
      <g>
       <use xlink:href="#m8e2c46efaa" x="57.6" y="212.315274" style="stroke: #000000; stroke-width: 0.8"/>
      </g>
     </g>
     <g id="text_8">
      <!-- $\mathdefault{10^{-2}}$ -->
      <g transform="translate(27.1 216.114493) scale(0.1 -0.1)">
       <defs>
        <path id="DejaVuSans-2212" d="M 678 2272 
L 4684 2272 
L 4684 1741 
L 678 1741 
L 678 2272 
z
" transform="scale(0.015625)"/>
        <path id="DejaVuSans-32" d="M 1228 531 
L 3431 531 
L 3431 0 
L 469 0 
L 469 531 
Q 828 903 1448 1529 
Q 2069 2156 2228 2338 
Q 2531 2678 2651 2914 
Q 2772 3150 2772 3378 
Q 2772 3750 2511 3984 
Q 2250 4219 1831 4219 
Q 1534 4219 1204 4116 
Q 875 4013 500 3803 
L 500 4441 
Q 881 4594 1212 4672 
Q 1544 4750 1819 4750 
Q 2544 4750 2975 4387 
Q 3406 4025 3406 3419 
Q 3406 3131 3298 2873 
Q 3191 2616 2906 2266 
Q 2828 2175 2409 1742 
Q 1991 1309 1228 531 
z
" transform="scale(0.015625)"/>
       </defs>
       <use xlink:href="#DejaVuSans-31" transform="translate(0 0.765625)"/>
       <use xlink:href="#DejaVuSans-30" transform="translate(63.623047 0.765625)"/>
       <use xlink:href="#DejaVuSans-2212" transform="translate(128.203125 39.046875) scale(0.7)"/>
       <use xlink:href="#DejaVuSans-32" transform="translate(186.855469 39.046875) scale(0.7)"/>
      </g>
     </g>
    </g>
    <g id="ytick_2">
     <g id="line2d_55">
      <path d="M 57.6 41.472 
L 414.72 41.472 
" clip-path="url(#pfc2626a187)" style="fill: none; stroke: #b0b0b0; stroke-width: 0.8; stroke-linecap: square"/>
     </g>
     <g id="line2d_56">
      <g>
       <use xlink:href="#m8e2c46efaa" x="57.6" y="41.472" style="stroke: #000000; stroke-width: 0.8"/>
      </g>
     </g>
     <g id="text_9">
      <!-- $\mathdefault{10^{-1}}$ -->
      <g transform="translate(27.1 45.271219) scale(0.1 -0.1)">
       <use xlink:href="#DejaVuSans-31" transform="translate(0 0.684375)"/>
       <use xlink:href="#DejaVuSans-30" transform="translate(63.623047 0.684375)"/>
       <use xlink:href="#DejaVuSans-2212" transform="translate(128.203125 38.965625) scale(0.7)"/>
       <use xlink:href="#DejaVuSans-31" transform="translate(186.855469 38.965625) scale(0.7)"/>
      </g>
     </g>
    </g>
    <g id="ytick_3">
     <g id="line2d_57">
      <defs>
       <path id="mbef25d5083" d="M 0 0 
L -2 0 
" style="stroke: #000000; stroke-width: 0.6"/>
      </defs>
      <g>
       <use xlink:href="#mbef25d5083" x="57.6" y="301.64559" style="stroke: #000000; stroke-width: 0.6"/>
      </g>
     </g>
    </g>
    <g id="ytick_4">
     <g id="line2d_58">
      <g>
       <use xlink:href="#mbef25d5083" x="57.6" y="280.300648" style="stroke: #000000; stroke-width: 0.6"/>
      </g>
     </g>
    </g>
    <g id="ytick_5">
     <g id="line2d_59">
      <g>
       <use xlink:href="#mbef25d5083" x="57.6" y="263.744224" style="stroke: #000000; stroke-width: 0.6"/>
      </g>
     </g>
    </g>
    <g id="ytick_6">
     <g id="line2d_60">
      <g>
       <use xlink:href="#mbef25d5083" x="57.6" y="250.216641" style="stroke: #000000; stroke-width: 0.6"/>
      </g>
     </g>
    </g>
    <g id="ytick_7">
     <g id="line2d_61">
      <g>
       <use xlink:href="#mbef25d5083" x="57.6" y="238.779232" style="stroke: #000000; stroke-width: 0.6"/>
      </g>
     </g>
    </g>
    <g id="ytick_8">
     <g id="line2d_62">
      <g>
       <use xlink:href="#mbef25d5083" x="57.6" y="228.871698" style="stroke: #000000; stroke-width: 0.6"/>
      </g>
     </g>
    </g>
    <g id="ytick_9">
     <g id="line2d_63">
      <g>
       <use xlink:href="#mbef25d5083" x="57.6" y="220.132633" style="stroke: #000000; stroke-width: 0.6"/>
      </g>
     </g>
    </g>
    <g id="ytick_10">
     <g id="line2d_64">
      <g>
       <use xlink:href="#mbef25d5083" x="57.6" y="160.886324" style="stroke: #000000; stroke-width: 0.6"/>
      </g>
     </g>
    </g>
    <g id="ytick_11">
     <g id="line2d_65">
      <g>
       <use xlink:href="#mbef25d5083" x="57.6" y="130.802317" style="stroke: #000000; stroke-width: 0.6"/>
      </g>
     </g>
    </g>
    <g id="ytick_12">
     <g id="line2d_66">
      <g>
       <use xlink:href="#mbef25d5083" x="57.6" y="109.457374" style="stroke: #000000; stroke-width: 0.6"/>
      </g>
     </g>
    </g>
    <g id="ytick_13">
     <g id="line2d_67">
      <g>
       <use xlink:href="#mbef25d5083" x="57.6" y="92.90095" style="stroke: #000000; stroke-width: 0.6"/>
      </g>
     </g>
    </g>
    <g id="ytick_14">
     <g id="line2d_68">
      <g>
       <use xlink:href="#mbef25d5083" x="57.6" y="79.373367" style="stroke: #000000; stroke-width: 0.6"/>
      </g>
     </g>
    </g>
    <g id="ytick_15">
     <g id="line2d_69">
      <g>
       <use xlink:href="#mbef25d5083" x="57.6" y="67.935958" style="stroke: #000000; stroke-width: 0.6"/>
      </g>
     </g>
    </g>
    <g id="ytick_16">
     <g id="line2d_70">
      <g>
       <use xlink:href="#mbef25d5083" x="57.6" y="58.028424" style="stroke: #000000; stroke-width: 0.6"/>
      </g>
     </g>
    </g>
    <g id="ytick_17">
     <g id="line2d_71">
      <g>
       <use xlink:href="#mbef25d5083" x="57.6" y="49.289359" style="stroke: #000000; stroke-width: 0.6"/>
      </g>
     </g>
    </g>
    <g id="text_10">
     <!-- $f_D$ -->
     <g transform="translate(21.020313 179.128) rotate(-90) scale(0.1 -0.1)">
      <defs>
       <path id="DejaVuSans-Oblique-66" d="M 3059 4863 
L 2969 4384 
L 2419 4384 
Q 2106 4384 1964 4261 
Q 1822 4138 1753 3809 
L 1691 3500 
L 2638 3500 
L 2553 3053 
L 1606 3053 
L 1013 0 
L 434 0 
L 1031 3053 
L 481 3053 
L 563 3500 
L 1113 3500 
L 1159 3744 
Q 1278 4363 1576 4613 
Q 1875 4863 2516 4863 
L 3059 4863 
z
" transform="scale(0.015625)"/>
       <path id="DejaVuSans-Oblique-44" d="M 1081 4666 
L 2438 4666 
Q 3519 4666 4070 4208 
Q 4622 3750 4622 2847 
Q 4622 2250 4412 1698 
Q 4203 1147 3834 769 
Q 3463 381 2891 190 
Q 2319 0 1538 0 
L 172 0 
L 1081 4666 
z
M 1613 4147 
L 909 519 
L 1734 519 
Q 2794 519 3375 1128 
Q 3956 1738 3956 2847 
Q 3956 3519 3581 3833 
Q 3206 4147 2406 4147 
L 1613 4147 
z
" transform="scale(0.015625)"/>
      </defs>
      <use xlink:href="#DejaVuSans-Oblique-66" transform="translate(0 0.015625)"/>
      <use xlink:href="#DejaVuSans-Oblique-44" transform="translate(35.205078 -16.390625) scale(0.7)"/>
     </g>
    </g>
   </g>
   <g id="line2d_72">
    <path d="M 79.010035 66.879486 
L 82.385823 68.245665 
L 85.76161 69.512907 
L 89.137398 70.685837 
L 92.513185 71.769183 
L 95.888973 72.767735 
L 99.26476 73.686308 
L 102.640547 74.529699 
L 106.016335 75.302654 
L 109.392122 76.009832 
L 112.76791 76.655773 
L 116.143697 77.244872 
L 119.519485 77.781355 
L 122.895272 78.269262 
L 126.27106 78.712435 
L 129.646847 79.114505 
L 133.022634 79.478892 
L 136.398422 79.8088 
L 139.774209 80.107218 
L 143.149997 80.376924 
L 146.525784 80.620495 
L 149.901572 80.840309 
L 153.277359 81.038555 
L 156.653146 81.217245 
L 160.028934 81.378224 
L 163.404721 81.523177 
L 166.780509 81.653642 
L 170.156296 81.771021 
L 173.532084 81.876589 
L 176.907871 81.971503 
L 180.283658 82.056814 
L 183.659446 82.133474 
L 187.035233 82.202342 
L 190.411021 82.264198 
L 193.786808 82.319745 
L 197.162596 82.369618 
L 200.538383 82.414389 
L 203.914171 82.454575 
L 207.289958 82.490641 
L 210.665745 82.523005 
L 214.041533 82.552044 
L 217.41732 82.578098 
L 220.793108 82.601472 
L 224.168895 82.622439 
L 227.544683 82.641246 
L 230.92047 82.658115 
L 234.296257 82.673245 
L 237.672045 82.686814 
L 241.047832 82.698983 
L 244.42362 82.709895 
L 247.799407 82.719681 
L 251.175195 82.728456 
L 254.550982 82.736324 
L 257.926769 82.74338 
L 261.302557 82.749706 
L 264.678344 82.755378 
L 268.054132 82.760464 
L 271.429919 82.765024 
L 274.805707 82.769112 
L 278.181494 82.772778 
L 281.557281 82.776064 
L 284.933069 82.77901 
L 288.308856 82.781652 
L 291.684644 82.78402 
L 295.060431 82.786143 
L 298.436219 82.788047 
L 301.812006 82.789753 
L 305.187794 82.791283 
L 308.563581 82.792655 
L 311.939368 82.793884 
L 315.315156 82.794987 
L 318.690943 82.795975 
L 322.066731 82.796861 
L 325.442518 82.797655 
L 328.818306 82.798367 
L 332.194093 82.799005 
L 335.56988 82.799578 
L 338.945668 82.800091 
L 342.321455 82.800551 
L 345.697243 82.800963 
L 349.07303 82.801333 
L 352.448818 82.801664 
L 355.824605 82.801961 
L 359.200392 82.802227 
L 362.57618 82.802466 
L 365.951967 82.80268 
L 369.327755 82.802872 
L 372.703542 82.803044 
L 376.07933 82.803198 
L 379.455117 82.803336 
L 382.830905 82.80346 
L 386.206692 82.803571 
L 389.582479 82.803671 
L 392.958267 82.80376 
L 396.334054 82.80384 
L 399.709842 82.803912 
L 403.085629 82.803976 
L 406.461417 82.804034 
L 409.837204 82.804086 
L 413.212991 82.804132 
" clip-path="url(#pfc2626a187)" style="fill: none; stroke: #1f77b4; stroke-width: 1.5; stroke-linecap: square"/>
   </g>
   <g id="line2d_73">
    <path d="M 79.010035 82.307723 
L 82.385823 84.419075 
L 85.76161 86.431231 
L 89.137398 88.345109 
L 92.513185 90.161775 
L 95.888973 91.882471 
L 99.26476 93.508645 
L 102.640547 95.041979 
L 106.016335 96.484394 
L 109.392122 97.838065 
L 112.76791 99.105416 
L 116.143697 100.289113 
L 119.519485 101.392046 
L 122.895272 102.417311 
L 126.27106 103.368175 
L 129.646847 104.24805 
L 133.022634 105.060456 
L 136.398422 105.808983 
L 139.774209 106.497258 
L 143.149997 107.128908 
L 146.525784 107.707526 
L 149.901572 108.236645 
L 153.277359 108.719709 
L 156.653146 109.160049 
L 160.028934 109.560869 
L 163.404721 109.925231 
L 166.780509 110.256041 
L 170.156296 110.556045 
L 173.532084 110.827825 
L 176.907871 111.073798 
L 180.283658 111.296215 
L 183.659446 111.497169 
L 187.035233 111.678596 
L 190.411021 111.842281 
L 193.786808 111.98987 
L 197.162596 112.122868 
L 200.538383 112.242659 
L 203.914171 112.350503 
L 207.289958 112.447551 
L 210.665745 112.534851 
L 214.041533 112.613355 
L 217.41732 112.683927 
L 220.793108 112.747352 
L 224.168895 112.804337 
L 227.544683 112.855527 
L 230.92047 112.9015 
L 234.296257 112.942781 
L 237.672045 112.979842 
L 241.047832 113.01311 
L 244.42362 113.042969 
L 247.799407 113.069765 
L 251.175195 113.09381 
L 254.550982 113.115383 
L 257.926769 113.134738 
L 261.302557 113.152102 
L 264.678344 113.167677 
L 268.054132 113.181647 
L 271.429919 113.194177 
L 274.805707 113.205415 
L 278.181494 113.215494 
L 281.557281 113.224532 
L 284.933069 113.232637 
L 288.308856 113.239906 
L 291.684644 113.246423 
L 295.060431 113.252267 
L 298.436219 113.257507 
L 301.812006 113.262205 
L 305.187794 113.266418 
L 308.563581 113.270195 
L 311.939368 113.273582 
L 315.315156 113.276618 
L 318.690943 113.27934 
L 322.066731 113.281781 
L 325.442518 113.283969 
L 328.818306 113.285931 
L 332.194093 113.28769 
L 335.56988 113.289266 
L 338.945668 113.29068 
L 342.321455 113.291947 
L 345.697243 113.293083 
L 349.07303 113.294102 
L 352.448818 113.295015 
L 355.824605 113.295834 
L 359.200392 113.296568 
L 362.57618 113.297226 
L 365.951967 113.297816 
L 369.327755 113.298344 
L 372.703542 113.298818 
L 376.07933 113.299243 
L 379.455117 113.299624 
L 382.830905 113.299966 
L 386.206692 113.300272 
L 389.582479 113.300547 
L 392.958267 113.300793 
L 396.334054 113.301013 
L 399.709842 113.301211 
L 403.085629 113.301388 
L 406.461417 113.301547 
L 409.837204 113.30169 
L 413.212991 113.301818 
" clip-path="url(#pfc2626a187)" style="fill: none; stroke: #ff7f0e; stroke-width: 1.5; stroke-linecap: square"/>
   </g>
   <g id="line2d_74">
    <path d="M 79.010035 88.865719 
L 82.385823 91.459046 
L 85.76161 93.978429 
L 89.137398 96.424276 
L 92.513185 98.796833 
L 95.888973 101.096203 
L 99.26476 103.322359 
L 102.640547 105.475171 
L 106.016335 107.554428 
L 109.392122 109.559863 
L 112.76791 111.491181 
L 116.143697 113.348088 
L 119.519485 115.130323 
L 122.895272 116.837693 
L 126.27106 118.4701 
L 129.646847 120.027577 
L 133.022634 121.510314 
L 136.398422 122.91869 
L 139.774209 124.253291 
L 143.149997 125.514932 
L 146.525784 126.704668 
L 149.901572 127.823802 
L 153.277359 128.87388 
L 156.653146 129.856692 
L 160.028934 130.77425 
L 163.404721 131.628775 
L 166.780509 132.422671 
L 170.156296 133.158498 
L 173.532084 133.838939 
L 176.907871 134.466772 
L 180.283658 135.044833 
L 183.659446 135.57599 
L 187.035233 136.063107 
L 190.411021 136.509022 
L 193.786808 136.916518 
L 197.162596 137.288306 
L 200.538383 137.627005 
L 203.914171 137.935127 
L 207.289958 138.215068 
L 210.665745 138.469099 
L 214.041533 138.699363 
L 217.41732 138.90787 
L 220.793108 139.096498 
L 224.168895 139.266998 
L 227.544683 139.420989 
L 230.92047 139.559971 
L 234.296257 139.685326 
L 237.672045 139.798321 
L 241.047832 139.900121 
L 244.42362 139.99179 
L 247.799407 140.0743 
L 251.175195 140.148537 
L 254.550982 140.215305 
L 257.926769 140.275336 
L 261.302557 140.329295 
L 264.678344 140.377782 
L 268.054132 140.421343 
L 271.429919 140.460468 
L 274.805707 140.495603 
L 278.181494 140.527149 
L 281.557281 140.555469 
L 284.933069 140.580888 
L 288.308856 140.603702 
L 291.684644 140.624174 
L 295.060431 140.642543 
L 298.436219 140.659023 
L 301.812006 140.673808 
L 305.187794 140.687071 
L 308.563581 140.698968 
L 311.939368 140.709639 
L 315.315156 140.71921 
L 318.690943 140.727793 
L 322.066731 140.735491 
L 325.442518 140.742394 
L 328.818306 140.748584 
L 332.194093 140.754135 
L 335.56988 140.759112 
L 338.945668 140.763575 
L 342.321455 140.767577 
L 345.697243 140.771165 
L 349.07303 140.774382 
L 352.448818 140.777267 
L 355.824605 140.779853 
L 359.200392 140.782171 
L 362.57618 140.78425 
L 365.951967 140.786114 
L 369.327755 140.787785 
L 372.703542 140.789283 
L 376.07933 140.790626 
L 379.455117 140.79183 
L 382.830905 140.79291 
L 386.206692 140.793878 
L 389.582479 140.794745 
L 392.958267 140.795523 
L 396.334054 140.79622 
L 399.709842 140.796846 
L 403.085629 140.797406 
L 406.461417 140.797908 
L 409.837204 140.798359 
L 413.212991 140.798763 
" clip-path="url(#pfc2626a187)" style="fill: none; stroke: #2ca02c; stroke-width: 1.5; stroke-linecap: square"/>
   </g>
   <g id="line2d_75">
    <path d="M 79.010035 90.74079 
L 82.385823 93.498164 
L 85.76161 96.195222 
L 89.137398 98.833249 
L 92.513185 101.413368 
L 95.888973 103.936545 
L 99.26476 106.403593 
L 102.640547 108.815176 
L 106.016335 111.171813 
L 109.392122 113.47388 
L 112.76791 115.721616 
L 116.143697 117.915127 
L 119.519485 120.054389 
L 122.895272 122.139258 
L 126.27106 124.169475 
L 129.646847 126.144677 
L 133.022634 128.064406 
L 136.398422 129.928123 
L 139.774209 131.735225 
L 143.149997 133.485058 
L 146.525784 135.176942 
L 149.901572 136.810188 
L 153.277359 138.384129 
L 156.653146 139.898136 
L 160.028934 141.351655 
L 163.404721 142.744227 
L 166.780509 144.07552 
L 170.156296 145.345352 
L 173.532084 146.553715 
L 176.907871 147.700797 
L 180.283658 148.787001 
L 183.659446 149.81295 
L 187.035233 150.7795 
L 190.411021 151.687738 
L 193.786808 152.538977 
L 197.162596 153.334744 
L 200.538383 154.076768 
L 203.914171 154.766954 
L 207.289958 155.407361 
L 210.665745 156.000178 
L 214.041533 156.547689 
L 217.41732 157.052251 
L 220.793108 157.516261 
L 224.168895 157.942129 
L 227.544683 158.332257 
L 230.92047 158.689009 
L 234.296257 159.014699 
L 237.672045 159.311569 
L 241.047832 159.581778 
L 244.42362 159.82739 
L 247.799407 160.050366 
L 251.175195 160.252559 
L 254.550982 160.435714 
L 257.926769 160.601461 
L 261.302557 160.751323 
L 264.678344 160.886712 
L 268.054132 161.008934 
L 271.429919 161.119196 
L 274.805707 161.218606 
L 278.181494 161.308184 
L 281.557281 161.388861 
L 284.933069 161.461487 
L 288.308856 161.526839 
L 291.684644 161.585624 
L 295.060431 161.638484 
L 298.436219 161.686 
L 301.812006 161.728703 
L 305.187794 161.767069 
L 308.563581 161.801531 
L 311.939368 161.832481 
L 315.315156 161.860271 
L 318.690943 161.88522 
L 322.066731 161.907615 
L 325.442518 161.927714 
L 328.818306 161.945752 
L 332.194093 161.961937 
L 335.56988 161.976459 
L 338.945668 161.989487 
L 342.321455 162.001174 
L 345.697243 162.011658 
L 349.07303 162.021061 
L 352.448818 162.029495 
L 355.824605 162.037059 
L 359.200392 162.043842 
L 362.57618 162.049926 
L 365.951967 162.055381 
L 369.327755 162.060273 
L 372.703542 162.06466 
L 376.07933 162.068593 
L 379.455117 162.07212 
L 382.830905 162.075282 
L 386.206692 162.078117 
L 389.582479 162.08066 
L 392.958267 162.082939 
L 396.334054 162.084982 
L 399.709842 162.086815 
L 403.085629 162.088457 
L 406.461417 162.08993 
L 409.837204 162.09125 
L 413.212991 162.092434 
" clip-path="url(#pfc2626a187)" style="fill: none; stroke: #d62728; stroke-width: 1.5; stroke-linecap: square"/>
   </g>
   <g id="line2d_76">
    <path d="M 79.010035 91.343167 
L 82.385823 94.156127 
L 85.76161 96.913999 
L 89.137398 99.618538 
L 92.513185 102.271373 
L 95.888973 104.874015 
L 99.26476 107.42786 
L 102.640547 109.934193 
L 106.016335 112.394194 
L 109.392122 114.808938 
L 112.76791 117.179399 
L 116.143697 119.50645 
L 119.519485 121.790868 
L 122.895272 124.03333 
L 126.27106 126.234419 
L 129.646847 128.39462 
L 133.022634 130.514322 
L 136.398422 132.593817 
L 139.774209 134.6333 
L 143.149997 136.632872 
L 146.525784 138.592534 
L 149.901572 140.512191 
L 153.277359 142.391655 
L 156.653146 144.230641 
L 160.028934 146.028773 
L 163.404721 147.785589 
L 166.780509 149.500539 
L 170.156296 151.172998 
L 173.532084 152.802269 
L 176.907871 154.387596 
L 180.283658 155.928174 
L 183.659446 157.42316 
L 187.035233 158.871697 
L 190.411021 160.272922 
L 193.786808 161.625994 
L 197.162596 162.930112 
L 200.538383 164.184541 
L 203.914171 165.388632 
L 207.289958 166.541848 
L 210.665745 167.643789 
L 214.041533 168.694209 
L 217.41732 169.693042 
L 220.793108 170.640408 
L 224.168895 171.536637 
L 227.544683 172.382264 
L 230.92047 173.178041 
L 234.296257 173.924927 
L 237.672045 174.624083 
L 241.047832 175.276858 
L 244.42362 175.884773 
L 247.799407 176.449497 
L 251.175195 176.972826 
L 254.550982 177.45666 
L 257.926769 177.902972 
L 261.302557 178.313785 
L 264.678344 178.691148 
L 268.054132 179.037114 
L 271.429919 179.353714 
L 274.805707 179.642943 
L 278.181494 179.906744 
L 281.557281 180.146991 
L 284.933069 180.365483 
L 288.308856 180.563935 
L 291.684644 180.74397 
L 295.060431 180.907119 
L 298.436219 181.054817 
L 301.812006 181.188404 
L 305.187794 181.309126 
L 308.563581 181.418138 
L 311.939368 181.516508 
L 315.315156 181.605217 
L 318.690943 181.685168 
L 322.066731 181.757188 
L 325.442518 181.822032 
L 328.818306 181.880391 
L 332.194093 181.932892 
L 335.56988 181.980107 
L 338.945668 182.022554 
L 342.321455 182.060705 
L 345.697243 182.094984 
L 349.07303 182.125779 
L 352.448818 182.153436 
L 355.824605 182.178272 
L 359.200392 182.200569 
L 362.57618 182.220585 
L 365.951967 182.238551 
L 369.327755 182.254674 
L 372.703542 182.269142 
L 376.07933 182.282123 
L 379.455117 182.29377 
L 382.830905 182.304218 
L 386.206692 182.313591 
L 389.582479 182.321997 
L 392.958267 182.329538 
L 396.334054 182.3363 
L 399.709842 182.342365 
L 403.085629 182.347804 
L 406.461417 182.352682 
L 409.837204 182.357056 
L 413.212991 182.360978 
" clip-path="url(#pfc2626a187)" style="fill: none; stroke: #9467bd; stroke-width: 1.5; stroke-linecap: square"/>
   </g>
   <g id="line2d_77">
    <path d="M 79.010035 91.496269 
L 82.385823 94.323592 
L 85.76161 97.097228 
L 89.137398 99.81907 
L 92.513185 102.490898 
L 95.888973 105.114387 
L 99.26476 107.691116 
L 102.640547 110.222567 
L 106.016335 112.710136 
L 109.392122 115.155134 
L 112.76791 117.558791 
L 116.143697 119.922262 
L 119.519485 122.246627 
L 122.895272 124.532895 
L 126.27106 126.782007 
L 129.646847 128.994834 
L 133.022634 131.172183 
L 136.398422 133.314795 
L 139.774209 135.423347 
L 143.149997 137.498451 
L 146.525784 139.540658 
L 149.901572 141.550453 
L 153.277359 143.528255 
L 156.653146 145.47442 
L 160.028934 147.389238 
L 163.404721 149.272931 
L 166.780509 151.125652 
L 170.156296 152.947484 
L 173.532084 154.738441 
L 176.907871 156.498462 
L 180.283658 158.227413 
L 183.659446 159.925084 
L 187.035233 161.591192 
L 190.411021 163.225374 
L 193.786808 164.827195 
L 197.162596 166.396143 
L 200.538383 167.931635 
L 203.914171 169.433016 
L 207.289958 170.89957 
L 210.665745 172.330518 
L 214.041533 173.725033 
L 217.41732 175.082246 
L 220.793108 176.401257 
L 224.168895 177.681151 
L 227.544683 178.921013 
L 230.92047 180.119946 
L 234.296257 181.277088 
L 237.672045 182.391635 
L 241.047832 183.462862 
L 244.42362 184.490146 
L 247.799407 185.472982 
L 251.175195 186.41101 
L 254.550982 187.304027 
L 257.926769 188.152007 
L 261.302557 188.955109 
L 264.678344 189.713684 
L 268.054132 190.428282 
L 271.429919 191.099646 
L 274.805707 191.728707 
L 278.181494 192.316573 
L 281.557281 192.864516 
L 284.933069 193.373948 
L 288.308856 193.846408 
L 291.684644 194.283532 
L 295.060431 194.687036 
L 298.436219 195.058686 
L 301.812006 195.400282 
L 305.187794 195.713633 
L 308.563581 196.000536 
L 311.939368 196.262763 
L 315.315156 196.502043 
L 318.690943 196.720048 
L 322.066731 196.918387 
L 325.442518 197.098598 
L 328.818306 197.262136 
L 332.194093 197.410379 
L 335.56988 197.544617 
L 338.945668 197.66606 
L 342.321455 197.775832 
L 345.697243 197.874976 
L 349.07303 197.964457 
L 352.448818 198.045164 
L 355.824605 198.117913 
L 359.200392 198.183454 
L 362.57618 198.242473 
L 365.951967 198.295594 
L 369.327755 198.343388 
L 372.703542 198.386374 
L 376.07933 198.425023 
L 379.455117 198.459761 
L 382.830905 198.490977 
L 386.206692 198.519021 
L 389.582479 198.544209 
L 392.958267 198.566829 
L 396.334054 198.587138 
L 399.709842 198.605369 
L 403.085629 198.621734 
L 406.461417 198.63642 
L 409.837204 198.649599 
L 413.212991 198.661425 
" clip-path="url(#pfc2626a187)" style="fill: none; stroke: #8c564b; stroke-width: 1.5; stroke-linecap: square"/>
   </g>
   <g id="line2d_78">
    <path d="M 79.010035 91.555669 
L 82.385823 94.38859 
L 85.76161 97.168377 
L 89.137398 99.896976 
L 92.513185 102.57623 
L 95.888973 105.207882 
L 99.26476 107.793582 
L 102.640547 110.334897 
L 106.016335 112.83331 
L 109.392122 115.290233 
L 112.76791 117.707004 
L 116.143697 120.084897 
L 119.519485 122.425125 
L 122.895272 124.728841 
L 126.27106 126.997145 
L 129.646847 129.231082 
L 133.022634 131.431653 
L 136.398422 133.599809 
L 139.774209 135.736457 
L 143.149997 137.842464 
L 146.525784 139.918657 
L 149.901572 141.965824 
L 153.277359 143.984717 
L 156.653146 145.976054 
L 160.028934 147.940519 
L 163.404721 149.878764 
L 166.780509 151.791409 
L 170.156296 153.679045 
L 173.532084 155.542232 
L 176.907871 157.381503 
L 180.283658 159.197361 
L 183.659446 160.990283 
L 187.035233 162.760716 
L 190.411021 164.509082 
L 193.786808 166.235775 
L 197.162596 167.94116 
L 200.538383 169.625575 
L 203.914171 171.289332 
L 207.289958 172.932712 
L 210.665745 174.555967 
L 214.041533 176.15932 
L 217.41732 177.742963 
L 220.793108 179.307054 
L 224.168895 180.851721 
L 227.544683 182.377054 
L 230.92047 183.88311 
L 234.296257 185.369905 
L 237.672045 186.837417 
L 241.047832 188.285584 
L 244.42362 189.714298 
L 247.799407 191.123406 
L 251.175195 192.51271 
L 254.550982 193.88196 
L 257.926769 195.230856 
L 261.302557 196.559043 
L 264.678344 197.866115 
L 268.054132 199.151607 
L 271.429919 200.414999 
L 274.805707 201.655716 
L 278.181494 202.873127 
L 281.557281 204.066544 
L 284.933069 205.235232 
L 288.308856 206.378406 
L 291.684644 207.495241 
L 295.060431 208.584876 
L 298.436219 209.646425 
L 301.812006 210.678983 
L 305.187794 211.681644 
L 308.563581 212.653513 
L 311.939368 213.593717 
L 315.315156 214.501429 
L 318.690943 215.375877 
L 322.066731 216.216372 
L 325.442518 217.022318 
L 328.818306 217.793233 
L 332.194093 218.528764 
L 335.56988 219.228702 
L 338.945668 219.892991 
L 342.321455 220.521739 
L 345.697243 221.11522 
L 349.07303 221.673876 
L 352.448818 222.198312 
L 355.824605 222.689289 
L 359.200392 223.147715 
L 362.57618 223.574629 
L 365.951967 223.971182 
L 369.327755 224.338627 
L 372.703542 224.678289 
L 376.07933 224.991555 
L 379.455117 225.279849 
L 382.830905 225.544614 
L 386.206692 225.787297 
L 389.582479 226.009332 
L 392.958267 226.212128 
L 396.334054 226.397053 
L 399.709842 226.565432 
L 403.085629 226.718533 
L 406.461417 226.857565 
L 409.837204 226.98367 
L 413.212991 227.097928 
" clip-path="url(#pfc2626a187)" style="fill: none; stroke: #e377c2; stroke-width: 1.5; stroke-linecap: square"/>
   </g>
   <g id="line2d_79">
    <path d="M 79.010035 91.560673 
L 82.385823 94.394067 
L 85.76161 97.174372 
L 89.137398 99.903542 
L 92.513185 102.583423 
L 95.888973 105.215764 
L 99.26476 107.802223 
L 102.640547 110.344371 
L 106.016335 112.843702 
L 109.392122 115.301634 
L 112.76791 117.719516 
L 116.143697 120.098632 
L 119.519485 122.440205 
L 122.895272 124.745403 
L 126.27106 127.015338 
L 129.646847 129.251073 
L 133.022634 131.453623 
L 136.398422 133.623958 
L 139.774209 135.763008 
L 143.149997 137.871662 
L 146.525784 139.950771 
L 149.901572 142.001152 
L 153.277359 144.023588 
L 156.653146 146.01883 
L 160.028934 147.987601 
L 163.404721 149.930593 
L 166.780509 151.848472 
L 170.156296 153.741881 
L 173.532084 155.611434 
L 176.907871 157.457726 
L 180.283658 159.281329 
L 183.659446 161.082793 
L 187.035233 162.86265 
L 190.411021 164.621412 
L 193.786808 166.359572 
L 197.162596 168.077608 
L 200.538383 169.775981 
L 203.914171 171.455136 
L 207.289958 173.115503 
L 210.665745 174.757496 
L 214.041533 176.38152 
L 217.41732 177.987962 
L 220.793108 179.5772 
L 224.168895 181.149598 
L 227.544683 182.705508 
L 230.92047 184.245274 
L 234.296257 185.769227 
L 237.672045 187.277689 
L 241.047832 188.77097 
L 244.42362 190.249374 
L 247.799407 191.713194 
L 251.175195 193.162715 
L 254.550982 194.598214 
L 257.926769 196.01996 
L 261.302557 197.428213 
L 264.678344 198.823227 
L 268.054132 200.205248 
L 271.429919 201.574518 
L 274.805707 202.931268 
L 278.181494 204.275725 
L 281.557281 205.608111 
L 284.933069 206.92864 
L 288.308856 208.237521 
L 291.684644 209.534959 
L 295.060431 210.82115 
L 298.436219 212.09629 
L 301.812006 213.360565 
L 305.187794 214.61416 
L 308.563581 215.857254 
L 311.939368 217.09002 
L 315.315156 218.31263 
L 318.690943 219.525249 
L 322.066731 220.728039 
L 325.442518 221.921158 
L 328.818306 223.10476 
L 332.194093 224.278997 
L 335.56988 225.444014 
L 338.945668 226.599957 
L 342.321455 227.746964 
L 345.697243 228.885174 
L 349.07303 230.01472 
L 352.448818 231.135732 
L 355.824605 232.24834 
L 359.200392 233.352667 
L 362.57618 234.448837 
L 365.951967 235.536969 
L 369.327755 236.61718 
L 372.703542 237.689584 
L 376.07933 238.754294 
L 379.455117 239.811419 
L 382.830905 240.861066 
L 386.206692 241.903341 
L 389.582479 242.938346 
L 392.958267 243.966183 
L 396.334054 244.986949 
L 399.709842 246.000741 
L 403.085629 247.007654 
L 406.461417 248.007781 
L 409.837204 249.001212 
L 413.212991 249.988037 
" clip-path="url(#pfc2626a187)" style="fill: none; stroke: #7f7f7f; stroke-width: 1.5; stroke-linecap: square"/>
   </g>
   <g id="patch_3">
    <path d="M 57.6 307.584 
L 57.6 41.472 
" style="fill: none; stroke: #000000; stroke-width: 0.8; stroke-linejoin: miter; stroke-linecap: square"/>
   </g>
   <g id="patch_4">
    <path d="M 414.72 307.584 
L 414.72 41.472 
" style="fill: none; stroke: #000000; stroke-width: 0.8; stroke-linejoin: miter; stroke-linecap: square"/>
   </g>
   <g id="patch_5">
    <path d="M 57.6 307.584 
L 414.72 307.584 
" style="fill: none; stroke: #000000; stroke-width: 0.8; stroke-linejoin: miter; stroke-linecap: square"/>
   </g>
   <g id="patch_6">
    <path d="M 57.6 41.472 
L 414.72 41.472 
" style="fill: none; stroke: #000000; stroke-width: 0.8; stroke-linejoin: miter; stroke-linecap: square"/>
   </g>
   <g id="legend_1">
    <g id="patch_7">
     <path d="M 64.6 302.584 
L 164.7 302.584 
Q 166.7 302.584 166.7 300.584 
L 166.7 184.159 
Q 166.7 182.159 164.7 182.159 
L 64.6 182.159 
Q 62.6 182.159 62.6 184.159 
L 62.6 300.584 
Q 62.6 302.584 64.6 302.584 
z
" style="fill: #ffffff; opacity: 0.8; stroke: #cccccc; stroke-linejoin: miter"/>
    </g>
    <g id="line2d_80">
     <path d="M 66.6 190.257437 
L 76.6 190.257437 
L 86.6 190.257437 
" style="fill: none; stroke: #1f77b4; stroke-width: 1.5; stroke-linecap: square"/>
    </g>
    <g id="text_11">
     <!-- $\epsilon/D$=3.0e-02 -->
     <g transform="translate(94.6 193.757437) scale(0.1 -0.1)">
      <defs>
       <path id="DejaVuSans-Oblique-3b5" d="M 1263 1888 
Q 925 1963 778 2166 
Q 669 2309 669 2503 
Q 669 3034 1175 3344 
Q 1575 3588 2188 3588 
Q 2425 3588 2684 3550 
Q 2944 3513 3234 3438 
L 3134 2916 
Q 2847 3006 2606 3047 
Q 2359 3088 2138 3088 
Q 1766 3088 1522 2944 
Q 1228 2772 1228 2522 
Q 1228 2356 1381 2241 
Q 1563 2103 1925 2103 
L 2409 2103 
L 2319 1628 
L 1856 1628 
Q 1425 1628 1172 1469 
Q 828 1253 828 916 
Q 828 703 1013 563 
Q 1244 388 1716 388 
Q 2006 388 2284 444 
Q 2563 503 2806 619 
L 2700 84 
Q 2403 -3 2131 -47 
Q 1859 -91 1609 -91 
Q 866 -91 516 194 
Q 250 413 250 781 
Q 250 1278 600 1584 
Q 859 1813 1263 1888 
z
" transform="scale(0.015625)"/>
       <path id="DejaVuSans-2f" d="M 1625 4666 
L 2156 4666 
L 531 -594 
L 0 -594 
L 1625 4666 
z
" transform="scale(0.015625)"/>
       <path id="DejaVuSans-3d" d="M 678 2906 
L 4684 2906 
L 4684 2381 
L 678 2381 
L 678 2906 
z
M 678 1631 
L 4684 1631 
L 4684 1100 
L 678 1100 
L 678 1631 
z
" transform="scale(0.015625)"/>
       <path id="DejaVuSans-2e" d="M 684 794 
L 1344 794 
L 1344 0 
L 684 0 
L 684 794 
z
" transform="scale(0.015625)"/>
       <path id="DejaVuSans-65" d="M 3597 1894 
L 3597 1613 
L 953 1613 
Q 991 1019 1311 708 
Q 1631 397 2203 397 
Q 2534 397 2845 478 
Q 3156 559 3463 722 
L 3463 178 
Q 3153 47 2828 -22 
Q 2503 -91 2169 -91 
Q 1331 -91 842 396 
Q 353 884 353 1716 
Q 353 2575 817 3079 
Q 1281 3584 2069 3584 
Q 2775 3584 3186 3129 
Q 3597 2675 3597 1894 
z
M 3022 2063 
Q 3016 2534 2758 2815 
Q 2500 3097 2075 3097 
Q 1594 3097 1305 2825 
Q 1016 2553 972 2059 
L 3022 2063 
z
" transform="scale(0.015625)"/>
       <path id="DejaVuSans-2d" d="M 313 2009 
L 1997 2009 
L 1997 1497 
L 313 1497 
L 313 2009 
z
" transform="scale(0.015625)"/>
      </defs>
      <use xlink:href="#DejaVuSans-Oblique-3b5" transform="translate(0 0.78125)"/>
      <use xlink:href="#DejaVuSans-2f" transform="translate(54.052734 0.78125)"/>
      <use xlink:href="#DejaVuSans-Oblique-44" transform="translate(87.744141 0.78125)"/>
      <use xlink:href="#DejaVuSans-3d" transform="translate(164.746094 0.78125)"/>
      <use xlink:href="#DejaVuSans-33" transform="translate(248.535156 0.78125)"/>
      <use xlink:href="#DejaVuSans-2e" transform="translate(312.158203 0.78125)"/>
      <use xlink:href="#DejaVuSans-30" transform="translate(343.945312 0.78125)"/>
      <use xlink:href="#DejaVuSans-65" transform="translate(407.568359 0.78125)"/>
      <use xlink:href="#DejaVuSans-2d" transform="translate(469.091797 0.78125)"/>
      <use xlink:href="#DejaVuSans-30" transform="translate(505.175781 0.78125)"/>
      <use xlink:href="#DejaVuSans-32" transform="translate(568.798828 0.78125)"/>
     </g>
    </g>
    <g id="line2d_81">
     <path d="M 66.6 204.935563 
L 76.6 204.935563 
L 86.6 204.935563 
" style="fill: none; stroke: #ff7f0e; stroke-width: 1.5; stroke-linecap: square"/>
    </g>
    <g id="text_12">
     <!-- $\epsilon/D$=1.0e-02 -->
     <g transform="translate(94.6 208.435563) scale(0.1 -0.1)">
      <use xlink:href="#DejaVuSans-Oblique-3b5" transform="translate(0 0.78125)"/>
      <use xlink:href="#DejaVuSans-2f" transform="translate(54.052734 0.78125)"/>
      <use xlink:href="#DejaVuSans-Oblique-44" transform="translate(87.744141 0.78125)"/>
      <use xlink:href="#DejaVuSans-3d" transform="translate(164.746094 0.78125)"/>
      <use xlink:href="#DejaVuSans-31" transform="translate(248.535156 0.78125)"/>
      <use xlink:href="#DejaVuSans-2e" transform="translate(312.158203 0.78125)"/>
      <use xlink:href="#DejaVuSans-30" transform="translate(343.945312 0.78125)"/>
      <use xlink:href="#DejaVuSans-65" transform="translate(407.568359 0.78125)"/>
      <use xlink:href="#DejaVuSans-2d" transform="translate(469.091797 0.78125)"/>
      <use xlink:href="#DejaVuSans-30" transform="translate(505.175781 0.78125)"/>
      <use xlink:href="#DejaVuSans-32" transform="translate(568.798828 0.78125)"/>
     </g>
    </g>
    <g id="line2d_82">
     <path d="M 66.6 219.613687 
L 76.6 219.613687 
L 86.6 219.613687 
" style="fill: none; stroke: #2ca02c; stroke-width: 1.5; stroke-linecap: square"/>
    </g>
    <g id="text_13">
     <!-- $\epsilon/D$=3.0e-03 -->
     <g transform="translate(94.6 223.113687) scale(0.1 -0.1)">
      <use xlink:href="#DejaVuSans-Oblique-3b5" transform="translate(0 0.78125)"/>
      <use xlink:href="#DejaVuSans-2f" transform="translate(54.052734 0.78125)"/>
      <use xlink:href="#DejaVuSans-Oblique-44" transform="translate(87.744141 0.78125)"/>
      <use xlink:href="#DejaVuSans-3d" transform="translate(164.746094 0.78125)"/>
      <use xlink:href="#DejaVuSans-33" transform="translate(248.535156 0.78125)"/>
      <use xlink:href="#DejaVuSans-2e" transform="translate(312.158203 0.78125)"/>
      <use xlink:href="#DejaVuSans-30" transform="translate(343.945312 0.78125)"/>
      <use xlink:href="#DejaVuSans-65" transform="translate(407.568359 0.78125)"/>
      <use xlink:href="#DejaVuSans-2d" transform="translate(469.091797 0.78125)"/>
      <use xlink:href="#DejaVuSans-30" transform="translate(505.175781 0.78125)"/>
      <use xlink:href="#DejaVuSans-33" transform="translate(568.798828 0.78125)"/>
     </g>
    </g>
    <g id="line2d_83">
     <path d="M 66.6 234.291812 
L 76.6 234.291812 
L 86.6 234.291812 
" style="fill: none; stroke: #d62728; stroke-width: 1.5; stroke-linecap: square"/>
    </g>
    <g id="text_14">
     <!-- $\epsilon/D$=1.0e-03 -->
     <g transform="translate(94.6 237.791812) scale(0.1 -0.1)">
      <use xlink:href="#DejaVuSans-Oblique-3b5" transform="translate(0 0.78125)"/>
      <use xlink:href="#DejaVuSans-2f" transform="translate(54.052734 0.78125)"/>
      <use xlink:href="#DejaVuSans-Oblique-44" transform="translate(87.744141 0.78125)"/>
      <use xlink:href="#DejaVuSans-3d" transform="translate(164.746094 0.78125)"/>
      <use xlink:href="#DejaVuSans-31" transform="translate(248.535156 0.78125)"/>
      <use xlink:href="#DejaVuSans-2e" transform="translate(312.158203 0.78125)"/>
      <use xlink:href="#DejaVuSans-30" transform="translate(343.945312 0.78125)"/>
      <use xlink:href="#DejaVuSans-65" transform="translate(407.568359 0.78125)"/>
      <use xlink:href="#DejaVuSans-2d" transform="translate(469.091797 0.78125)"/>
      <use xlink:href="#DejaVuSans-30" transform="translate(505.175781 0.78125)"/>
      <use xlink:href="#DejaVuSans-33" transform="translate(568.798828 0.78125)"/>
     </g>
    </g>
    <g id="line2d_84">
     <path d="M 66.6 248.969937 
L 76.6 248.969937 
L 86.6 248.969937 
" style="fill: none; stroke: #9467bd; stroke-width: 1.5; stroke-linecap: square"/>
    </g>
    <g id="text_15">
     <!-- $\epsilon/D$=3.0e-04 -->
     <g transform="translate(94.6 252.469937) scale(0.1 -0.1)">
      <use xlink:href="#DejaVuSans-Oblique-3b5" transform="translate(0 0.78125)"/>
      <use xlink:href="#DejaVuSans-2f" transform="translate(54.052734 0.78125)"/>
      <use xlink:href="#DejaVuSans-Oblique-44" transform="translate(87.744141 0.78125)"/>
      <use xlink:href="#DejaVuSans-3d" transform="translate(164.746094 0.78125)"/>
      <use xlink:href="#DejaVuSans-33" transform="translate(248.535156 0.78125)"/>
      <use xlink:href="#DejaVuSans-2e" transform="translate(312.158203 0.78125)"/>
      <use xlink:href="#DejaVuSans-30" transform="translate(343.945312 0.78125)"/>
      <use xlink:href="#DejaVuSans-65" transform="translate(407.568359 0.78125)"/>
      <use xlink:href="#DejaVuSans-2d" transform="translate(469.091797 0.78125)"/>
      <use xlink:href="#DejaVuSans-30" transform="translate(505.175781 0.78125)"/>
      <use xlink:href="#DejaVuSans-34" transform="translate(568.798828 0.78125)"/>
     </g>
    </g>
    <g id="line2d_85">
     <path d="M 66.6 263.648062 
L 76.6 263.648062 
L 86.6 263.648062 
" style="fill: none; stroke: #8c564b; stroke-width: 1.5; stroke-linecap: square"/>
    </g>
    <g id="text_16">
     <!-- $\epsilon/D$=1.0e-04 -->
     <g transform="translate(94.6 267.148062) scale(0.1 -0.1)">
      <use xlink:href="#DejaVuSans-Oblique-3b5" transform="translate(0 0.78125)"/>
      <use xlink:href="#DejaVuSans-2f" transform="translate(54.052734 0.78125)"/>
      <use xlink:href="#DejaVuSans-Oblique-44" transform="translate(87.744141 0.78125)"/>
      <use xlink:href="#DejaVuSans-3d" transform="translate(164.746094 0.78125)"/>
      <use xlink:href="#DejaVuSans-31" transform="translate(248.535156 0.78125)"/>
      <use xlink:href="#DejaVuSans-2e" transform="translate(312.158203 0.78125)"/>
      <use xlink:href="#DejaVuSans-30" transform="translate(343.945312 0.78125)"/>
      <use xlink:href="#DejaVuSans-65" transform="translate(407.568359 0.78125)"/>
      <use xlink:href="#DejaVuSans-2d" transform="translate(469.091797 0.78125)"/>
      <use xlink:href="#DejaVuSans-30" transform="translate(505.175781 0.78125)"/>
      <use xlink:href="#DejaVuSans-34" transform="translate(568.798828 0.78125)"/>
     </g>
    </g>
    <g id="line2d_86">
     <path d="M 66.6 278.326187 
L 76.6 278.326187 
L 86.6 278.326187 
" style="fill: none; stroke: #e377c2; stroke-width: 1.5; stroke-linecap: square"/>
    </g>
    <g id="text_17">
     <!-- $\epsilon/D$=1.0e-05 -->
     <g transform="translate(94.6 281.826187) scale(0.1 -0.1)">
      <use xlink:href="#DejaVuSans-Oblique-3b5" transform="translate(0 0.78125)"/>
      <use xlink:href="#DejaVuSans-2f" transform="translate(54.052734 0.78125)"/>
      <use xlink:href="#DejaVuSans-Oblique-44" transform="translate(87.744141 0.78125)"/>
      <use xlink:href="#DejaVuSans-3d" transform="translate(164.746094 0.78125)"/>
      <use xlink:href="#DejaVuSans-31" transform="translate(248.535156 0.78125)"/>
      <use xlink:href="#DejaVuSans-2e" transform="translate(312.158203 0.78125)"/>
      <use xlink:href="#DejaVuSans-30" transform="translate(343.945312 0.78125)"/>
      <use xlink:href="#DejaVuSans-65" transform="translate(407.568359 0.78125)"/>
      <use xlink:href="#DejaVuSans-2d" transform="translate(469.091797 0.78125)"/>
      <use xlink:href="#DejaVuSans-30" transform="translate(505.175781 0.78125)"/>
      <use xlink:href="#DejaVuSans-35" transform="translate(568.798828 0.78125)"/>
     </g>
    </g>
    <g id="line2d_87">
     <path d="M 66.6 293.004312 
L 76.6 293.004312 
L 86.6 293.004312 
" style="fill: none; stroke: #7f7f7f; stroke-width: 1.5; stroke-linecap: square"/>
    </g>
    <g id="text_18">
     <!-- $\epsilon/D$=0.0e+00 -->
     <g transform="translate(94.6 296.504312) scale(0.1 -0.1)">
      <defs>
       <path id="DejaVuSans-2b" d="M 2944 4013 
L 2944 2272 
L 4684 2272 
L 4684 1741 
L 2944 1741 
L 2944 0 
L 2419 0 
L 2419 1741 
L 678 1741 
L 678 2272 
L 2419 2272 
L 2419 4013 
L 2944 4013 
z
" transform="scale(0.015625)"/>
      </defs>
      <use xlink:href="#DejaVuSans-Oblique-3b5" transform="translate(0 0.78125)"/>
      <use xlink:href="#DejaVuSans-2f" transform="translate(54.052734 0.78125)"/>
      <use xlink:href="#DejaVuSans-Oblique-44" transform="translate(87.744141 0.78125)"/>
      <use xlink:href="#DejaVuSans-3d" transform="translate(164.746094 0.78125)"/>
      <use xlink:href="#DejaVuSans-30" transform="translate(248.535156 0.78125)"/>
      <use xlink:href="#DejaVuSans-2e" transform="translate(312.158203 0.78125)"/>
      <use xlink:href="#DejaVuSans-30" transform="translate(343.945312 0.78125)"/>
      <use xlink:href="#DejaVuSans-65" transform="translate(407.568359 0.78125)"/>
      <use xlink:href="#DejaVuSans-2b" transform="translate(469.091797 0.78125)"/>
      <use xlink:href="#DejaVuSans-30" transform="translate(552.880859 0.78125)"/>
      <use xlink:href="#DejaVuSans-30" transform="translate(616.503906 0.78125)"/>
     </g>
    </g>
   </g>
  </g>
 </g>
 <defs>
  <clipPath id="pfc2626a187">
   <rect x="57.6" y="41.472" width="357.12" height="266.112"/>
  </clipPath>
 </defs>
</svg>
