<?xml version="1.0" encoding="utf-8" standalone="no"?>
<!DOCTYPE svg PUBLIC "-//W3C//DTD SVG 1.1//EN"
  "http://www.w3.org/Graphics/SVG/1.1/DTD/svg11.dtd">
<svg xmlns:xlink="http://www.w3.org/1999/xlink" width="460.8pt" height="345.6pt" viewBox="0 0 460.8 345.6" xmlns="http://www.w3.org/2000/svg" version="1.1">
 <metadata>
  <rdf:RDF xmlns:dc="http://purl.org/dc/elements/1.1/" xmlns:cc="http://creativecommons.org/ns#" xmlns:rdf="http://www.w3.org/1999/02/22-rdf-syntax-ns#">
   <cc:Work>
    <dc:type rdf:resource="http://purl.org/dc/dcmitype/StillImage"/>
    <dc:date>2024-11-17T17:33:42.032719</dc:date>
    <dc:format>image/svg+xml</dc:format>
    <dc:creator>
     <cc:Agent>
      <dc:title>Matplotlib v3.9.2, https://matplotlib.org/</dc:title>
     </cc:Agent>
    </dc:creator>
   </cc:Work>
  </rdf:RDF>
 </metadata>
 <defs>
  <style type="text/css">*{stroke-linejoin: round; stroke-linecap: butt}</style>
 </defs>
 <g id="figure_1">
  <g id="patch_1">
   <path d="M 0 345.6 
L 460.8 345.6 
L 460.8 0 
L 0 0 
z
" style="fill: #ffffff"/>
  </g>
  <g id="axes_1">
   <g id="patch_2">
    <path d="M 57.6 307.584 
L 414.72 307.584 
L 414.72 41.472 
L 57.6 41.472 
z
" style="fill: #ffffff"/>
   </g>
   <g id="matplotlib.axis_1">
    <g id="xtick_1">
     <g id="line2d_1">
      <path d="M 57.6 307.584 
L 57.6 41.472 
" clip-path="url(#p51875f4524)" style="fill: none; stroke: #b0b0b0; stroke-width: 0.8; stroke-linecap: square"/>
     </g>
     <g id="line2d_2">
      <defs>
       <path id="m56193b912f" d="M 0 0 
L 0 3.5 
" style="stroke: #000000; stroke-width: 0.8"/>
      </defs>
      <g>
       <use xlink:href="#m56193b912f" x="57.6" y="307.584" style="stroke: #000000; stroke-width: 0.8"/>
      </g>
     </g>
     <g id="text_1">
      <!-- 0.0 -->
      <g transform="translate(49.648438 322.182437) scale(0.1 -0.1)">
       <defs>
        <path id="DejaVuSans-30" d="M 2034 4250 
Q 1547 4250 1301 3770 
Q 1056 3291 1056 2328 
Q 1056 1369 1301 889 
Q 1547 409 2034 409 
Q 2525 409 2770 889 
Q 3016 1369 3016 2328 
Q 3016 3291 2770 3770 
Q 2525 4250 2034 4250 
z
M 2034 4750 
Q 2819 4750 3233 4129 
Q 3647 3509 3647 2328 
Q 3647 1150 3233 529 
Q 2819 -91 2034 -91 
Q 1250 -91 836 529 
Q 422 1150 422 2328 
Q 422 3509 836 4129 
Q 1250 4750 2034 4750 
z
" transform="scale(0.015625)"/>
        <path id="DejaVuSans-2e" d="M 684 794 
L 1344 794 
L 1344 0 
L 684 0 
L 684 794 
z
" transform="scale(0.015625)"/>
       </defs>
       <use xlink:href="#DejaVuSans-30"/>
       <use xlink:href="#DejaVuSans-2e" x="63.623047"/>
       <use xlink:href="#DejaVuSans-30" x="95.410156"/>
      </g>
     </g>
    </g>
    <g id="xtick_2">
     <g id="line2d_3">
      <path d="M 129.024 307.584 
L 129.024 41.472 
" clip-path="url(#p51875f4524)" style="fill: none; stroke: #b0b0b0; stroke-width: 0.8; stroke-linecap: square"/>
     </g>
     <g id="line2d_4">
      <g>
       <use xlink:href="#m56193b912f" x="129.024" y="307.584" style="stroke: #000000; stroke-width: 0.8"/>
      </g>
     </g>
     <g id="text_2">
      <!-- 0.2 -->
      <g transform="translate(121.072438 322.182437) scale(0.1 -0.1)">
       <defs>
        <path id="DejaVuSans-32" d="M 1228 531 
L 3431 531 
L 3431 0 
L 469 0 
L 469 531 
Q 828 903 1448 1529 
Q 2069 2156 2228 2338 
Q 2531 2678 2651 2914 
Q 2772 3150 2772 3378 
Q 2772 3750 2511 3984 
Q 2250 4219 1831 4219 
Q 1534 4219 1204 4116 
Q 875 4013 500 3803 
L 500 4441 
Q 881 4594 1212 4672 
Q 1544 4750 1819 4750 
Q 2544 4750 2975 4387 
Q 3406 4025 3406 3419 
Q 3406 3131 3298 2873 
Q 3191 2616 2906 2266 
Q 2828 2175 2409 1742 
Q 1991 1309 1228 531 
z
" transform="scale(0.015625)"/>
       </defs>
       <use xlink:href="#DejaVuSans-30"/>
       <use xlink:href="#DejaVuSans-2e" x="63.623047"/>
       <use xlink:href="#DejaVuSans-32" x="95.410156"/>
      </g>
     </g>
    </g>
    <g id="xtick_3">
     <g id="line2d_5">
      <path d="M 200.448 307.584 
L 200.448 41.472 
" clip-path="url(#p51875f4524)" style="fill: none; stroke: #b0b0b0; stroke-width: 0.8; stroke-linecap: square"/>
     </g>
     <g id="line2d_6">
      <g>
       <use xlink:href="#m56193b912f" x="200.448" y="307.584" style="stroke: #000000; stroke-width: 0.8"/>
      </g>
     </g>
     <g id="text_3">
      <!-- 0.4 -->
      <g transform="translate(192.496438 322.182437) scale(0.1 -0.1)">
       <defs>
        <path id="DejaVuSans-34" d="M 2419 4116 
L 825 1625 
L 2419 1625 
L 2419 4116 
z
M 2253 4666 
L 3047 4666 
L 3047 1625 
L 3713 1625 
L 3713 1100 
L 3047 1100 
L 3047 0 
L 2419 0 
L 2419 1100 
L 313 1100 
L 313 1709 
L 2253 4666 
z
" transform="scale(0.015625)"/>
       </defs>
       <use xlink:href="#DejaVuSans-30"/>
       <use xlink:href="#DejaVuSans-2e" x="63.623047"/>
       <use xlink:href="#DejaVuSans-34" x="95.410156"/>
      </g>
     </g>
    </g>
    <g id="xtick_4">
     <g id="line2d_7">
      <path d="M 271.872 307.584 
L 271.872 41.472 
" clip-path="url(#p51875f4524)" style="fill: none; stroke: #b0b0b0; stroke-width: 0.8; stroke-linecap: square"/>
     </g>
     <g id="line2d_8">
      <g>
       <use xlink:href="#m56193b912f" x="271.872" y="307.584" style="stroke: #000000; stroke-width: 0.8"/>
      </g>
     </g>
     <g id="text_4">
      <!-- 0.6 -->
      <g transform="translate(263.920438 322.182437) scale(0.1 -0.1)">
       <defs>
        <path id="DejaVuSans-36" d="M 2113 2584 
Q 1688 2584 1439 2293 
Q 1191 2003 1191 1497 
Q 1191 994 1439 701 
Q 1688 409 2113 409 
Q 2538 409 2786 701 
Q 3034 994 3034 1497 
Q 3034 2003 2786 2293 
Q 2538 2584 2113 2584 
z
M 3366 4563 
L 3366 3988 
Q 3128 4100 2886 4159 
Q 2644 4219 2406 4219 
Q 1781 4219 1451 3797 
Q 1122 3375 1075 2522 
Q 1259 2794 1537 2939 
Q 1816 3084 2150 3084 
Q 2853 3084 3261 2657 
Q 3669 2231 3669 1497 
Q 3669 778 3244 343 
Q 2819 -91 2113 -91 
Q 1303 -91 875 529 
Q 447 1150 447 2328 
Q 447 3434 972 4092 
Q 1497 4750 2381 4750 
Q 2619 4750 2861 4703 
Q 3103 4656 3366 4563 
z
" transform="scale(0.015625)"/>
       </defs>
       <use xlink:href="#DejaVuSans-30"/>
       <use xlink:href="#DejaVuSans-2e" x="63.623047"/>
       <use xlink:href="#DejaVuSans-36" x="95.410156"/>
      </g>
     </g>
    </g>
    <g id="xtick_5">
     <g id="line2d_9">
      <path d="M 343.296 307.584 
L 343.296 41.472 
" clip-path="url(#p51875f4524)" style="fill: none; stroke: #b0b0b0; stroke-width: 0.8; stroke-linecap: square"/>
     </g>
     <g id="line2d_10">
      <g>
       <use xlink:href="#m56193b912f" x="343.296" y="307.584" style="stroke: #000000; stroke-width: 0.8"/>
      </g>
     </g>
     <g id="text_5">
      <!-- 0.8 -->
      <g transform="translate(335.344438 322.182437) scale(0.1 -0.1)">
       <defs>
        <path id="DejaVuSans-38" d="M 2034 2216 
Q 1584 2216 1326 1975 
Q 1069 1734 1069 1313 
Q 1069 891 1326 650 
Q 1584 409 2034 409 
Q 2484 409 2743 651 
Q 3003 894 3003 1313 
Q 3003 1734 2745 1975 
Q 2488 2216 2034 2216 
z
M 1403 2484 
Q 997 2584 770 2862 
Q 544 3141 544 3541 
Q 544 4100 942 4425 
Q 1341 4750 2034 4750 
Q 2731 4750 3128 4425 
Q 3525 4100 3525 3541 
Q 3525 3141 3298 2862 
Q 3072 2584 2669 2484 
Q 3125 2378 3379 2068 
Q 3634 1759 3634 1313 
Q 3634 634 3220 271 
Q 2806 -91 2034 -91 
Q 1263 -91 848 271 
Q 434 634 434 1313 
Q 434 1759 690 2068 
Q 947 2378 1403 2484 
z
M 1172 3481 
Q 1172 3119 1398 2916 
Q 1625 2713 2034 2713 
Q 2441 2713 2670 2916 
Q 2900 3119 2900 3481 
Q 2900 3844 2670 4047 
Q 2441 4250 2034 4250 
Q 1625 4250 1398 4047 
Q 1172 3844 1172 3481 
z
" transform="scale(0.015625)"/>
       </defs>
       <use xlink:href="#DejaVuSans-30"/>
       <use xlink:href="#DejaVuSans-2e" x="63.623047"/>
       <use xlink:href="#DejaVuSans-38" x="95.410156"/>
      </g>
     </g>
    </g>
    <g id="xtick_6">
     <g id="line2d_11">
      <path d="M 414.72 307.584 
L 414.72 41.472 
" clip-path="url(#p51875f4524)" style="fill: none; stroke: #b0b0b0; stroke-width: 0.8; stroke-linecap: square"/>
     </g>
     <g id="line2d_12">
      <g>
       <use xlink:href="#m56193b912f" x="414.72" y="307.584" style="stroke: #000000; stroke-width: 0.8"/>
      </g>
     </g>
     <g id="text_6">
      <!-- 1.0 -->
      <g transform="translate(406.768438 322.182437) scale(0.1 -0.1)">
       <defs>
        <path id="DejaVuSans-31" d="M 794 531 
L 1825 531 
L 1825 4091 
L 703 3866 
L 703 4441 
L 1819 4666 
L 2450 4666 
L 2450 531 
L 3481 531 
L 3481 0 
L 794 0 
L 794 531 
z
" transform="scale(0.015625)"/>
       </defs>
       <use xlink:href="#DejaVuSans-31"/>
       <use xlink:href="#DejaVuSans-2e" x="63.623047"/>
       <use xlink:href="#DejaVuSans-30" x="95.410156"/>
      </g>
     </g>
    </g>
    <g id="text_7">
     <!-- $x/a$ -->
     <g transform="translate(228.41 335.860562) scale(0.1 -0.1)">
      <defs>
       <path id="DejaVuSans-Oblique-78" d="M 3841 3500 
L 2234 1784 
L 3219 0 
L 2559 0 
L 1819 1388 
L 531 0 
L -166 0 
L 1556 1844 
L 641 3500 
L 1300 3500 
L 1972 2234 
L 3144 3500 
L 3841 3500 
z
" transform="scale(0.015625)"/>
       <path id="DejaVuSans-2f" d="M 1625 4666 
L 2156 4666 
L 531 -594 
L 0 -594 
L 1625 4666 
z
" transform="scale(0.015625)"/>
       <path id="DejaVuSans-Oblique-61" d="M 3438 1997 
L 3047 0 
L 2472 0 
L 2578 531 
Q 2325 219 2001 64 
Q 1678 -91 1281 -91 
Q 834 -91 548 182 
Q 263 456 263 884 
Q 263 1497 752 1853 
Q 1241 2209 2100 2209 
L 2900 2209 
L 2931 2363 
Q 2938 2388 2941 2417 
Q 2944 2447 2944 2509 
Q 2944 2788 2717 2942 
Q 2491 3097 2081 3097 
Q 1800 3097 1504 3025 
Q 1209 2953 897 2809 
L 997 3341 
Q 1322 3463 1633 3523 
Q 1944 3584 2234 3584 
Q 2853 3584 3176 3315 
Q 3500 3047 3500 2534 
Q 3500 2431 3484 2292 
Q 3469 2153 3438 1997 
z
M 2816 1759 
L 2241 1759 
Q 1534 1759 1195 1570 
Q 856 1381 856 984 
Q 856 709 1029 553 
Q 1203 397 1509 397 
Q 1978 397 2328 733 
Q 2678 1069 2791 1631 
L 2816 1759 
z
" transform="scale(0.015625)"/>
      </defs>
      <use xlink:href="#DejaVuSans-Oblique-78" transform="translate(0 0.09375)"/>
      <use xlink:href="#DejaVuSans-2f" transform="translate(59.179688 0.09375)"/>
      <use xlink:href="#DejaVuSans-Oblique-61" transform="translate(92.871094 0.09375)"/>
     </g>
    </g>
   </g>
   <g id="matplotlib.axis_2">
    <g id="ytick_1">
     <g id="line2d_13">
      <path d="M 57.6 307.584 
L 414.72 307.584 
" clip-path="url(#p51875f4524)" style="fill: none; stroke: #b0b0b0; stroke-width: 0.8; stroke-linecap: square"/>
     </g>
     <g id="line2d_14">
      <defs>
       <path id="me143cdb3a0" d="M 0 0 
L -3.5 0 
" style="stroke: #000000; stroke-width: 0.8"/>
      </defs>
      <g>
       <use xlink:href="#me143cdb3a0" x="57.6" y="307.584" style="stroke: #000000; stroke-width: 0.8"/>
      </g>
     </g>
     <g id="text_8">
      <!-- 0.0 -->
      <g transform="translate(34.696875 311.383219) scale(0.1 -0.1)">
       <use xlink:href="#DejaVuSans-30"/>
       <use xlink:href="#DejaVuSans-2e" x="63.623047"/>
       <use xlink:href="#DejaVuSans-30" x="95.410156"/>
      </g>
     </g>
    </g>
    <g id="ytick_2">
     <g id="line2d_15">
      <path d="M 57.6 254.3616 
L 414.72 254.3616 
" clip-path="url(#p51875f4524)" style="fill: none; stroke: #b0b0b0; stroke-width: 0.8; stroke-linecap: square"/>
     </g>
     <g id="line2d_16">
      <g>
       <use xlink:href="#me143cdb3a0" x="57.6" y="254.3616" style="stroke: #000000; stroke-width: 0.8"/>
      </g>
     </g>
     <g id="text_9">
      <!-- 0.2 -->
      <g transform="translate(34.696875 258.160819) scale(0.1 -0.1)">
       <use xlink:href="#DejaVuSans-30"/>
       <use xlink:href="#DejaVuSans-2e" x="63.623047"/>
       <use xlink:href="#DejaVuSans-32" x="95.410156"/>
      </g>
     </g>
    </g>
    <g id="ytick_3">
     <g id="line2d_17">
      <path d="M 57.6 201.1392 
L 414.72 201.1392 
" clip-path="url(#p51875f4524)" style="fill: none; stroke: #b0b0b0; stroke-width: 0.8; stroke-linecap: square"/>
     </g>
     <g id="line2d_18">
      <g>
       <use xlink:href="#me143cdb3a0" x="57.6" y="201.1392" style="stroke: #000000; stroke-width: 0.8"/>
      </g>
     </g>
     <g id="text_10">
      <!-- 0.4 -->
      <g transform="translate(34.696875 204.938419) scale(0.1 -0.1)">
       <use xlink:href="#DejaVuSans-30"/>
       <use xlink:href="#DejaVuSans-2e" x="63.623047"/>
       <use xlink:href="#DejaVuSans-34" x="95.410156"/>
      </g>
     </g>
    </g>
    <g id="ytick_4">
     <g id="line2d_19">
      <path d="M 57.6 147.9168 
L 414.72 147.9168 
" clip-path="url(#p51875f4524)" style="fill: none; stroke: #b0b0b0; stroke-width: 0.8; stroke-linecap: square"/>
     </g>
     <g id="line2d_20">
      <g>
       <use xlink:href="#me143cdb3a0" x="57.6" y="147.9168" style="stroke: #000000; stroke-width: 0.8"/>
      </g>
     </g>
     <g id="text_11">
      <!-- 0.6 -->
      <g transform="translate(34.696875 151.716019) scale(0.1 -0.1)">
       <use xlink:href="#DejaVuSans-30"/>
       <use xlink:href="#DejaVuSans-2e" x="63.623047"/>
       <use xlink:href="#DejaVuSans-36" x="95.410156"/>
      </g>
     </g>
    </g>
    <g id="ytick_5">
     <g id="line2d_21">
      <path d="M 57.6 94.6944 
L 414.72 94.6944 
" clip-path="url(#p51875f4524)" style="fill: none; stroke: #b0b0b0; stroke-width: 0.8; stroke-linecap: square"/>
     </g>
     <g id="line2d_22">
      <g>
       <use xlink:href="#me143cdb3a0" x="57.6" y="94.6944" style="stroke: #000000; stroke-width: 0.8"/>
      </g>
     </g>
     <g id="text_12">
      <!-- 0.8 -->
      <g transform="translate(34.696875 98.493619) scale(0.1 -0.1)">
       <use xlink:href="#DejaVuSans-30"/>
       <use xlink:href="#DejaVuSans-2e" x="63.623047"/>
       <use xlink:href="#DejaVuSans-38" x="95.410156"/>
      </g>
     </g>
    </g>
    <g id="ytick_6">
     <g id="line2d_23">
      <path d="M 57.6 41.472 
L 414.72 41.472 
" clip-path="url(#p51875f4524)" style="fill: none; stroke: #b0b0b0; stroke-width: 0.8; stroke-linecap: square"/>
     </g>
     <g id="line2d_24">
      <g>
       <use xlink:href="#me143cdb3a0" x="57.6" y="41.472" style="stroke: #000000; stroke-width: 0.8"/>
      </g>
     </g>
     <g id="text_13">
      <!-- 1.0 -->
      <g transform="translate(34.696875 45.271219) scale(0.1 -0.1)">
       <use xlink:href="#DejaVuSans-31"/>
       <use xlink:href="#DejaVuSans-2e" x="63.623047"/>
       <use xlink:href="#DejaVuSans-30" x="95.410156"/>
      </g>
     </g>
    </g>
    <g id="text_14">
     <!-- $(C - C_0)/(C_s - C_0)$ -->
     <g transform="translate(28.617187 216.978) rotate(-90) scale(0.1 -0.1)">
      <defs>
       <path id="DejaVuSans-28" d="M 1984 4856 
Q 1566 4138 1362 3434 
Q 1159 2731 1159 2009 
Q 1159 1288 1364 580 
Q 1569 -128 1984 -844 
L 1484 -844 
Q 1016 -109 783 600 
Q 550 1309 550 2009 
Q 550 2706 781 3412 
Q 1013 4119 1484 4856 
L 1984 4856 
z
" transform="scale(0.015625)"/>
       <path id="DejaVuSans-Oblique-43" d="M 4447 4306 
L 4319 3641 
Q 4019 3944 3683 4091 
Q 3347 4238 2956 4238 
Q 2422 4238 2017 3981 
Q 1613 3725 1319 3200 
Q 1131 2863 1032 2486 
Q 934 2109 934 1728 
Q 934 1091 1264 756 
Q 1594 422 2222 422 
Q 2656 422 3056 561 
Q 3456 700 3834 978 
L 3688 231 
Q 3316 72 2936 -9 
Q 2556 -91 2175 -91 
Q 1278 -91 773 396 
Q 269 884 269 1753 
Q 269 2309 461 2846 
Q 653 3384 1013 3828 
Q 1394 4300 1883 4525 
Q 2372 4750 3022 4750 
Q 3422 4750 3780 4639 
Q 4138 4528 4447 4306 
z
" transform="scale(0.015625)"/>
       <path id="DejaVuSans-2212" d="M 678 2272 
L 4684 2272 
L 4684 1741 
L 678 1741 
L 678 2272 
z
" transform="scale(0.015625)"/>
       <path id="DejaVuSans-29" d="M 513 4856 
L 1013 4856 
Q 1481 4119 1714 3412 
Q 1947 2706 1947 2009 
Q 1947 1309 1714 600 
Q 1481 -109 1013 -844 
L 513 -844 
Q 928 -128 1133 580 
Q 1338 1288 1338 2009 
Q 1338 2731 1133 3434 
Q 928 4138 513 4856 
z
" transform="scale(0.015625)"/>
       <path id="DejaVuSans-Oblique-73" d="M 3200 3397 
L 3091 2853 
Q 2863 2978 2609 3040 
Q 2356 3103 2088 3103 
Q 1634 3103 1373 2948 
Q 1113 2794 1113 2528 
Q 1113 2219 1719 2053 
Q 1766 2041 1788 2034 
L 1972 1978 
Q 2547 1819 2739 1644 
Q 2931 1469 2931 1166 
Q 2931 609 2489 259 
Q 2047 -91 1331 -91 
Q 1053 -91 747 -37 
Q 441 16 72 128 
L 184 722 
Q 500 559 806 475 
Q 1113 391 1394 391 
Q 1816 391 2080 572 
Q 2344 753 2344 1031 
Q 2344 1331 1650 1516 
L 1591 1531 
L 1394 1581 
Q 956 1697 753 1886 
Q 550 2075 550 2369 
Q 550 2928 970 3256 
Q 1391 3584 2113 3584 
Q 2397 3584 2667 3537 
Q 2938 3491 3200 3397 
z
" transform="scale(0.015625)"/>
      </defs>
      <use xlink:href="#DejaVuSans-28" transform="translate(0 0.125)"/>
      <use xlink:href="#DejaVuSans-Oblique-43" transform="translate(39.013672 0.125)"/>
      <use xlink:href="#DejaVuSans-2212" transform="translate(128.320312 0.125)"/>
      <use xlink:href="#DejaVuSans-Oblique-43" transform="translate(231.591797 0.125)"/>
      <use xlink:href="#DejaVuSans-30" transform="translate(301.416016 -16.28125) scale(0.7)"/>
      <use xlink:href="#DejaVuSans-29" transform="translate(348.686523 0.125)"/>
      <use xlink:href="#DejaVuSans-2f" transform="translate(387.700195 0.125)"/>
      <use xlink:href="#DejaVuSans-28" transform="translate(421.391602 0.125)"/>
      <use xlink:href="#DejaVuSans-Oblique-43" transform="translate(460.405273 0.125)"/>
      <use xlink:href="#DejaVuSans-Oblique-73" transform="translate(530.229492 -16.28125) scale(0.7)"/>
      <use xlink:href="#DejaVuSans-2212" transform="translate(588.916016 0.125)"/>
      <use xlink:href="#DejaVuSans-Oblique-43" transform="translate(692.1875 0.125)"/>
      <use xlink:href="#DejaVuSans-30" transform="translate(762.011719 -16.28125) scale(0.7)"/>
      <use xlink:href="#DejaVuSans-29" transform="translate(809.282227 0.125)"/>
     </g>
    </g>
   </g>
   <g id="line2d_25">
    <path d="M 57.6 43.908785 
L 61.207273 43.908478 
L 64.814545 43.907558 
L 68.421818 43.906025 
L 72.029091 43.903879 
L 75.636364 43.901121 
L 79.243636 43.897751 
L 82.850909 43.893771 
L 86.458182 43.889181 
L 90.065455 43.883982 
L 93.672727 43.878176 
L 97.28 43.871765 
L 100.887273 43.864749 
L 104.494545 43.857131 
L 108.101818 43.848913 
L 111.709091 43.840096 
L 115.316364 43.830683 
L 118.923636 43.820676 
L 122.530909 43.810078 
L 126.138182 43.798891 
L 129.745455 43.787119 
L 133.352727 43.774764 
L 136.96 43.761829 
L 140.567273 43.748317 
L 144.174545 43.734233 
L 147.781818 43.719579 
L 151.389091 43.704359 
L 154.996364 43.688578 
L 158.603636 43.672238 
L 162.210909 43.655344 
L 165.818182 43.637901 
L 169.425455 43.619912 
L 173.032727 43.601383 
L 176.64 43.582318 
L 180.247273 43.562721 
L 183.854545 43.542598 
L 187.461818 43.521954 
L 191.069091 43.500794 
L 194.676364 43.479123 
L 198.283636 43.456946 
L 201.890909 43.43427 
L 205.498182 43.411101 
L 209.105455 43.387442 
L 212.712727 43.363302 
L 216.32 43.338686 
L 219.927273 43.313599 
L 223.534545 43.288049 
L 227.141818 43.262042 
L 230.749091 43.235584 
L 234.356364 43.208682 
L 237.963636 43.181343 
L 241.570909 43.153574 
L 245.178182 43.125382 
L 248.785455 43.096773 
L 252.392727 43.067755 
L 256 43.038335 
L 259.607273 43.008521 
L 263.214545 42.978321 
L 266.821818 42.947741 
L 270.429091 42.916789 
L 274.036364 42.885474 
L 277.643636 42.853803 
L 281.250909 42.821784 
L 284.858182 42.789425 
L 288.465455 42.756735 
L 292.072727 42.723721 
L 295.68 42.690392 
L 299.287273 42.656757 
L 302.894545 42.622823 
L 306.501818 42.5886 
L 310.109091 42.554095 
L 313.716364 42.519318 
L 317.323636 42.484277 
L 320.930909 42.448982 
L 324.538182 42.41344 
L 328.145455 42.377661 
L 331.752727 42.341655 
L 335.36 42.30543 
L 338.967273 42.268994 
L 342.574545 42.232358 
L 346.181818 42.195531 
L 349.789091 42.158522 
L 353.396364 42.121339 
L 357.003636 42.083994 
L 360.610909 42.046494 
L 364.218182 42.008849 
L 367.825455 41.97107 
L 371.432727 41.933165 
L 375.04 41.895143 
L 378.647273 41.857015 
L 382.254545 41.818791 
L 385.861818 41.780479 
L 389.469091 41.742089 
L 393.076364 41.703631 
L 396.683636 41.665115 
L 400.290909 41.62655 
L 403.898182 41.587947 
L 407.505455 41.549314 
L 411.112727 41.510662 
L 414.72 41.472 
" clip-path="url(#p51875f4524)" style="fill: none; stroke: #1f77b4; stroke-width: 1.5; stroke-linecap: square"/>
   </g>
   <g id="line2d_26">
    <path d="M 57.6 70.205987 
L 61.207273 70.20237 
L 64.814545 70.191521 
L 68.421818 70.173441 
L 72.029091 70.148136 
L 75.636364 70.115612 
L 79.243636 70.075878 
L 82.850909 70.028942 
L 86.458182 69.974817 
L 90.065455 69.913517 
L 93.672727 69.845056 
L 97.28 69.769453 
L 100.887273 69.686727 
L 104.494545 69.596897 
L 108.101818 69.499987 
L 111.709091 69.396021 
L 115.316364 69.285026 
L 118.923636 69.167028 
L 122.530909 69.042059 
L 126.138182 68.910149 
L 129.745455 68.771331 
L 133.352727 68.625641 
L 136.96 68.473116 
L 140.567273 68.313793 
L 144.174545 68.147712 
L 147.781818 67.974917 
L 151.389091 67.795449 
L 154.996364 67.609354 
L 158.603636 67.41668 
L 162.210909 67.217474 
L 165.818182 67.011786 
L 169.425455 66.79967 
L 173.032727 66.581177 
L 176.64 66.356363 
L 180.247273 66.125284 
L 183.854545 65.888 
L 187.461818 65.644568 
L 191.069091 65.395052 
L 194.676364 65.139512 
L 198.283636 64.878015 
L 201.890909 64.610625 
L 205.498182 64.337411 
L 209.105455 64.05844 
L 212.712727 63.773783 
L 216.32 63.483511 
L 219.927273 63.187699 
L 223.534545 62.886419 
L 227.141818 62.579749 
L 230.749091 62.267765 
L 234.356364 61.950545 
L 237.963636 61.628171 
L 241.570909 61.300722 
L 245.178182 60.968281 
L 248.785455 60.630932 
L 252.392727 60.28876 
L 256 59.941851 
L 259.607273 59.590292 
L 263.214545 59.234172 
L 266.821818 58.873581 
L 270.429091 58.508609 
L 274.036364 58.139348 
L 277.643636 57.765891 
L 281.250909 57.388332 
L 284.858182 57.006766 
L 288.465455 56.62129 
L 292.072727 56.232 
L 295.68 55.838994 
L 299.287273 55.442371 
L 302.894545 55.042231 
L 306.501818 54.638675 
L 310.109091 54.231804 
L 313.716364 53.821722 
L 317.323636 53.40853 
L 320.930909 52.992333 
L 324.538182 52.573236 
L 328.145455 52.151344 
L 331.752727 51.726764 
L 335.36 51.299602 
L 338.967273 50.869967 
L 342.574545 50.437965 
L 346.181818 50.003706 
L 349.789091 49.5673 
L 353.396364 49.128855 
L 357.003636 48.688483 
L 360.610909 48.246294 
L 364.218182 47.8024 
L 367.825455 47.356912 
L 371.432727 46.909943 
L 375.04 46.461605 
L 378.647273 46.01201 
L 382.254545 45.561273 
L 385.861818 45.109506 
L 389.469091 44.656823 
L 393.076364 44.203339 
L 396.683636 43.749167 
L 400.290909 43.294422 
L 403.898182 42.839218 
L 407.505455 42.38367 
L 411.112727 41.927892 
L 414.72 41.472 
" clip-path="url(#p51875f4524)" style="fill: none; stroke: #ff7f0e; stroke-width: 1.5; stroke-linecap: square"/>
   </g>
   <g id="line2d_27">
    <path d="M 57.6 140.140323 
L 61.207273 140.127906 
L 64.814545 140.090655 
L 68.421818 140.028581 
L 72.029091 139.941699 
L 75.636364 139.830032 
L 79.243636 139.693607 
L 82.850909 139.532458 
L 86.458182 139.346626 
L 90.065455 139.136159 
L 93.672727 138.901107 
L 97.28 138.641532 
L 100.887273 138.357498 
L 104.494545 138.049076 
L 108.101818 137.716344 
L 111.709091 137.359386 
L 115.316364 136.978291 
L 118.923636 136.573156 
L 122.530909 136.144081 
L 126.138182 135.691176 
L 129.745455 135.214554 
L 133.352727 134.714334 
L 136.96 134.190643 
L 140.567273 133.643613 
L 144.174545 133.07338 
L 147.781818 132.480089 
L 151.389091 131.863888 
L 154.996364 131.224932 
L 158.603636 130.563383 
L 162.210909 129.879406 
L 165.818182 129.173173 
L 169.425455 128.444863 
L 173.032727 127.694659 
L 176.64 126.922748 
L 180.247273 126.129325 
L 183.854545 125.314591 
L 187.461818 124.478749 
L 191.069091 123.62201 
L 194.676364 122.74459 
L 198.283636 121.846708 
L 201.890909 120.928593 
L 205.498182 119.990473 
L 209.105455 119.032585 
L 212.712727 118.05517 
L 216.32 117.058475 
L 219.927273 116.042749 
L 223.534545 115.008248 
L 227.141818 113.955234 
L 230.749091 112.883969 
L 234.356364 111.794725 
L 237.963636 110.687776 
L 241.570909 109.563399 
L 245.178182 108.421878 
L 248.785455 107.263499 
L 252.392727 106.088556 
L 256 104.897343 
L 259.607273 103.690159 
L 263.214545 102.46731 
L 266.821818 101.229102 
L 270.429091 99.975848 
L 274.036364 98.707862 
L 277.643636 97.425464 
L 281.250909 96.128977 
L 284.858182 94.818727 
L 288.465455 93.495043 
L 292.072727 92.15826 
L 295.68 90.808713 
L 299.287273 89.446743 
L 302.894545 88.072692 
L 306.501818 86.686906 
L 310.109091 85.289734 
L 313.716364 83.881528 
L 317.323636 82.462642 
L 320.930909 81.033433 
L 324.538182 79.594262 
L 328.145455 78.145491 
L 331.752727 76.687484 
L 335.36 75.220609 
L 338.967273 73.745235 
L 342.574545 72.261733 
L 346.181818 70.770478 
L 349.789091 69.271844 
L 353.396364 67.766209 
L 357.003636 66.253952 
L 360.610909 64.735454 
L 364.218182 63.211097 
L 367.825455 61.681266 
L 371.432727 60.146345 
L 375.04 58.606721 
L 378.647273 57.062781 
L 382.254545 55.514915 
L 385.861818 53.963513 
L 389.469091 52.408964 
L 393.076364 50.851661 
L 396.683636 49.291996 
L 400.290909 47.730362 
L 403.898182 46.167151 
L 407.505455 44.602758 
L 411.112727 43.037576 
L 414.72 41.472 
" clip-path="url(#p51875f4524)" style="fill: none; stroke: #2ca02c; stroke-width: 1.5; stroke-linecap: square"/>
   </g>
   <g id="line2d_28">
    <path d="M 57.6 246.993386 
L 61.207273 246.968855 
L 64.814545 246.895266 
L 68.421818 246.772628 
L 72.029091 246.600956 
L 75.636364 246.380273 
L 79.243636 246.110608 
L 82.850909 245.791994 
L 86.458182 245.424475 
L 90.065455 245.008097 
L 93.672727 244.542915 
L 97.28 244.028992 
L 100.887273 243.466395 
L 104.494545 242.855199 
L 108.101818 242.195488 
L 111.709091 241.487351 
L 115.316364 240.730885 
L 118.923636 239.926195 
L 122.530909 239.073393 
L 126.138182 238.172601 
L 129.745455 237.223946 
L 133.352727 236.227566 
L 136.96 235.183606 
L 140.567273 234.09222 
L 144.174545 232.95357 
L 147.781818 231.76783 
L 151.389091 230.53518 
L 154.996364 229.255812 
L 158.603636 227.929925 
L 162.210909 226.557732 
L 165.818182 225.139453 
L 169.425455 223.675318 
L 173.032727 222.165572 
L 176.64 220.610465 
L 180.247273 219.010263 
L 183.854545 217.365241 
L 187.461818 215.675685 
L 191.069091 213.941895 
L 194.676364 212.164182 
L 198.283636 210.342868 
L 201.890909 208.478288 
L 205.498182 206.570791 
L 209.105455 204.620738 
L 212.712727 202.628501 
L 216.32 200.594469 
L 219.927273 198.51904 
L 223.534545 196.402629 
L 227.141818 194.245662 
L 230.749091 192.048581 
L 234.356364 189.81184 
L 237.963636 187.535908 
L 241.570909 185.221267 
L 245.178182 182.868415 
L 248.785455 180.477862 
L 252.392727 178.050133 
L 256 175.585769 
L 259.607273 173.085323 
L 263.214545 170.549363 
L 266.821818 167.978472 
L 270.429091 165.373246 
L 274.036364 162.734298 
L 277.643636 160.062252 
L 281.250909 157.357747 
L 284.858182 154.621438 
L 288.465455 151.853992 
L 292.072727 149.056091 
L 295.68 146.228429 
L 299.287273 143.371715 
L 302.894545 140.486671 
L 306.501818 137.574033 
L 310.109091 134.634548 
L 313.716364 131.668979 
L 317.323636 128.678098 
L 320.930909 125.662691 
L 324.538182 122.623556 
L 328.145455 119.561503 
L 331.752727 116.477353 
L 335.36 113.371938 
L 338.967273 110.2461 
L 342.574545 107.100694 
L 346.181818 103.936581 
L 349.789091 100.754636 
L 353.396364 97.55574 
L 357.003636 94.340785 
L 360.610909 91.11067 
L 364.218182 87.866302 
L 367.825455 84.608598 
L 371.432727 81.338478 
L 375.04 78.056873 
L 378.647273 74.764716 
L 382.254545 71.462949 
L 385.861818 68.152518 
L 389.469091 64.834374 
L 393.076364 61.509471 
L 396.683636 58.178769 
L 400.290909 54.843228 
L 403.898182 51.503813 
L 407.505455 48.161491 
L 411.112727 44.817231 
L 414.72 41.472 
" clip-path="url(#p51875f4524)" style="fill: none; stroke: #d62728; stroke-width: 1.5; stroke-linecap: square"/>
   </g>
   <g id="line2d_29">
    <path d="M 57.6 294.093549 
L 61.207273 294.073665 
L 64.814545 294.013995 
L 68.421818 293.914477 
L 72.029091 293.77501 
L 75.636364 293.595453 
L 79.243636 293.375624 
L 82.850909 293.115305 
L 86.458182 292.814235 
L 90.065455 292.472118 
L 93.672727 292.08862 
L 97.28 291.66337 
L 100.887273 291.195963 
L 104.494545 290.685957 
L 108.101818 290.132879 
L 111.709091 289.536224 
L 115.316364 288.895455 
L 118.923636 288.210008 
L 122.530909 287.47929 
L 126.138182 286.702681 
L 129.745455 285.879538 
L 133.352727 285.009197 
L 136.96 284.09097 
L 140.567273 283.124153 
L 144.174545 282.108025 
L 147.781818 281.041849 
L 151.389091 279.924877 
L 154.996364 278.75635 
L 158.603636 277.535502 
L 162.210909 276.261562 
L 165.818182 274.933754 
L 169.425455 273.551303 
L 173.032727 272.113436 
L 176.64 270.619383 
L 180.247273 269.068383 
L 183.854545 267.459684 
L 187.461818 265.792545 
L 191.069091 264.066243 
L 194.676364 262.280069 
L 198.283636 260.433337 
L 201.890909 258.525384 
L 205.498182 256.555571 
L 209.105455 254.52329 
L 212.712727 252.427961 
L 216.32 250.269042 
L 219.927273 248.046023 
L 223.534545 245.758436 
L 227.141818 243.405854 
L 230.749091 240.987893 
L 234.356364 238.504216 
L 237.963636 235.954536 
L 241.570909 233.338616 
L 245.178182 230.656273 
L 248.785455 227.907379 
L 252.392727 225.091865 
L 256 222.209719 
L 259.607273 219.260994 
L 263.214545 216.245803 
L 266.821818 213.164327 
L 270.429091 210.016812 
L 274.036364 206.803571 
L 277.643636 203.524988 
L 281.250909 200.181516 
L 284.858182 196.77368 
L 288.465455 193.302076 
L 292.072727 189.767375 
L 295.68 186.17032 
L 299.287273 182.511728 
L 302.894545 178.79249 
L 306.501818 175.013571 
L 310.109091 171.176011 
L 313.716364 167.280924 
L 317.323636 163.329495 
L 320.930909 159.322984 
L 324.538182 155.262723 
L 328.145455 151.150115 
L 331.752727 146.986632 
L 335.36 142.773815 
L 338.967273 138.513274 
L 342.574545 134.206683 
L 346.181818 129.85578 
L 349.789091 125.462367 
L 353.396364 121.028305 
L 357.003636 116.555511 
L 360.610909 112.04596 
L 364.218182 107.50168 
L 367.825455 102.924748 
L 371.432727 98.317289 
L 375.04 93.681474 
L 378.647273 89.019514 
L 382.254545 84.333661 
L 385.861818 79.626199 
L 389.469091 74.899447 
L 393.076364 70.155753 
L 396.683636 65.39749 
L 400.290909 60.627051 
L 403.898182 55.84685 
L 407.505455 51.059314 
L 411.112727 46.266882 
L 414.72 41.472 
" clip-path="url(#p51875f4524)" style="fill: none; stroke: #9467bd; stroke-width: 1.5; stroke-linecap: square"/>
   </g>
   <g id="line2d_30">
    <path d="M 57.6 306.750855 
L 61.207273 306.746237 
L 64.814545 306.732348 
L 68.421818 306.709089 
L 72.029091 306.676296 
L 75.636364 306.633736 
L 79.243636 306.581111 
L 82.850909 306.518054 
L 86.458182 306.444129 
L 90.065455 306.358833 
L 93.672727 306.26159 
L 97.28 306.151755 
L 100.887273 306.028608 
L 104.494545 305.891357 
L 108.101818 305.739135 
L 111.709091 305.570998 
L 115.316364 305.385925 
L 118.923636 305.182815 
L 122.530909 304.960487 
L 126.138182 304.71768 
L 129.745455 304.453049 
L 133.352727 304.165164 
L 136.96 303.852512 
L 140.567273 303.513495 
L 144.174545 303.146426 
L 147.781818 302.749533 
L 151.389091 302.320958 
L 154.996364 301.858753 
L 158.603636 301.360886 
L 162.210909 300.825237 
L 165.818182 300.249602 
L 169.425455 299.631693 
L 173.032727 298.969138 
L 176.64 298.259487 
L 180.247273 297.50021 
L 183.854545 296.688705 
L 187.461818 295.822296 
L 191.069091 294.898241 
L 194.676364 293.913735 
L 198.283636 292.865916 
L 201.890909 291.751866 
L 205.498182 290.568626 
L 209.105455 289.313193 
L 212.712727 287.982533 
L 216.32 286.573588 
L 219.927273 285.083282 
L 223.534545 283.508534 
L 227.141818 281.846261 
L 230.749091 280.093395 
L 234.356364 278.246887 
L 237.963636 276.303725 
L 241.570909 274.260936 
L 245.178182 272.115606 
L 248.785455 269.864889 
L 252.392727 267.506018 
L 256 265.036317 
L 259.607273 262.453219 
L 263.214545 259.754273 
L 266.821818 256.93716 
L 270.429091 253.999707 
L 274.036364 250.939896 
L 277.643636 247.755882 
L 281.250909 244.446003 
L 284.858182 241.008791 
L 288.465455 237.442989 
L 292.072727 233.747559 
L 295.68 229.921693 
L 299.287273 225.964826 
L 302.894545 221.876647 
L 306.501818 217.657106 
L 310.109091 213.306421 
L 313.716364 208.825092 
L 317.323636 204.213902 
L 320.930909 199.473927 
L 324.538182 194.606538 
L 328.145455 189.613408 
L 331.752727 184.49651 
L 335.36 179.258124 
L 338.967273 173.900834 
L 342.574545 168.427528 
L 346.181818 162.841396 
L 349.789091 157.145924 
L 353.396364 151.344896 
L 357.003636 145.442378 
L 360.610909 139.44272 
L 364.218182 133.350542 
L 367.825455 127.170724 
L 371.432727 120.908399 
L 375.04 114.568935 
L 378.647273 108.157926 
L 382.254545 101.681176 
L 385.861818 95.144684 
L 389.469091 88.554623 
L 393.076364 81.917332 
L 396.683636 75.239287 
L 400.290909 68.527089 
L 403.898182 61.787444 
L 407.505455 55.02714 
L 411.112727 48.253027 
L 414.72 41.472 
" clip-path="url(#p51875f4524)" style="fill: none; stroke: #8c564b; stroke-width: 1.5; stroke-linecap: square"/>
   </g>
   <g id="line2d_31">
    <path d="M 57.6 307.583695 
L 61.207273 307.583685 
L 64.814545 307.583654 
L 68.421818 307.5836 
L 72.029091 307.583521 
L 75.636364 307.583412 
L 79.243636 307.583267 
L 82.850909 307.583078 
L 86.458182 307.582836 
L 90.065455 307.582528 
L 93.672727 307.582138 
L 97.28 307.581648 
L 100.887273 307.581032 
L 104.494545 307.580263 
L 108.101818 307.579305 
L 111.709091 307.578114 
L 115.316364 307.576638 
L 118.923636 307.574813 
L 122.530909 307.572565 
L 126.138182 307.5698 
L 129.745455 307.566409 
L 133.352727 307.562262 
L 136.96 307.557201 
L 140.567273 307.551043 
L 144.174545 307.543567 
L 147.781818 307.534516 
L 151.389091 307.523584 
L 154.996364 307.510416 
L 158.603636 307.494594 
L 162.210909 307.475631 
L 165.818182 307.452962 
L 169.425455 307.425932 
L 173.032727 307.393783 
L 176.64 307.355644 
L 180.247273 307.310513 
L 183.854545 307.257246 
L 187.461818 307.194535 
L 191.069091 307.120895 
L 194.676364 307.034639 
L 198.283636 306.933866 
L 201.890909 306.81643 
L 205.498182 306.679927 
L 209.105455 306.521663 
L 212.712727 306.338637 
L 216.32 306.127515 
L 219.927273 305.884603 
L 223.534545 305.605826 
L 227.141818 305.286703 
L 230.749091 304.922328 
L 234.356364 304.507341 
L 237.963636 304.035918 
L 241.570909 303.501746 
L 245.178182 302.898015 
L 248.785455 302.217406 
L 252.392727 301.452082 
L 256 300.593692 
L 259.607273 299.633371 
L 263.214545 298.561751 
L 266.821818 297.368977 
L 270.429091 296.044735 
L 274.036364 294.578279 
L 277.643636 292.958471 
L 281.250909 291.173833 
L 284.858182 289.212599 
L 288.465455 287.062785 
L 292.072727 284.712259 
L 295.68 282.148828 
L 299.287273 279.360328 
L 302.894545 276.334723 
L 306.501818 273.060216 
L 310.109091 269.525354 
L 313.716364 265.719158 
L 317.323636 261.631237 
L 320.930909 257.251921 
L 324.538182 252.572389 
L 328.145455 247.584796 
L 331.752727 242.2824 
L 335.36 236.65969 
L 338.967273 230.712501 
L 342.574545 224.438131 
L 346.181818 217.835439 
L 349.789091 210.904941 
L 353.396364 203.648891 
L 357.003636 196.071346 
L 360.610909 188.178216 
L 364.218182 179.977298 
L 367.825455 171.478293 
L 371.432727 162.692799 
L 375.04 153.63429 
L 378.647273 144.318071 
L 382.254545 134.761212 
L 385.861818 124.982467 
L 389.469091 115.002171 
L 393.076364 104.842111 
L 396.683636 94.525393 
L 400.290909 84.076283 
L 403.898182 73.520039 
L 407.505455 62.882722 
L 411.112727 52.191011 
L 414.72 41.472 
" clip-path="url(#p51875f4524)" style="fill: none; stroke: #e377c2; stroke-width: 1.5; stroke-linecap: square"/>
   </g>
   <g id="line2d_32">
    <path d="M 57.6 307.584 
L 61.207273 307.584 
L 64.814545 307.584 
L 68.421818 307.584 
L 72.029091 307.584 
L 75.636364 307.584 
L 79.243636 307.584 
L 82.850909 307.584 
L 86.458182 307.584 
L 90.065455 307.584 
L 93.672727 307.584 
L 97.28 307.584 
L 100.887273 307.584 
L 104.494545 307.584 
L 108.101818 307.584 
L 111.709091 307.583999 
L 115.316364 307.583999 
L 118.923636 307.583999 
L 122.530909 307.583998 
L 126.138182 307.583997 
L 129.745455 307.583996 
L 133.352727 307.583993 
L 136.96 307.58399 
L 140.567273 307.583985 
L 144.174545 307.583977 
L 147.781818 307.583967 
L 151.389091 307.583951 
L 154.996364 307.583928 
L 158.603636 307.583895 
L 162.210909 307.583847 
L 165.818182 307.583779 
L 169.425455 307.583683 
L 173.032727 307.583546 
L 176.64 307.583354 
L 180.247273 307.583085 
L 183.854545 307.582709 
L 187.461818 307.58219 
L 191.069091 307.581473 
L 194.676364 307.58049 
L 198.283636 307.579148 
L 201.890909 307.577326 
L 205.498182 307.574864 
L 209.105455 307.571555 
L 212.712727 307.567129 
L 216.32 307.561241 
L 219.927273 307.553447 
L 223.534545 307.543182 
L 227.141818 307.529731 
L 230.749091 307.512197 
L 234.356364 307.489454 
L 237.963636 307.460106 
L 241.570909 307.422428 
L 245.178182 307.374301 
L 248.785455 307.313139 
L 252.392727 307.235808 
L 256 307.138531 
L 259.607273 307.016785 
L 263.214545 306.865191 
L 266.821818 306.67739 
L 270.429091 306.445919 
L 274.036364 306.162075 
L 277.643636 305.815776 
L 281.250909 305.39543 
L 284.858182 304.887799 
L 288.465455 304.277877 
L 292.072727 303.548779 
L 295.68 302.681651 
L 299.287273 301.655608 
L 302.894545 300.447702 
L 306.501818 299.032929 
L 310.109091 297.384291 
L 313.716364 295.472902 
L 317.323636 293.268155 
L 320.930909 290.737964 
L 324.538182 287.849057 
L 328.145455 284.567356 
L 331.752727 280.858414 
L 335.36 276.687933 
L 338.967273 272.022329 
L 342.574545 266.82937 
L 346.181818 261.078847 
L 349.789091 254.743286 
L 353.396364 247.798669 
L 357.003636 240.225166 
L 360.610909 232.007836 
L 364.218182 223.137296 
L 367.825455 213.610327 
L 371.432727 203.430397 
L 375.04 192.60808 
L 378.647273 181.16136 
L 382.254545 169.115792 
L 385.861818 156.504521 
L 389.469091 143.368137 
L 393.076364 129.754375 
L 396.683636 115.717647 
L 400.290909 101.318426 
L 403.898182 86.622483 
L 407.505455 71.699991 
L 411.112727 56.624531 
L 414.72 41.472 
" clip-path="url(#p51875f4524)" style="fill: none; stroke: #7f7f7f; stroke-width: 1.5; stroke-linecap: square"/>
   </g>
   <g id="line2d_33">
    <path d="M 57.6 307.584 
L 61.207273 307.584 
L 64.814545 307.584 
L 68.421818 307.584 
L 72.029091 307.584 
L 75.636364 307.584 
L 79.243636 307.584 
L 82.850909 307.584 
L 86.458182 307.584 
L 90.065455 307.584 
L 93.672727 307.584 
L 97.28 307.584 
L 100.887273 307.584 
L 104.494545 307.584 
L 108.101818 307.584 
L 111.709091 307.584 
L 115.316364 307.584 
L 118.923636 307.584 
L 122.530909 307.584 
L 126.138182 307.584 
L 129.745455 307.584 
L 133.352727 307.584 
L 136.96 307.584 
L 140.567273 307.584 
L 144.174545 307.584 
L 147.781818 307.584 
L 151.389091 307.584 
L 154.996364 307.584 
L 158.603636 307.584 
L 162.210909 307.584 
L 165.818182 307.584 
L 169.425455 307.584 
L 173.032727 307.584 
L 176.64 307.584 
L 180.247273 307.584 
L 183.854545 307.584 
L 187.461818 307.584 
L 191.069091 307.584 
L 194.676364 307.584 
L 198.283636 307.584 
L 201.890909 307.583999 
L 205.498182 307.583999 
L 209.105455 307.583998 
L 212.712727 307.583996 
L 216.32 307.583993 
L 219.927273 307.583987 
L 223.534545 307.583977 
L 227.141818 307.58396 
L 230.749091 307.583931 
L 234.356364 307.583883 
L 237.963636 307.583802 
L 241.570909 307.583669 
L 245.178182 307.583452 
L 248.785455 307.583101 
L 252.392727 307.582541 
L 256 307.581655 
L 259.607273 307.580267 
L 263.214545 307.578116 
L 266.821818 307.574815 
L 270.429091 307.5698 
L 274.036364 307.562262 
L 277.643636 307.551043 
L 281.250909 307.534516 
L 284.858182 307.510416 
L 288.465455 307.475631 
L 292.072727 307.425932 
L 295.68 307.355644 
L 299.287273 307.257246 
L 302.894545 307.120895 
L 306.501818 306.933866 
L 310.109091 306.679927 
L 313.716364 306.338637 
L 317.323636 305.884603 
L 320.930909 305.286703 
L 324.538182 304.507341 
L 328.145455 303.501746 
L 331.752727 302.217406 
L 335.36 300.593692 
L 338.967273 298.561751 
L 342.574545 296.044735 
L 346.181818 292.958471 
L 349.789091 289.212599 
L 353.396364 284.712259 
L 357.003636 279.360328 
L 360.610909 273.060216 
L 364.218182 265.719158 
L 367.825455 257.251921 
L 371.432727 247.584796 
L 375.04 236.65969 
L 378.647273 224.438131 
L 382.254545 210.904941 
L 385.861818 196.071346 
L 389.469091 179.977298 
L 393.076364 162.692799 
L 396.683636 144.318071 
L 400.290909 124.982467 
L 403.898182 104.842111 
L 407.505455 84.076283 
L 411.112727 62.882722 
L 414.72 41.472 
" clip-path="url(#p51875f4524)" style="fill: none; stroke: #bcbd22; stroke-width: 1.5; stroke-linecap: square"/>
   </g>
   <g id="patch_3">
    <path d="M 57.6 307.584 
L 57.6 41.472 
" style="fill: none; stroke: #000000; stroke-width: 0.8; stroke-linejoin: miter; stroke-linecap: square"/>
   </g>
   <g id="patch_4">
    <path d="M 414.72 307.584 
L 414.72 41.472 
" style="fill: none; stroke: #000000; stroke-width: 0.8; stroke-linejoin: miter; stroke-linecap: square"/>
   </g>
   <g id="patch_5">
    <path d="M 57.6 307.584 
L 414.72 307.584 
" style="fill: none; stroke: #000000; stroke-width: 0.8; stroke-linejoin: miter; stroke-linecap: square"/>
   </g>
   <g id="patch_6">
    <path d="M 57.6 41.472 
L 414.72 41.472 
" style="fill: none; stroke: #000000; stroke-width: 0.8; stroke-linejoin: miter; stroke-linecap: square"/>
   </g>
   <g id="legend_1">
    <g id="patch_7">
     <path d="M 347.091875 302.584 
L 407.72 302.584 
Q 409.72 302.584 409.72 300.584 
L 409.72 169.480875 
Q 409.72 167.480875 407.72 167.480875 
L 347.091875 167.480875 
Q 345.091875 167.480875 345.091875 169.480875 
L 345.091875 300.584 
Q 345.091875 302.584 347.091875 302.584 
z
" style="fill: #ffffff; opacity: 0.8; stroke: #cccccc; stroke-linejoin: miter"/>
    </g>
    <g id="line2d_34">
     <path d="M 349.091875 175.579313 
L 359.091875 175.579313 
L 369.091875 175.579313 
" style="fill: none; stroke: #1f77b4; stroke-width: 1.5; stroke-linecap: square"/>
    </g>
    <g id="text_15">
     <!-- 2.0 -->
     <g transform="translate(377.091875 179.079313) scale(0.1 -0.1)">
      <use xlink:href="#DejaVuSans-32"/>
      <use xlink:href="#DejaVuSans-2e" x="63.623047"/>
      <use xlink:href="#DejaVuSans-30" x="95.410156"/>
     </g>
    </g>
    <g id="line2d_35">
     <path d="M 349.091875 190.257438 
L 359.091875 190.257438 
L 369.091875 190.257438 
" style="fill: none; stroke: #ff7f0e; stroke-width: 1.5; stroke-linecap: square"/>
    </g>
    <g id="text_16">
     <!-- 1.0 -->
     <g transform="translate(377.091875 193.757438) scale(0.1 -0.1)">
      <use xlink:href="#DejaVuSans-31"/>
      <use xlink:href="#DejaVuSans-2e" x="63.623047"/>
      <use xlink:href="#DejaVuSans-30" x="95.410156"/>
     </g>
    </g>
    <g id="line2d_36">
     <path d="M 349.091875 204.935563 
L 359.091875 204.935563 
L 369.091875 204.935563 
" style="fill: none; stroke: #2ca02c; stroke-width: 1.5; stroke-linecap: square"/>
    </g>
    <g id="text_17">
     <!-- 0.5 -->
     <g transform="translate(377.091875 208.435563) scale(0.1 -0.1)">
      <defs>
       <path id="DejaVuSans-35" d="M 691 4666 
L 3169 4666 
L 3169 4134 
L 1269 4134 
L 1269 2991 
Q 1406 3038 1543 3061 
Q 1681 3084 1819 3084 
Q 2600 3084 3056 2656 
Q 3513 2228 3513 1497 
Q 3513 744 3044 326 
Q 2575 -91 1722 -91 
Q 1428 -91 1123 -41 
Q 819 9 494 109 
L 494 744 
Q 775 591 1075 516 
Q 1375 441 1709 441 
Q 2250 441 2565 725 
Q 2881 1009 2881 1497 
Q 2881 1984 2565 2268 
Q 2250 2553 1709 2553 
Q 1456 2553 1204 2497 
Q 953 2441 691 2322 
L 691 4666 
z
" transform="scale(0.015625)"/>
      </defs>
      <use xlink:href="#DejaVuSans-30"/>
      <use xlink:href="#DejaVuSans-2e" x="63.623047"/>
      <use xlink:href="#DejaVuSans-35" x="95.410156"/>
     </g>
    </g>
    <g id="line2d_37">
     <path d="M 349.091875 219.613688 
L 359.091875 219.613688 
L 369.091875 219.613688 
" style="fill: none; stroke: #d62728; stroke-width: 1.5; stroke-linecap: square"/>
    </g>
    <g id="text_18">
     <!-- 0.2 -->
     <g transform="translate(377.091875 223.113688) scale(0.1 -0.1)">
      <use xlink:href="#DejaVuSans-30"/>
      <use xlink:href="#DejaVuSans-2e" x="63.623047"/>
      <use xlink:href="#DejaVuSans-32" x="95.410156"/>
     </g>
    </g>
    <g id="line2d_38">
     <path d="M 349.091875 234.291813 
L 359.091875 234.291813 
L 369.091875 234.291813 
" style="fill: none; stroke: #9467bd; stroke-width: 1.5; stroke-linecap: square"/>
    </g>
    <g id="text_19">
     <!-- 0.1 -->
     <g transform="translate(377.091875 237.791813) scale(0.1 -0.1)">
      <use xlink:href="#DejaVuSans-30"/>
      <use xlink:href="#DejaVuSans-2e" x="63.623047"/>
      <use xlink:href="#DejaVuSans-31" x="95.410156"/>
     </g>
    </g>
    <g id="line2d_39">
     <path d="M 349.091875 248.969938 
L 359.091875 248.969938 
L 369.091875 248.969938 
" style="fill: none; stroke: #8c564b; stroke-width: 1.5; stroke-linecap: square"/>
    </g>
    <g id="text_20">
     <!-- 0.05 -->
     <g transform="translate(377.091875 252.469938) scale(0.1 -0.1)">
      <use xlink:href="#DejaVuSans-30"/>
      <use xlink:href="#DejaVuSans-2e" x="63.623047"/>
      <use xlink:href="#DejaVuSans-30" x="95.410156"/>
      <use xlink:href="#DejaVuSans-35" x="159.033203"/>
     </g>
    </g>
    <g id="line2d_40">
     <path d="M 349.091875 263.648063 
L 359.091875 263.648063 
L 369.091875 263.648063 
" style="fill: none; stroke: #e377c2; stroke-width: 1.5; stroke-linecap: square"/>
    </g>
    <g id="text_21">
     <!-- 0.02 -->
     <g transform="translate(377.091875 267.148063) scale(0.1 -0.1)">
      <use xlink:href="#DejaVuSans-30"/>
      <use xlink:href="#DejaVuSans-2e" x="63.623047"/>
      <use xlink:href="#DejaVuSans-30" x="95.410156"/>
      <use xlink:href="#DejaVuSans-32" x="159.033203"/>
     </g>
    </g>
    <g id="line2d_41">
     <path d="M 349.091875 278.326188 
L 359.091875 278.326188 
L 369.091875 278.326188 
" style="fill: none; stroke: #7f7f7f; stroke-width: 1.5; stroke-linecap: square"/>
    </g>
    <g id="text_22">
     <!-- 0.01 -->
     <g transform="translate(377.091875 281.826188) scale(0.1 -0.1)">
      <use xlink:href="#DejaVuSans-30"/>
      <use xlink:href="#DejaVuSans-2e" x="63.623047"/>
      <use xlink:href="#DejaVuSans-30" x="95.410156"/>
      <use xlink:href="#DejaVuSans-31" x="159.033203"/>
     </g>
    </g>
    <g id="line2d_42">
     <path d="M 349.091875 293.004312 
L 359.091875 293.004312 
L 369.091875 293.004312 
" style="fill: none; stroke: #bcbd22; stroke-width: 1.5; stroke-linecap: square"/>
    </g>
    <g id="text_23">
     <!-- 0.005 -->
     <g transform="translate(377.091875 296.504312) scale(0.1 -0.1)">
      <use xlink:href="#DejaVuSans-30"/>
      <use xlink:href="#DejaVuSans-2e" x="63.623047"/>
      <use xlink:href="#DejaVuSans-30" x="95.410156"/>
      <use xlink:href="#DejaVuSans-30" x="159.033203"/>
      <use xlink:href="#DejaVuSans-35" x="222.65625"/>
     </g>
    </g>
   </g>
  </g>
 </g>
 <defs>
  <clipPath id="p51875f4524">
   <rect x="57.6" y="41.472" width="357.12" height="266.112"/>
  </clipPath>
 </defs>
</svg>
