<?xml version="1.0" encoding="utf-8" standalone="no"?>
<!DOCTYPE svg PUBLIC "-//W3C//DTD SVG 1.1//EN"
  "http://www.w3.org/Graphics/SVG/1.1/DTD/svg11.dtd">
<svg xmlns:xlink="http://www.w3.org/1999/xlink" width="460.8pt" height="345.6pt" viewBox="0 0 460.8 345.6" xmlns="http://www.w3.org/2000/svg" version="1.1">
 <metadata>
  <rdf:RDF xmlns:dc="http://purl.org/dc/elements/1.1/" xmlns:cc="http://creativecommons.org/ns#" xmlns:rdf="http://www.w3.org/1999/02/22-rdf-syntax-ns#">
   <cc:Work>
    <dc:type rdf:resource="http://purl.org/dc/dcmitype/StillImage"/>
    <dc:date>2024-11-17T17:35:37.907667</dc:date>
    <dc:format>image/svg+xml</dc:format>
    <dc:creator>
     <cc:Agent>
      <dc:title>Matplotlib v3.9.2, https://matplotlib.org/</dc:title>
     </cc:Agent>
    </dc:creator>
   </cc:Work>
  </rdf:RDF>
 </metadata>
 <defs>
  <style type="text/css">*{stroke-linejoin: round; stroke-linecap: butt}</style>
 </defs>
 <g id="figure_1">
  <g id="patch_1">
   <path d="M 0 345.6 
L 460.8 345.6 
L 460.8 0 
L 0 0 
z
" style="fill: #ffffff"/>
  </g>
  <g id="axes_1">
   <g id="patch_2">
    <path d="M 57.6 307.584 
L 414.72 307.584 
L 414.72 41.472 
L 57.6 41.472 
z
" style="fill: #ffffff"/>
   </g>
   <g id="matplotlib.axis_1">
    <g id="xtick_1">
     <g id="line2d_1">
      <path d="M 57.6 307.584 
L 57.6 41.472 
" clip-path="url(#p235ca49912)" style="fill: none; stroke: #b0b0b0; stroke-width: 0.8; stroke-linecap: square"/>
     </g>
     <g id="line2d_2">
      <defs>
       <path id="m42c83dc2bc" d="M 0 0 
L 0 3.5 
" style="stroke: #000000; stroke-width: 0.8"/>
      </defs>
      <g>
       <use xlink:href="#m42c83dc2bc" x="57.6" y="307.584" style="stroke: #000000; stroke-width: 0.8"/>
      </g>
     </g>
     <g id="text_1">
      <!-- 0.0 -->
      <g transform="translate(49.648438 322.182437) scale(0.1 -0.1)">
       <defs>
        <path id="DejaVuSans-30" d="M 2034 4250 
Q 1547 4250 1301 3770 
Q 1056 3291 1056 2328 
Q 1056 1369 1301 889 
Q 1547 409 2034 409 
Q 2525 409 2770 889 
Q 3016 1369 3016 2328 
Q 3016 3291 2770 3770 
Q 2525 4250 2034 4250 
z
M 2034 4750 
Q 2819 4750 3233 4129 
Q 3647 3509 3647 2328 
Q 3647 1150 3233 529 
Q 2819 -91 2034 -91 
Q 1250 -91 836 529 
Q 422 1150 422 2328 
Q 422 3509 836 4129 
Q 1250 4750 2034 4750 
z
" transform="scale(0.015625)"/>
        <path id="DejaVuSans-2e" d="M 684 794 
L 1344 794 
L 1344 0 
L 684 0 
L 684 794 
z
" transform="scale(0.015625)"/>
       </defs>
       <use xlink:href="#DejaVuSans-30"/>
       <use xlink:href="#DejaVuSans-2e" x="63.623047"/>
       <use xlink:href="#DejaVuSans-30" x="95.410156"/>
      </g>
     </g>
    </g>
    <g id="xtick_2">
     <g id="line2d_3">
      <path d="M 129.024 307.584 
L 129.024 41.472 
" clip-path="url(#p235ca49912)" style="fill: none; stroke: #b0b0b0; stroke-width: 0.8; stroke-linecap: square"/>
     </g>
     <g id="line2d_4">
      <g>
       <use xlink:href="#m42c83dc2bc" x="129.024" y="307.584" style="stroke: #000000; stroke-width: 0.8"/>
      </g>
     </g>
     <g id="text_2">
      <!-- 0.2 -->
      <g transform="translate(121.072438 322.182437) scale(0.1 -0.1)">
       <defs>
        <path id="DejaVuSans-32" d="M 1228 531 
L 3431 531 
L 3431 0 
L 469 0 
L 469 531 
Q 828 903 1448 1529 
Q 2069 2156 2228 2338 
Q 2531 2678 2651 2914 
Q 2772 3150 2772 3378 
Q 2772 3750 2511 3984 
Q 2250 4219 1831 4219 
Q 1534 4219 1204 4116 
Q 875 4013 500 3803 
L 500 4441 
Q 881 4594 1212 4672 
Q 1544 4750 1819 4750 
Q 2544 4750 2975 4387 
Q 3406 4025 3406 3419 
Q 3406 3131 3298 2873 
Q 3191 2616 2906 2266 
Q 2828 2175 2409 1742 
Q 1991 1309 1228 531 
z
" transform="scale(0.015625)"/>
       </defs>
       <use xlink:href="#DejaVuSans-30"/>
       <use xlink:href="#DejaVuSans-2e" x="63.623047"/>
       <use xlink:href="#DejaVuSans-32" x="95.410156"/>
      </g>
     </g>
    </g>
    <g id="xtick_3">
     <g id="line2d_5">
      <path d="M 200.448 307.584 
L 200.448 41.472 
" clip-path="url(#p235ca49912)" style="fill: none; stroke: #b0b0b0; stroke-width: 0.8; stroke-linecap: square"/>
     </g>
     <g id="line2d_6">
      <g>
       <use xlink:href="#m42c83dc2bc" x="200.448" y="307.584" style="stroke: #000000; stroke-width: 0.8"/>
      </g>
     </g>
     <g id="text_3">
      <!-- 0.4 -->
      <g transform="translate(192.496438 322.182437) scale(0.1 -0.1)">
       <defs>
        <path id="DejaVuSans-34" d="M 2419 4116 
L 825 1625 
L 2419 1625 
L 2419 4116 
z
M 2253 4666 
L 3047 4666 
L 3047 1625 
L 3713 1625 
L 3713 1100 
L 3047 1100 
L 3047 0 
L 2419 0 
L 2419 1100 
L 313 1100 
L 313 1709 
L 2253 4666 
z
" transform="scale(0.015625)"/>
       </defs>
       <use xlink:href="#DejaVuSans-30"/>
       <use xlink:href="#DejaVuSans-2e" x="63.623047"/>
       <use xlink:href="#DejaVuSans-34" x="95.410156"/>
      </g>
     </g>
    </g>
    <g id="xtick_4">
     <g id="line2d_7">
      <path d="M 271.872 307.584 
L 271.872 41.472 
" clip-path="url(#p235ca49912)" style="fill: none; stroke: #b0b0b0; stroke-width: 0.8; stroke-linecap: square"/>
     </g>
     <g id="line2d_8">
      <g>
       <use xlink:href="#m42c83dc2bc" x="271.872" y="307.584" style="stroke: #000000; stroke-width: 0.8"/>
      </g>
     </g>
     <g id="text_4">
      <!-- 0.6 -->
      <g transform="translate(263.920438 322.182437) scale(0.1 -0.1)">
       <defs>
        <path id="DejaVuSans-36" d="M 2113 2584 
Q 1688 2584 1439 2293 
Q 1191 2003 1191 1497 
Q 1191 994 1439 701 
Q 1688 409 2113 409 
Q 2538 409 2786 701 
Q 3034 994 3034 1497 
Q 3034 2003 2786 2293 
Q 2538 2584 2113 2584 
z
M 3366 4563 
L 3366 3988 
Q 3128 4100 2886 4159 
Q 2644 4219 2406 4219 
Q 1781 4219 1451 3797 
Q 1122 3375 1075 2522 
Q 1259 2794 1537 2939 
Q 1816 3084 2150 3084 
Q 2853 3084 3261 2657 
Q 3669 2231 3669 1497 
Q 3669 778 3244 343 
Q 2819 -91 2113 -91 
Q 1303 -91 875 529 
Q 447 1150 447 2328 
Q 447 3434 972 4092 
Q 1497 4750 2381 4750 
Q 2619 4750 2861 4703 
Q 3103 4656 3366 4563 
z
" transform="scale(0.015625)"/>
       </defs>
       <use xlink:href="#DejaVuSans-30"/>
       <use xlink:href="#DejaVuSans-2e" x="63.623047"/>
       <use xlink:href="#DejaVuSans-36" x="95.410156"/>
      </g>
     </g>
    </g>
    <g id="xtick_5">
     <g id="line2d_9">
      <path d="M 343.296 307.584 
L 343.296 41.472 
" clip-path="url(#p235ca49912)" style="fill: none; stroke: #b0b0b0; stroke-width: 0.8; stroke-linecap: square"/>
     </g>
     <g id="line2d_10">
      <g>
       <use xlink:href="#m42c83dc2bc" x="343.296" y="307.584" style="stroke: #000000; stroke-width: 0.8"/>
      </g>
     </g>
     <g id="text_5">
      <!-- 0.8 -->
      <g transform="translate(335.344438 322.182437) scale(0.1 -0.1)">
       <defs>
        <path id="DejaVuSans-38" d="M 2034 2216 
Q 1584 2216 1326 1975 
Q 1069 1734 1069 1313 
Q 1069 891 1326 650 
Q 1584 409 2034 409 
Q 2484 409 2743 651 
Q 3003 894 3003 1313 
Q 3003 1734 2745 1975 
Q 2488 2216 2034 2216 
z
M 1403 2484 
Q 997 2584 770 2862 
Q 544 3141 544 3541 
Q 544 4100 942 4425 
Q 1341 4750 2034 4750 
Q 2731 4750 3128 4425 
Q 3525 4100 3525 3541 
Q 3525 3141 3298 2862 
Q 3072 2584 2669 2484 
Q 3125 2378 3379 2068 
Q 3634 1759 3634 1313 
Q 3634 634 3220 271 
Q 2806 -91 2034 -91 
Q 1263 -91 848 271 
Q 434 634 434 1313 
Q 434 1759 690 2068 
Q 947 2378 1403 2484 
z
M 1172 3481 
Q 1172 3119 1398 2916 
Q 1625 2713 2034 2713 
Q 2441 2713 2670 2916 
Q 2900 3119 2900 3481 
Q 2900 3844 2670 4047 
Q 2441 4250 2034 4250 
Q 1625 4250 1398 4047 
Q 1172 3844 1172 3481 
z
" transform="scale(0.015625)"/>
       </defs>
       <use xlink:href="#DejaVuSans-30"/>
       <use xlink:href="#DejaVuSans-2e" x="63.623047"/>
       <use xlink:href="#DejaVuSans-38" x="95.410156"/>
      </g>
     </g>
    </g>
    <g id="xtick_6">
     <g id="line2d_11">
      <path d="M 414.72 307.584 
L 414.72 41.472 
" clip-path="url(#p235ca49912)" style="fill: none; stroke: #b0b0b0; stroke-width: 0.8; stroke-linecap: square"/>
     </g>
     <g id="line2d_12">
      <g>
       <use xlink:href="#m42c83dc2bc" x="414.72" y="307.584" style="stroke: #000000; stroke-width: 0.8"/>
      </g>
     </g>
     <g id="text_6">
      <!-- 1.0 -->
      <g transform="translate(406.768438 322.182437) scale(0.1 -0.1)">
       <defs>
        <path id="DejaVuSans-31" d="M 794 531 
L 1825 531 
L 1825 4091 
L 703 3866 
L 703 4441 
L 1819 4666 
L 2450 4666 
L 2450 531 
L 3481 531 
L 3481 0 
L 794 0 
L 794 531 
z
" transform="scale(0.015625)"/>
       </defs>
       <use xlink:href="#DejaVuSans-31"/>
       <use xlink:href="#DejaVuSans-2e" x="63.623047"/>
       <use xlink:href="#DejaVuSans-30" x="95.410156"/>
      </g>
     </g>
    </g>
    <g id="text_7">
     <!-- $r/a$ -->
     <g transform="translate(229.31 335.860562) scale(0.1 -0.1)">
      <defs>
       <path id="DejaVuSans-Oblique-72" d="M 2853 2969 
Q 2766 3016 2653 3041 
Q 2541 3066 2413 3066 
Q 1953 3066 1609 2717 
Q 1266 2369 1153 1784 
L 800 0 
L 225 0 
L 909 3500 
L 1484 3500 
L 1375 2956 
Q 1603 3259 1920 3421 
Q 2238 3584 2597 3584 
Q 2691 3584 2781 3573 
Q 2872 3563 2963 3538 
L 2853 2969 
z
" transform="scale(0.015625)"/>
       <path id="DejaVuSans-2f" d="M 1625 4666 
L 2156 4666 
L 531 -594 
L 0 -594 
L 1625 4666 
z
" transform="scale(0.015625)"/>
       <path id="DejaVuSans-Oblique-61" d="M 3438 1997 
L 3047 0 
L 2472 0 
L 2578 531 
Q 2325 219 2001 64 
Q 1678 -91 1281 -91 
Q 834 -91 548 182 
Q 263 456 263 884 
Q 263 1497 752 1853 
Q 1241 2209 2100 2209 
L 2900 2209 
L 2931 2363 
Q 2938 2388 2941 2417 
Q 2944 2447 2944 2509 
Q 2944 2788 2717 2942 
Q 2491 3097 2081 3097 
Q 1800 3097 1504 3025 
Q 1209 2953 897 2809 
L 997 3341 
Q 1322 3463 1633 3523 
Q 1944 3584 2234 3584 
Q 2853 3584 3176 3315 
Q 3500 3047 3500 2534 
Q 3500 2431 3484 2292 
Q 3469 2153 3438 1997 
z
M 2816 1759 
L 2241 1759 
Q 1534 1759 1195 1570 
Q 856 1381 856 984 
Q 856 709 1029 553 
Q 1203 397 1509 397 
Q 1978 397 2328 733 
Q 2678 1069 2791 1631 
L 2816 1759 
z
" transform="scale(0.015625)"/>
      </defs>
      <use xlink:href="#DejaVuSans-Oblique-72" transform="translate(0 0.09375)"/>
      <use xlink:href="#DejaVuSans-2f" transform="translate(41.113281 0.09375)"/>
      <use xlink:href="#DejaVuSans-Oblique-61" transform="translate(74.804688 0.09375)"/>
     </g>
    </g>
   </g>
   <g id="matplotlib.axis_2">
    <g id="ytick_1">
     <g id="line2d_13">
      <path d="M 57.6 307.584 
L 414.72 307.584 
" clip-path="url(#p235ca49912)" style="fill: none; stroke: #b0b0b0; stroke-width: 0.8; stroke-linecap: square"/>
     </g>
     <g id="line2d_14">
      <defs>
       <path id="m4664c34ad4" d="M 0 0 
L -3.5 0 
" style="stroke: #000000; stroke-width: 0.8"/>
      </defs>
      <g>
       <use xlink:href="#m4664c34ad4" x="57.6" y="307.584" style="stroke: #000000; stroke-width: 0.8"/>
      </g>
     </g>
     <g id="text_8">
      <!-- 0.0 -->
      <g transform="translate(34.696875 311.383219) scale(0.1 -0.1)">
       <use xlink:href="#DejaVuSans-30"/>
       <use xlink:href="#DejaVuSans-2e" x="63.623047"/>
       <use xlink:href="#DejaVuSans-30" x="95.410156"/>
      </g>
     </g>
    </g>
    <g id="ytick_2">
     <g id="line2d_15">
      <path d="M 57.6 254.3616 
L 414.72 254.3616 
" clip-path="url(#p235ca49912)" style="fill: none; stroke: #b0b0b0; stroke-width: 0.8; stroke-linecap: square"/>
     </g>
     <g id="line2d_16">
      <g>
       <use xlink:href="#m4664c34ad4" x="57.6" y="254.3616" style="stroke: #000000; stroke-width: 0.8"/>
      </g>
     </g>
     <g id="text_9">
      <!-- 0.2 -->
      <g transform="translate(34.696875 258.160819) scale(0.1 -0.1)">
       <use xlink:href="#DejaVuSans-30"/>
       <use xlink:href="#DejaVuSans-2e" x="63.623047"/>
       <use xlink:href="#DejaVuSans-32" x="95.410156"/>
      </g>
     </g>
    </g>
    <g id="ytick_3">
     <g id="line2d_17">
      <path d="M 57.6 201.1392 
L 414.72 201.1392 
" clip-path="url(#p235ca49912)" style="fill: none; stroke: #b0b0b0; stroke-width: 0.8; stroke-linecap: square"/>
     </g>
     <g id="line2d_18">
      <g>
       <use xlink:href="#m4664c34ad4" x="57.6" y="201.1392" style="stroke: #000000; stroke-width: 0.8"/>
      </g>
     </g>
     <g id="text_10">
      <!-- 0.4 -->
      <g transform="translate(34.696875 204.938419) scale(0.1 -0.1)">
       <use xlink:href="#DejaVuSans-30"/>
       <use xlink:href="#DejaVuSans-2e" x="63.623047"/>
       <use xlink:href="#DejaVuSans-34" x="95.410156"/>
      </g>
     </g>
    </g>
    <g id="ytick_4">
     <g id="line2d_19">
      <path d="M 57.6 147.9168 
L 414.72 147.9168 
" clip-path="url(#p235ca49912)" style="fill: none; stroke: #b0b0b0; stroke-width: 0.8; stroke-linecap: square"/>
     </g>
     <g id="line2d_20">
      <g>
       <use xlink:href="#m4664c34ad4" x="57.6" y="147.9168" style="stroke: #000000; stroke-width: 0.8"/>
      </g>
     </g>
     <g id="text_11">
      <!-- 0.6 -->
      <g transform="translate(34.696875 151.716019) scale(0.1 -0.1)">
       <use xlink:href="#DejaVuSans-30"/>
       <use xlink:href="#DejaVuSans-2e" x="63.623047"/>
       <use xlink:href="#DejaVuSans-36" x="95.410156"/>
      </g>
     </g>
    </g>
    <g id="ytick_5">
     <g id="line2d_21">
      <path d="M 57.6 94.6944 
L 414.72 94.6944 
" clip-path="url(#p235ca49912)" style="fill: none; stroke: #b0b0b0; stroke-width: 0.8; stroke-linecap: square"/>
     </g>
     <g id="line2d_22">
      <g>
       <use xlink:href="#m4664c34ad4" x="57.6" y="94.6944" style="stroke: #000000; stroke-width: 0.8"/>
      </g>
     </g>
     <g id="text_12">
      <!-- 0.8 -->
      <g transform="translate(34.696875 98.493619) scale(0.1 -0.1)">
       <use xlink:href="#DejaVuSans-30"/>
       <use xlink:href="#DejaVuSans-2e" x="63.623047"/>
       <use xlink:href="#DejaVuSans-38" x="95.410156"/>
      </g>
     </g>
    </g>
    <g id="ytick_6">
     <g id="line2d_23">
      <path d="M 57.6 41.472 
L 414.72 41.472 
" clip-path="url(#p235ca49912)" style="fill: none; stroke: #b0b0b0; stroke-width: 0.8; stroke-linecap: square"/>
     </g>
     <g id="line2d_24">
      <g>
       <use xlink:href="#m4664c34ad4" x="57.6" y="41.472" style="stroke: #000000; stroke-width: 0.8"/>
      </g>
     </g>
     <g id="text_13">
      <!-- 1.0 -->
      <g transform="translate(34.696875 45.271219) scale(0.1 -0.1)">
       <use xlink:href="#DejaVuSans-31"/>
       <use xlink:href="#DejaVuSans-2e" x="63.623047"/>
       <use xlink:href="#DejaVuSans-30" x="95.410156"/>
      </g>
     </g>
    </g>
    <g id="text_14">
     <!-- $(C - C_0)/(C_s - C_0)$ -->
     <g transform="translate(28.617187 216.978) rotate(-90) scale(0.1 -0.1)">
      <defs>
       <path id="DejaVuSans-28" d="M 1984 4856 
Q 1566 4138 1362 3434 
Q 1159 2731 1159 2009 
Q 1159 1288 1364 580 
Q 1569 -128 1984 -844 
L 1484 -844 
Q 1016 -109 783 600 
Q 550 1309 550 2009 
Q 550 2706 781 3412 
Q 1013 4119 1484 4856 
L 1984 4856 
z
" transform="scale(0.015625)"/>
       <path id="DejaVuSans-Oblique-43" d="M 4447 4306 
L 4319 3641 
Q 4019 3944 3683 4091 
Q 3347 4238 2956 4238 
Q 2422 4238 2017 3981 
Q 1613 3725 1319 3200 
Q 1131 2863 1032 2486 
Q 934 2109 934 1728 
Q 934 1091 1264 756 
Q 1594 422 2222 422 
Q 2656 422 3056 561 
Q 3456 700 3834 978 
L 3688 231 
Q 3316 72 2936 -9 
Q 2556 -91 2175 -91 
Q 1278 -91 773 396 
Q 269 884 269 1753 
Q 269 2309 461 2846 
Q 653 3384 1013 3828 
Q 1394 4300 1883 4525 
Q 2372 4750 3022 4750 
Q 3422 4750 3780 4639 
Q 4138 4528 4447 4306 
z
" transform="scale(0.015625)"/>
       <path id="DejaVuSans-2212" d="M 678 2272 
L 4684 2272 
L 4684 1741 
L 678 1741 
L 678 2272 
z
" transform="scale(0.015625)"/>
       <path id="DejaVuSans-29" d="M 513 4856 
L 1013 4856 
Q 1481 4119 1714 3412 
Q 1947 2706 1947 2009 
Q 1947 1309 1714 600 
Q 1481 -109 1013 -844 
L 513 -844 
Q 928 -128 1133 580 
Q 1338 1288 1338 2009 
Q 1338 2731 1133 3434 
Q 928 4138 513 4856 
z
" transform="scale(0.015625)"/>
       <path id="DejaVuSans-Oblique-73" d="M 3200 3397 
L 3091 2853 
Q 2863 2978 2609 3040 
Q 2356 3103 2088 3103 
Q 1634 3103 1373 2948 
Q 1113 2794 1113 2528 
Q 1113 2219 1719 2053 
Q 1766 2041 1788 2034 
L 1972 1978 
Q 2547 1819 2739 1644 
Q 2931 1469 2931 1166 
Q 2931 609 2489 259 
Q 2047 -91 1331 -91 
Q 1053 -91 747 -37 
Q 441 16 72 128 
L 184 722 
Q 500 559 806 475 
Q 1113 391 1394 391 
Q 1816 391 2080 572 
Q 2344 753 2344 1031 
Q 2344 1331 1650 1516 
L 1591 1531 
L 1394 1581 
Q 956 1697 753 1886 
Q 550 2075 550 2369 
Q 550 2928 970 3256 
Q 1391 3584 2113 3584 
Q 2397 3584 2667 3537 
Q 2938 3491 3200 3397 
z
" transform="scale(0.015625)"/>
      </defs>
      <use xlink:href="#DejaVuSans-28" transform="translate(0 0.125)"/>
      <use xlink:href="#DejaVuSans-Oblique-43" transform="translate(39.013672 0.125)"/>
      <use xlink:href="#DejaVuSans-2212" transform="translate(128.320312 0.125)"/>
      <use xlink:href="#DejaVuSans-Oblique-43" transform="translate(231.591797 0.125)"/>
      <use xlink:href="#DejaVuSans-30" transform="translate(301.416016 -16.28125) scale(0.7)"/>
      <use xlink:href="#DejaVuSans-29" transform="translate(348.686523 0.125)"/>
      <use xlink:href="#DejaVuSans-2f" transform="translate(387.700195 0.125)"/>
      <use xlink:href="#DejaVuSans-28" transform="translate(421.391602 0.125)"/>
      <use xlink:href="#DejaVuSans-Oblique-43" transform="translate(460.405273 0.125)"/>
      <use xlink:href="#DejaVuSans-Oblique-73" transform="translate(530.229492 -16.28125) scale(0.7)"/>
      <use xlink:href="#DejaVuSans-2212" transform="translate(588.916016 0.125)"/>
      <use xlink:href="#DejaVuSans-Oblique-43" transform="translate(692.1875 0.125)"/>
      <use xlink:href="#DejaVuSans-30" transform="translate(762.011719 -16.28125) scale(0.7)"/>
      <use xlink:href="#DejaVuSans-29" transform="translate(809.282227 0.125)"/>
     </g>
    </g>
   </g>
   <g id="line2d_25">
    <path d="M 57.6 45.299692 
L 61.207273 45.299049 
L 64.814545 45.297122 
L 68.421818 45.293912 
L 72.029091 45.289421 
L 75.636364 45.283651 
L 79.243636 45.276607 
L 82.850909 45.268291 
L 86.458182 45.258709 
L 90.065455 45.247868 
L 93.672727 45.235773 
L 97.28 45.222432 
L 100.887273 45.207852 
L 104.494545 45.192044 
L 108.101818 45.175015 
L 111.709091 45.156777 
L 115.316364 45.137341 
L 118.923636 45.116717 
L 122.530909 45.094919 
L 126.138182 45.071959 
L 129.745455 45.047852 
L 133.352727 45.022612 
L 136.96 44.996253 
L 140.567273 44.968792 
L 144.174545 44.940246 
L 147.781818 44.91063 
L 151.389091 44.879964 
L 154.996364 44.848264 
L 158.603636 44.815551 
L 162.210909 44.781843 
L 165.818182 44.747161 
L 169.425455 44.711525 
L 173.032727 44.674956 
L 176.64 44.637476 
L 180.247273 44.599107 
L 183.854545 44.559872 
L 187.461818 44.519794 
L 191.069091 44.478896 
L 194.676364 44.437203 
L 198.283636 44.394738 
L 201.890909 44.351528 
L 205.498182 44.307596 
L 209.105455 44.26297 
L 212.712727 44.217674 
L 216.32 44.171735 
L 219.927273 44.12518 
L 223.534545 44.078036 
L 227.141818 44.030329 
L 230.749091 43.982088 
L 234.356364 43.93334 
L 237.963636 43.884114 
L 241.570909 43.834436 
L 245.178182 43.784336 
L 248.785455 43.733843 
L 252.392727 43.682984 
L 256 43.631788 
L 259.607273 43.580286 
L 263.214545 43.528504 
L 266.821818 43.476474 
L 270.429091 43.424223 
L 274.036364 43.37178 
L 277.643636 43.319176 
L 281.250909 43.266438 
L 284.858182 43.213597 
L 288.465455 43.160681 
L 292.072727 43.107718 
L 295.68 43.054739 
L 299.287273 43.001771 
L 302.894545 42.948843 
L 306.501818 42.895984 
L 310.109091 42.843221 
L 313.716364 42.790584 
L 317.323636 42.7381 
L 320.930909 42.685796 
L 324.538182 42.6337 
L 328.145455 42.581839 
L 331.752727 42.53024 
L 335.36 42.47893 
L 338.967273 42.427934 
L 342.574545 42.37728 
L 346.181818 42.326991 
L 349.789091 42.277094 
L 353.396364 42.227613 
L 357.003636 42.178572 
L 360.610909 42.129996 
L 364.218182 42.081909 
L 367.825455 42.034333 
L 371.432727 41.98729 
L 375.04 41.940804 
L 378.647273 41.894896 
L 382.254545 41.849587 
L 385.861818 41.804898 
L 389.469091 41.760848 
L 393.076364 41.717459 
L 396.683636 41.674748 
L 400.290909 41.632734 
L 403.898182 41.591435 
L 407.505455 41.550869 
L 411.112727 41.511052 
L 414.72 41.472 
" clip-path="url(#p235ca49912)" style="fill: none; stroke: #1f77b4; stroke-width: 1.5; stroke-linecap: square"/>
   </g>
   <g id="line2d_26">
    <path d="M 57.6 69.023152 
L 61.207273 69.01853 
L 64.814545 69.004667 
L 68.421818 68.981572 
L 72.029091 68.949258 
L 75.636364 68.907745 
L 79.243636 68.857058 
L 82.850909 68.797227 
L 86.458182 68.728289 
L 90.065455 68.650285 
L 93.672727 68.563262 
L 97.28 68.467273 
L 100.887273 68.362374 
L 104.494545 68.24863 
L 108.101818 68.126109 
L 111.709091 67.994884 
L 115.316364 67.855034 
L 118.923636 67.706644 
L 122.530909 67.549802 
L 126.138182 67.384602 
L 129.745455 67.211143 
L 133.352727 67.02953 
L 136.96 66.83987 
L 140.567273 66.642277 
L 144.174545 66.43687 
L 147.781818 66.223771 
L 151.389091 66.003106 
L 154.996364 65.775008 
L 158.603636 65.539612 
L 162.210909 65.297058 
L 165.818182 65.04749 
L 169.425455 64.791056 
L 173.032727 64.527907 
L 176.64 64.2582 
L 180.247273 63.982094 
L 183.854545 63.699752 
L 187.461818 63.411339 
L 191.069091 63.117026 
L 194.676364 62.816986 
L 198.283636 62.511394 
L 201.890909 62.200429 
L 205.498182 61.884273 
L 209.105455 61.56311 
L 212.712727 61.237127 
L 216.32 60.906514 
L 219.927273 60.571462 
L 223.534545 60.232165 
L 227.141818 59.888819 
L 230.749091 59.541622 
L 234.356364 59.190773 
L 237.963636 58.836474 
L 241.570909 58.478928 
L 245.178182 58.118337 
L 248.785455 57.754908 
L 252.392727 57.388847 
L 256 57.02036 
L 259.607273 56.649657 
L 263.214545 56.276944 
L 266.821818 55.902432 
L 270.429091 55.52633 
L 274.036364 55.148847 
L 277.643636 54.770194 
L 281.250909 54.390578 
L 284.858182 54.010211 
L 288.465455 53.6293 
L 292.072727 53.248054 
L 295.68 52.866681 
L 299.287273 52.485388 
L 302.894545 52.104381 
L 306.501818 51.723863 
L 310.109091 51.34404 
L 313.716364 50.965114 
L 317.323636 50.587285 
L 320.930909 50.210752 
L 324.538182 49.835713 
L 328.145455 49.462363 
L 331.752727 49.090897 
L 335.36 48.721504 
L 338.967273 48.354375 
L 342.574545 47.989695 
L 346.181818 47.62765 
L 349.789091 47.26842 
L 353.396364 46.912185 
L 357.003636 46.55912 
L 360.610909 46.209398 
L 364.218182 45.863189 
L 367.825455 45.520659 
L 371.432727 45.181973 
L 375.04 44.847289 
L 378.647273 44.516765 
L 382.254545 44.190552 
L 385.861818 43.868801 
L 389.469091 43.551656 
L 393.076364 43.23926 
L 396.683636 42.931748 
L 400.290909 42.629256 
L 403.898182 42.331912 
L 407.505455 42.039841 
L 411.112727 41.753165 
L 414.72 41.472 
" clip-path="url(#p235ca49912)" style="fill: none; stroke: #ff7f0e; stroke-width: 1.5; stroke-linecap: square"/>
   </g>
   <g id="line2d_27">
    <path d="M 57.6 115.205677 
L 61.207273 115.193402 
L 64.814545 115.156586 
L 68.421818 115.095249 
L 72.029091 115.009427 
L 75.636364 114.899171 
L 79.243636 114.764544 
L 82.850909 114.605626 
L 86.458182 114.42251 
L 90.065455 114.215303 
L 93.672727 113.984124 
L 97.28 113.729111 
L 100.887273 113.450411 
L 104.494545 113.148187 
L 108.101818 112.822616 
L 111.709091 112.473888 
L 115.316364 112.102206 
L 118.923636 111.707788 
L 122.530909 111.290863 
L 126.138182 110.851675 
L 129.745455 110.390479 
L 133.352727 109.907545 
L 136.96 109.403154 
L 140.567273 108.8776 
L 144.174545 108.331189 
L 147.781818 107.764238 
L 151.389091 107.177079 
L 154.996364 106.570052 
L 158.603636 105.943509 
L 162.210909 105.297817 
L 165.818182 104.633348 
L 169.425455 103.950489 
L 173.032727 103.249636 
L 176.64 102.531195 
L 180.247273 101.795582 
L 183.854545 101.043224 
L 187.461818 100.274554 
L 191.069091 99.490018 
L 194.676364 98.690068 
L 198.283636 97.875166 
L 201.890909 97.045782 
L 205.498182 96.202392 
L 209.105455 95.345483 
L 212.712727 94.475545 
L 216.32 93.59308 
L 219.927273 92.698591 
L 223.534545 91.792591 
L 227.141818 90.875598 
L 230.749091 89.948136 
L 234.356364 89.010732 
L 237.963636 88.06392 
L 241.570909 87.108238 
L 245.178182 86.144227 
L 248.785455 85.172434 
L 252.392727 84.193407 
L 256 83.207698 
L 259.607273 82.215861 
L 263.214545 81.218454 
L 266.821818 80.216034 
L 270.429091 79.209161 
L 274.036364 78.198398 
L 277.643636 77.184304 
L 281.250909 76.167442 
L 284.858182 75.148374 
L 288.465455 74.127661 
L 292.072727 73.105864 
L 295.68 72.083541 
L 299.287273 71.06125 
L 302.894545 70.039547 
L 306.501818 69.018984 
L 310.109091 68.000112 
L 313.716364 66.983476 
L 317.323636 65.969622 
L 320.930909 64.959087 
L 324.538182 63.952407 
L 328.145455 62.950112 
L 331.752727 61.952727 
L 335.36 60.960772 
L 338.967273 59.974761 
L 342.574545 58.995201 
L 346.181818 58.022594 
L 349.789091 57.057434 
L 353.396364 56.100208 
L 357.003636 55.151395 
L 360.610909 54.211468 
L 364.218182 53.28089 
L 367.825455 52.360115 
L 371.432727 51.449591 
L 375.04 50.549754 
L 378.647273 49.661033 
L 382.254545 48.783844 
L 385.861818 47.918597 
L 389.469091 47.065689 
L 393.076364 46.225508 
L 396.683636 45.398431 
L 400.290909 44.584822 
L 403.898182 43.785038 
L 407.505455 42.99942 
L 411.112727 42.228301 
L 414.72 41.472 
" clip-path="url(#p235ca49912)" style="fill: none; stroke: #2ca02c; stroke-width: 1.5; stroke-linecap: square"/>
   </g>
   <g id="line2d_28">
    <path d="M 57.6 161.147124 
L 61.207273 161.127756 
L 64.814545 161.069664 
L 68.421818 160.972876 
L 72.029091 160.837443 
L 75.636364 160.663435 
L 79.243636 160.45094 
L 82.850909 160.20007 
L 86.458182 159.910953 
L 90.065455 159.583738 
L 93.672727 159.218594 
L 97.28 158.815711 
L 100.887273 158.375297 
L 104.494545 157.89758 
L 108.101818 157.382808 
L 111.709091 156.831248 
L 115.316364 156.243187 
L 118.923636 155.618931 
L 122.530909 154.958806 
L 126.138182 154.263157 
L 129.745455 153.532346 
L 133.352727 152.766758 
L 136.96 151.966793 
L 140.567273 151.132873 
L 144.174545 150.265436 
L 147.781818 149.364939 
L 151.389091 148.43186 
L 154.996364 147.466691 
L 158.603636 146.469945 
L 162.210909 145.442151 
L 165.818182 144.383858 
L 169.425455 143.295629 
L 173.032727 142.178047 
L 176.64 141.03171 
L 180.247273 139.857234 
L 183.854545 138.655251 
L 187.461818 137.426408 
L 191.069091 136.171369 
L 194.676364 134.890814 
L 198.283636 133.585437 
L 201.890909 132.255947 
L 205.498182 130.903068 
L 209.105455 129.527538 
L 212.712727 128.130108 
L 216.32 126.711543 
L 219.927273 125.272621 
L 223.534545 123.814133 
L 227.141818 122.33688 
L 230.749091 120.841676 
L 234.356364 119.329347 
L 237.963636 117.800727 
L 241.570909 116.256663 
L 245.178182 114.69801 
L 248.785455 113.125631 
L 252.392727 111.540401 
L 256 109.943198 
L 259.607273 108.334911 
L 263.214545 106.716435 
L 266.821818 105.08867 
L 270.429091 103.452523 
L 274.036364 101.808904 
L 277.643636 100.158729 
L 281.250909 98.502916 
L 284.858182 96.842388 
L 288.465455 95.178067 
L 292.072727 93.510881 
L 295.68 91.841754 
L 299.287273 90.171614 
L 302.894545 88.501385 
L 306.501818 86.831993 
L 310.109091 85.16436 
L 313.716364 83.499406 
L 317.323636 81.838047 
L 320.930909 80.181196 
L 324.538182 78.529759 
L 328.145455 76.884638 
L 331.752727 75.246729 
L 335.36 73.616919 
L 338.967273 71.99609 
L 342.574545 70.385112 
L 346.181818 68.784848 
L 349.789091 67.196151 
L 353.396364 65.619863 
L 357.003636 64.056814 
L 360.610909 62.507822 
L 364.218182 60.973694 
L 367.825455 59.455222 
L 371.432727 57.953184 
L 375.04 56.468343 
L 378.647273 55.001448 
L 382.254545 53.553232 
L 385.861818 52.124409 
L 389.469091 50.715679 
L 393.076364 49.327723 
L 396.683636 47.961203 
L 400.290909 46.616763 
L 403.898182 45.295028 
L 407.505455 43.996603 
L 411.112727 42.722072 
L 414.72 41.472 
" clip-path="url(#p235ca49912)" style="fill: none; stroke: #d62728; stroke-width: 1.5; stroke-linecap: square"/>
   </g>
   <g id="line2d_29">
    <path d="M 57.6 229.639962 
L 61.207273 229.613379 
L 64.814545 229.533858 
L 68.421818 229.401335 
L 72.029091 229.215832 
L 75.636364 228.977378 
L 79.243636 228.686009 
L 82.850909 228.341773 
L 86.458182 227.944725 
L 90.065455 227.494929 
L 93.672727 226.99246 
L 97.28 226.437405 
L 100.887273 225.82986 
L 104.494545 225.169932 
L 108.101818 224.457742 
L 111.709091 223.693423 
L 115.316364 222.877121 
L 118.923636 222.008998 
L 122.530909 221.089229 
L 126.138182 220.118007 
L 129.745455 219.095539 
L 133.352727 218.022053 
L 136.96 216.897793 
L 140.567273 215.723024 
L 144.174545 214.498029 
L 147.781818 213.223115 
L 151.389091 211.89861 
L 154.996364 210.524865 
L 158.603636 209.102256 
L 162.210909 207.631182 
L 165.818182 206.11207 
L 169.425455 204.545373 
L 173.032727 202.931572 
L 176.64 201.271177 
L 180.247273 199.564727 
L 183.854545 197.812791 
L 187.461818 196.015969 
L 191.069091 194.174894 
L 194.676364 192.290231 
L 198.283636 190.362677 
L 201.890909 188.392964 
L 205.498182 186.381858 
L 209.105455 184.33016 
L 212.712727 182.238706 
L 216.32 180.108367 
L 219.927273 177.940051 
L 223.534545 175.734701 
L 227.141818 173.493297 
L 230.749091 171.216855 
L 234.356364 168.906427 
L 237.963636 166.563102 
L 241.570909 164.188003 
L 245.178182 161.782292 
L 248.785455 159.347164 
L 252.392727 156.883849 
L 256 154.393612 
L 259.607273 151.877753 
L 263.214545 149.337603 
L 266.821818 146.774526 
L 270.429091 144.189919 
L 274.036364 141.585207 
L 277.643636 138.961846 
L 281.250909 136.32132 
L 284.858182 133.665141 
L 288.465455 130.994844 
L 292.072727 128.311991 
L 295.68 125.618166 
L 299.287273 122.914974 
L 302.894545 120.204041 
L 306.501818 117.487009 
L 310.109091 114.765537 
L 313.716364 112.041299 
L 317.323636 109.315982 
L 320.930909 106.591282 
L 324.538182 103.868904 
L 328.145455 101.150561 
L 331.752727 98.437967 
L 335.36 95.732843 
L 338.967273 93.036907 
L 342.574545 90.351875 
L 346.181818 87.679459 
L 349.789091 85.021366 
L 353.396364 82.379293 
L 357.003636 79.754926 
L 360.610909 77.149938 
L 364.218182 74.565985 
L 367.825455 72.004709 
L 371.432727 69.467729 
L 375.04 66.956641 
L 378.647273 64.47302 
L 382.254545 62.018412 
L 385.861818 59.594335 
L 389.469091 57.202277 
L 393.076364 54.843692 
L 396.683636 52.520002 
L 400.290909 50.232588 
L 403.898182 47.982797 
L 407.505455 45.771934 
L 411.112727 43.601262 
L 414.72 41.472 
" clip-path="url(#p235ca49912)" style="fill: none; stroke: #9467bd; stroke-width: 1.5; stroke-linecap: square"/>
   </g>
   <g id="line2d_30">
    <path d="M 57.6 298.73165 
L 61.207273 298.521951 
L 64.814545 298.480356 
L 68.421818 298.410898 
L 72.029091 298.313372 
L 75.636364 298.187497 
L 79.243636 298.03291 
L 82.850909 297.849167 
L 86.458182 297.635746 
L 90.065455 297.392046 
L 93.672727 297.117389 
L 97.28 296.811018 
L 100.887273 296.472102 
L 104.494545 296.099733 
L 108.101818 295.692931 
L 111.709091 295.250644 
L 115.316364 294.771749 
L 118.923636 294.255054 
L 122.530909 293.699301 
L 126.138182 293.103169 
L 129.745455 292.465272 
L 133.352727 291.784168 
L 136.96 291.058358 
L 140.567273 290.286289 
L 144.174545 289.466361 
L 147.781818 288.596926 
L 151.389091 287.676297 
L 154.996364 286.702748 
L 158.603636 285.674521 
L 162.210909 284.589832 
L 165.818182 283.446874 
L 169.425455 282.243822 
L 173.032727 280.978844 
L 176.64 279.6501 
L 180.247273 278.255755 
L 183.854545 276.793983 
L 187.461818 275.262972 
L 191.069091 273.660935 
L 194.676364 271.986118 
L 198.283636 270.236803 
L 201.890909 268.411321 
L 205.498182 266.50806 
L 209.105455 264.525469 
L 212.712727 262.462073 
L 216.32 260.316477 
L 219.927273 258.087376 
L 223.534545 255.773566 
L 227.141818 253.373949 
L 230.749091 250.887546 
L 234.356364 248.313503 
L 237.963636 245.651101 
L 241.570909 242.899764 
L 245.178182 240.059066 
L 248.785455 237.128743 
L 252.392727 234.108697 
L 256 230.999004 
L 259.607273 227.799921 
L 263.214545 224.511895 
L 266.821818 221.135566 
L 270.429091 217.671774 
L 274.036364 214.121563 
L 277.643636 210.486185 
L 281.250909 206.767106 
L 284.858182 202.966006 
L 288.465455 199.084783 
L 292.072727 195.125551 
L 295.68 191.090648 
L 299.287273 186.982624 
L 302.894545 182.804252 
L 306.501818 178.558517 
L 310.109091 174.248617 
L 313.716364 169.877958 
L 317.323636 165.45015 
L 320.930909 160.968998 
L 324.538182 156.4385 
L 328.145455 151.862837 
L 331.752727 147.246364 
L 335.36 142.593601 
L 338.967273 137.909223 
L 342.574545 133.19805 
L 346.181818 128.465034 
L 349.789091 123.715247 
L 353.396364 118.953867 
L 357.003636 114.186166 
L 360.610909 109.417495 
L 364.218182 104.653269 
L 367.825455 99.898952 
L 371.432727 95.160041 
L 375.04 90.442053 
L 378.647273 85.750503 
L 382.254545 81.090895 
L 385.861818 76.468701 
L 389.469091 71.889345 
L 393.076364 67.358192 
L 396.683636 62.880526 
L 400.290909 58.461535 
L 403.898182 54.106302 
L 407.505455 49.819782 
L 411.112727 45.606793 
L 414.72 41.472 
" clip-path="url(#p235ca49912)" style="fill: none; stroke: #8c564b; stroke-width: 1.5; stroke-linecap: square"/>
   </g>
   <g id="line2d_31">
    <path d="M 57.6 326.772017 
L 61.207273 307.576006 
L 64.814545 307.575761 
L 68.421818 307.575344 
L 72.029091 307.574742 
L 75.636364 307.573938 
L 79.243636 307.572906 
L 82.850909 307.571616 
L 86.458182 307.570029 
L 90.065455 307.568098 
L 93.672727 307.565765 
L 97.28 307.562962 
L 100.887273 307.559607 
L 104.494545 307.555604 
L 108.101818 307.55084 
L 111.709091 307.545179 
L 115.316364 307.538466 
L 118.923636 307.530516 
L 122.530909 307.521116 
L 126.138182 307.510017 
L 129.745455 307.49693 
L 133.352727 307.481522 
L 136.96 307.463407 
L 140.567273 307.442142 
L 144.174545 307.417215 
L 147.781818 307.388043 
L 151.389091 307.353957 
L 154.996364 307.314193 
L 158.603636 307.267886 
L 162.210909 307.214052 
L 165.818182 307.151575 
L 169.425455 307.079202 
L 173.032727 306.995516 
L 176.64 306.898931 
L 180.247273 306.787671 
L 183.854545 306.659754 
L 187.461818 306.512972 
L 191.069091 306.34488 
L 194.676364 306.152771 
L 198.283636 305.933659 
L 201.890909 305.684265 
L 205.498182 305.400994 
L 209.105455 305.07992 
L 212.712727 304.71677 
L 216.32 304.306908 
L 219.927273 303.845326 
L 223.534545 303.326625 
L 227.141818 302.745014 
L 230.749091 302.094301 
L 234.356364 301.367894 
L 237.963636 300.558797 
L 241.570909 299.659624 
L 245.178182 298.662606 
L 248.785455 297.559607 
L 252.392727 296.342151 
L 256 295.001446 
L 259.607273 293.528424 
L 263.214545 291.913777 
L 266.821818 290.148013 
L 270.429091 288.221505 
L 274.036364 286.12456 
L 277.643636 283.847486 
L 281.250909 281.380669 
L 284.858182 278.714656 
L 288.465455 275.840245 
L 292.072727 272.748579 
L 295.68 269.431241 
L 299.287273 265.880365 
L 302.894545 262.08873 
L 306.501818 258.049875 
L 310.109091 253.758201 
L 313.716364 249.209079 
L 317.323636 244.39895 
L 320.930909 239.325427 
L 324.538182 233.987386 
L 328.145455 228.38505 
L 331.752727 222.520074 
L 335.36 216.395601 
L 338.967273 210.016329 
L 342.574545 203.388544 
L 346.181818 196.520155 
L 349.789091 189.420705 
L 353.396364 182.101368 
L 357.003636 174.574931 
L 360.610909 166.855754 
L 364.218182 158.959724 
L 367.825455 150.904175 
L 371.432727 142.707806 
L 375.04 134.390577 
L 378.647273 125.973584 
L 382.254545 117.478933 
L 385.861818 108.929585 
L 389.469091 100.349205 
L 393.076364 91.761989 
L 396.683636 83.192488 
L 400.290909 74.665432 
L 403.898182 66.20554 
L 407.505455 57.837335 
L 411.112727 49.58496 
L 414.72 41.472 
" clip-path="url(#p235ca49912)" style="fill: none; stroke: #e377c2; stroke-width: 1.5; stroke-linecap: square"/>
   </g>
   <g id="line2d_32">
    <path d="M 59.365277 346.6 
L 61.207273 307.584 
L 64.814545 307.584 
L 68.421818 307.584 
L 72.029091 307.584 
L 75.636364 307.584 
L 79.243636 307.584 
L 82.850909 307.584 
L 86.458182 307.584 
L 90.065455 307.584 
L 93.672727 307.583999 
L 97.28 307.583999 
L 100.887273 307.583999 
L 104.494545 307.583998 
L 108.101818 307.583998 
L 111.709091 307.583997 
L 115.316364 307.583995 
L 118.923636 307.583993 
L 122.530909 307.583989 
L 126.138182 307.583985 
L 129.745455 307.583978 
L 133.352727 307.583968 
L 136.96 307.583954 
L 140.567273 307.583935 
L 144.174545 307.583907 
L 147.781818 307.583868 
L 151.389091 307.583813 
L 154.996364 307.583736 
L 158.603636 307.583628 
L 162.210909 307.583478 
L 165.818182 307.583272 
L 169.425455 307.582987 
L 173.032727 307.582596 
L 176.64 307.582061 
L 180.247273 307.581334 
L 183.854545 307.58035 
L 187.461818 307.579022 
L 191.069091 307.577239 
L 194.676364 307.574855 
L 198.283636 307.571683 
L 201.890909 307.567481 
L 205.498182 307.561939 
L 209.105455 307.554665 
L 212.712727 307.545158 
L 216.32 307.532793 
L 219.927273 307.516783 
L 223.534545 307.496152 
L 227.141818 307.46969 
L 230.749091 307.435906 
L 234.356364 307.392978 
L 237.963636 307.33869 
L 241.570909 307.27036 
L 245.178182 307.184764 
L 248.785455 307.078052 
L 252.392727 306.945648 
L 256 306.782155 
L 259.607273 306.581245 
L 263.214545 306.335542 
L 266.821818 306.036511 
L 270.429091 305.674339 
L 274.036364 305.237823 
L 277.643636 304.714259 
L 281.250909 304.089347 
L 284.858182 303.347113 
L 288.465455 302.469841 
L 292.072727 301.438048 
L 295.68 300.230477 
L 299.287273 298.824138 
L 302.894545 297.194389 
L 306.501818 295.315072 
L 310.109091 293.158698 
L 313.716364 290.696694 
L 317.323636 287.899713 
L 320.930909 284.738005 
L 324.538182 281.181846 
L 328.145455 277.202029 
L 331.752727 272.770408 
L 335.36 267.860485 
L 338.967273 262.448033 
L 342.574545 256.511742 
L 346.181818 250.033873 
L 349.789091 243.000905 
L 353.396364 235.40415 
L 357.003636 227.240331 
L 360.610909 218.512092 
L 364.218182 209.228427 
L 367.825455 199.405005 
L 371.432727 189.064383 
L 375.04 178.23609 
L 378.647273 166.956569 
L 382.254545 155.268971 
L 385.861818 143.222808 
L 389.469091 130.873452 
L 393.076364 118.281496 
L 396.683636 105.51199 
L 400.290909 92.63356 
L 403.898182 79.717435 
L 407.505455 66.836404 
L 411.112727 54.063721 
L 414.72 41.472 
" clip-path="url(#p235ca49912)" style="fill: none; stroke: #7f7f7f; stroke-width: 1.5; stroke-linecap: square"/>
   </g>
   <g id="line2d_33">
    <path d="M 60.236358 346.6 
L 61.207273 307.584 
L 64.814545 307.584 
L 68.421818 307.584 
L 72.029091 307.584 
L 75.636364 307.584 
L 79.243636 307.584 
L 82.850909 307.584 
L 86.458182 307.584 
L 90.065455 307.584 
L 93.672727 307.584 
L 97.28 307.584 
L 100.887273 307.584 
L 104.494545 307.584 
L 108.101818 307.584 
L 111.709091 307.584 
L 115.316364 307.584 
L 118.923636 307.584 
L 122.530909 307.584 
L 126.138182 307.584 
L 129.745455 307.584 
L 133.352727 307.584 
L 136.96 307.584 
L 140.567273 307.584 
L 144.174545 307.584 
L 147.781818 307.584 
L 151.389091 307.584 
L 154.996364 307.584 
L 158.603636 307.584 
L 162.210909 307.584 
L 165.818182 307.584 
L 169.425455 307.584 
L 173.032727 307.584 
L 176.64 307.584 
L 180.247273 307.584 
L 183.854545 307.584 
L 187.461818 307.584 
L 191.069091 307.584 
L 194.676364 307.584 
L 198.283636 307.583999 
L 201.890909 307.583998 
L 205.498182 307.583997 
L 209.105455 307.583995 
L 212.712727 307.583991 
L 216.32 307.583983 
L 219.927273 307.583971 
L 223.534545 307.583951 
L 227.141818 307.583916 
L 230.749091 307.583858 
L 234.356364 307.583763 
L 237.963636 307.583608 
L 241.570909 307.583357 
L 245.178182 307.582956 
L 248.785455 307.582322 
L 252.392727 307.581326 
L 256 307.579779 
L 259.607273 307.577401 
L 263.214545 307.57378 
L 266.821818 307.568321 
L 270.429091 307.560174 
L 274.036364 307.548132 
L 277.643636 307.530512 
L 281.250909 307.504985 
L 284.858182 307.468369 
L 288.465455 307.416367 
L 292.072727 307.34325 
L 295.68 307.241466 
L 299.287273 307.101185 
L 302.894545 306.909773 
L 306.501818 306.651199 
L 310.109091 306.305382 
L 313.716364 305.847508 
L 317.323636 305.247329 
L 320.930909 304.468488 
L 324.538182 303.46793 
L 328.145455 302.195424 
L 331.752727 300.593305 
L 335.36 298.596462 
L 338.967273 296.132683 
L 342.574545 293.123402 
L 346.181818 289.484908 
L 349.789091 285.130066 
L 353.396364 279.970556 
L 357.003636 273.91962 
L 360.610909 266.895254 
L 364.218182 258.823772 
L 367.825455 249.643584 
L 371.432727 239.309043 
L 375.04 227.794151 
L 378.647273 215.095899 
L 382.254545 201.237035 
L 385.861818 186.268036 
L 389.469091 170.268093 
L 393.076364 153.34498 
L 396.683636 135.633713 
L 400.290909 117.293982 
L 403.898182 98.506427 
L 407.505455 79.467877 
L 411.112727 60.38577 
L 414.72 41.472 
" clip-path="url(#p235ca49912)" style="fill: none; stroke: #bcbd22; stroke-width: 1.5; stroke-linecap: square"/>
   </g>
   <g id="patch_3">
    <path d="M 57.6 307.584 
L 57.6 41.472 
" style="fill: none; stroke: #000000; stroke-width: 0.8; stroke-linejoin: miter; stroke-linecap: square"/>
   </g>
   <g id="patch_4">
    <path d="M 414.72 307.584 
L 414.72 41.472 
" style="fill: none; stroke: #000000; stroke-width: 0.8; stroke-linejoin: miter; stroke-linecap: square"/>
   </g>
   <g id="patch_5">
    <path d="M 57.6 307.584 
L 414.72 307.584 
" style="fill: none; stroke: #000000; stroke-width: 0.8; stroke-linejoin: miter; stroke-linecap: square"/>
   </g>
   <g id="patch_6">
    <path d="M 57.6 41.472 
L 414.72 41.472 
" style="fill: none; stroke: #000000; stroke-width: 0.8; stroke-linejoin: miter; stroke-linecap: square"/>
   </g>
   <g id="legend_1">
    <g id="patch_7">
     <path d="M 347.091875 302.584 
L 407.72 302.584 
Q 409.72 302.584 409.72 300.584 
L 409.72 169.480875 
Q 409.72 167.480875 407.72 167.480875 
L 347.091875 167.480875 
Q 345.091875 167.480875 345.091875 169.480875 
L 345.091875 300.584 
Q 345.091875 302.584 347.091875 302.584 
z
" style="fill: #ffffff; opacity: 0.8; stroke: #cccccc; stroke-linejoin: miter"/>
    </g>
    <g id="line2d_34">
     <path d="M 349.091875 175.579313 
L 359.091875 175.579313 
L 369.091875 175.579313 
" style="fill: none; stroke: #1f77b4; stroke-width: 1.5; stroke-linecap: square"/>
    </g>
    <g id="text_15">
     <!-- 0.5 -->
     <g transform="translate(377.091875 179.079313) scale(0.1 -0.1)">
      <defs>
       <path id="DejaVuSans-35" d="M 691 4666 
L 3169 4666 
L 3169 4134 
L 1269 4134 
L 1269 2991 
Q 1406 3038 1543 3061 
Q 1681 3084 1819 3084 
Q 2600 3084 3056 2656 
Q 3513 2228 3513 1497 
Q 3513 744 3044 326 
Q 2575 -91 1722 -91 
Q 1428 -91 1123 -41 
Q 819 9 494 109 
L 494 744 
Q 775 591 1075 516 
Q 1375 441 1709 441 
Q 2250 441 2565 725 
Q 2881 1009 2881 1497 
Q 2881 1984 2565 2268 
Q 2250 2553 1709 2553 
Q 1456 2553 1204 2497 
Q 953 2441 691 2322 
L 691 4666 
z
" transform="scale(0.015625)"/>
      </defs>
      <use xlink:href="#DejaVuSans-30"/>
      <use xlink:href="#DejaVuSans-2e" x="63.623047"/>
      <use xlink:href="#DejaVuSans-35" x="95.410156"/>
     </g>
    </g>
    <g id="line2d_35">
     <path d="M 349.091875 190.257438 
L 359.091875 190.257438 
L 369.091875 190.257438 
" style="fill: none; stroke: #ff7f0e; stroke-width: 1.5; stroke-linecap: square"/>
    </g>
    <g id="text_16">
     <!-- 0.3 -->
     <g transform="translate(377.091875 193.757438) scale(0.1 -0.1)">
      <defs>
       <path id="DejaVuSans-33" d="M 2597 2516 
Q 3050 2419 3304 2112 
Q 3559 1806 3559 1356 
Q 3559 666 3084 287 
Q 2609 -91 1734 -91 
Q 1441 -91 1130 -33 
Q 819 25 488 141 
L 488 750 
Q 750 597 1062 519 
Q 1375 441 1716 441 
Q 2309 441 2620 675 
Q 2931 909 2931 1356 
Q 2931 1769 2642 2001 
Q 2353 2234 1838 2234 
L 1294 2234 
L 1294 2753 
L 1863 2753 
Q 2328 2753 2575 2939 
Q 2822 3125 2822 3475 
Q 2822 3834 2567 4026 
Q 2313 4219 1838 4219 
Q 1578 4219 1281 4162 
Q 984 4106 628 3988 
L 628 4550 
Q 988 4650 1302 4700 
Q 1616 4750 1894 4750 
Q 2613 4750 3031 4423 
Q 3450 4097 3450 3541 
Q 3450 3153 3228 2886 
Q 3006 2619 2597 2516 
z
" transform="scale(0.015625)"/>
      </defs>
      <use xlink:href="#DejaVuSans-30"/>
      <use xlink:href="#DejaVuSans-2e" x="63.623047"/>
      <use xlink:href="#DejaVuSans-33" x="95.410156"/>
     </g>
    </g>
    <g id="line2d_36">
     <path d="M 349.091875 204.935563 
L 359.091875 204.935563 
L 369.091875 204.935563 
" style="fill: none; stroke: #2ca02c; stroke-width: 1.5; stroke-linecap: square"/>
    </g>
    <g id="text_17">
     <!-- 0.2 -->
     <g transform="translate(377.091875 208.435563) scale(0.1 -0.1)">
      <use xlink:href="#DejaVuSans-30"/>
      <use xlink:href="#DejaVuSans-2e" x="63.623047"/>
      <use xlink:href="#DejaVuSans-32" x="95.410156"/>
     </g>
    </g>
    <g id="line2d_37">
     <path d="M 349.091875 219.613688 
L 359.091875 219.613688 
L 369.091875 219.613688 
" style="fill: none; stroke: #d62728; stroke-width: 1.5; stroke-linecap: square"/>
    </g>
    <g id="text_18">
     <!-- 0.15 -->
     <g transform="translate(377.091875 223.113688) scale(0.1 -0.1)">
      <use xlink:href="#DejaVuSans-30"/>
      <use xlink:href="#DejaVuSans-2e" x="63.623047"/>
      <use xlink:href="#DejaVuSans-31" x="95.410156"/>
      <use xlink:href="#DejaVuSans-35" x="159.033203"/>
     </g>
    </g>
    <g id="line2d_38">
     <path d="M 349.091875 234.291813 
L 359.091875 234.291813 
L 369.091875 234.291813 
" style="fill: none; stroke: #9467bd; stroke-width: 1.5; stroke-linecap: square"/>
    </g>
    <g id="text_19">
     <!-- 0.1 -->
     <g transform="translate(377.091875 237.791813) scale(0.1 -0.1)">
      <use xlink:href="#DejaVuSans-30"/>
      <use xlink:href="#DejaVuSans-2e" x="63.623047"/>
      <use xlink:href="#DejaVuSans-31" x="95.410156"/>
     </g>
    </g>
    <g id="line2d_39">
     <path d="M 349.091875 248.969938 
L 359.091875 248.969938 
L 369.091875 248.969938 
" style="fill: none; stroke: #8c564b; stroke-width: 1.5; stroke-linecap: square"/>
    </g>
    <g id="text_20">
     <!-- 0.05 -->
     <g transform="translate(377.091875 252.469938) scale(0.1 -0.1)">
      <use xlink:href="#DejaVuSans-30"/>
      <use xlink:href="#DejaVuSans-2e" x="63.623047"/>
      <use xlink:href="#DejaVuSans-30" x="95.410156"/>
      <use xlink:href="#DejaVuSans-35" x="159.033203"/>
     </g>
    </g>
    <g id="line2d_40">
     <path d="M 349.091875 263.648063 
L 359.091875 263.648063 
L 369.091875 263.648063 
" style="fill: none; stroke: #e377c2; stroke-width: 1.5; stroke-linecap: square"/>
    </g>
    <g id="text_21">
     <!-- 0.02 -->
     <g transform="translate(377.091875 267.148063) scale(0.1 -0.1)">
      <use xlink:href="#DejaVuSans-30"/>
      <use xlink:href="#DejaVuSans-2e" x="63.623047"/>
      <use xlink:href="#DejaVuSans-30" x="95.410156"/>
      <use xlink:href="#DejaVuSans-32" x="159.033203"/>
     </g>
    </g>
    <g id="line2d_41">
     <path d="M 349.091875 278.326188 
L 359.091875 278.326188 
L 369.091875 278.326188 
" style="fill: none; stroke: #7f7f7f; stroke-width: 1.5; stroke-linecap: square"/>
    </g>
    <g id="text_22">
     <!-- 0.01 -->
     <g transform="translate(377.091875 281.826188) scale(0.1 -0.1)">
      <use xlink:href="#DejaVuSans-30"/>
      <use xlink:href="#DejaVuSans-2e" x="63.623047"/>
      <use xlink:href="#DejaVuSans-30" x="95.410156"/>
      <use xlink:href="#DejaVuSans-31" x="159.033203"/>
     </g>
    </g>
    <g id="line2d_42">
     <path d="M 349.091875 293.004312 
L 359.091875 293.004312 
L 369.091875 293.004312 
" style="fill: none; stroke: #bcbd22; stroke-width: 1.5; stroke-linecap: square"/>
    </g>
    <g id="text_23">
     <!-- 0.005 -->
     <g transform="translate(377.091875 296.504312) scale(0.1 -0.1)">
      <use xlink:href="#DejaVuSans-30"/>
      <use xlink:href="#DejaVuSans-2e" x="63.623047"/>
      <use xlink:href="#DejaVuSans-30" x="95.410156"/>
      <use xlink:href="#DejaVuSans-30" x="159.033203"/>
      <use xlink:href="#DejaVuSans-35" x="222.65625"/>
     </g>
    </g>
   </g>
  </g>
 </g>
 <defs>
  <clipPath id="p235ca49912">
   <rect x="57.6" y="41.472" width="357.12" height="266.112"/>
  </clipPath>
 </defs>
</svg>
